<svg version="1.1" viewBox="0.0 0.0 816.0 1056.0" fill="none" stroke="none" stroke-linecap="square" stroke-miterlimit="10" xmlns:xlink="http://www.w3.org/1999/xlink" xmlns="http://www.w3.org/2000/svg"><clipPath id="p.0"><path d="m0 0l816.0 0l0 1056.0l-816.0 0l0 -1056.0z" clip-rule="nonzero"/></clipPath><g clip-path="url(#p.0)"><path fill="#004c52" d="m0 0l816.0 0l0 1056.0l-816.0 0z" fill-rule="evenodd"/><path fill="#00ae9d" fill-opacity="0.8346" d="m817.0776 404.9549l0 319.1772l-215.30432 261.01172l-601.2356 -204.33618l0 -471.30728l205.07756 -247.58467z" fill-rule="evenodd"/><path fill="#00ae9d" fill-opacity="0.2654" d="m815.4869 219.759l-169.03845 -63.728943l-646.9749 284.46536l0 369.89587l158.23608 119.62518l657.7773 -146.46979z" fill-rule="evenodd"/><path fill="#abe33f" fill-opacity="0.8115" d="m0.53766406 277.3912l-0.53766406 435.42062l817.0776 157.72113l0 -570.2223z" fill-rule="evenodd"/><path fill="#000000" fill-opacity="0.0" d="m22.724411 373.4882l770.55115 0l0 238.11026l-770.55115 0z" fill-rule="evenodd"/><path fill="#ffffff" d="m114.14906 481.95206q-0.453125 -0.453125 -1.640625 -1.21875q-1.1875 -0.765625 -2.890625 -1.46875q-1.6875 -0.703125 -3.671875 -1.25q-1.984375 -0.546875 -4.03125 -0.546875q-3.578125 0 -5.40625 1.34375q-1.8125 1.34375 -1.8125 3.78125q0 1.84375 1.140625 2.9375q1.15625 1.09375 3.453125 1.859375q2.3125 0.765625 5.765625 1.65625q4.484375 1.09375 7.78125 2.671875q3.296875 1.5625 5.046875 4.09375q1.765625 2.515625 1.765625 6.6875q0 3.640625 -1.34375 6.234375q-1.34375 2.59375 -3.71875 4.2030945q-2.359375 1.59375 -5.375 2.328125q-3.0 0.734375 -6.390625 0.734375q-3.390625 0 -6.796875 -0.703125q-3.390625 -0.703125 -6.53125 -2.015625q-3.125 -1.3124695 -5.75 -3.1718445l3.90625 -7.609375q0.578125 0.5625 2.046875 1.5q1.46875 0.921875 3.578125 1.859375q2.125 0.921875 4.609375 1.5625q2.5 0.640625 5.0625 0.640625q3.578125 0 5.4375 -1.21875q1.859375 -1.21875 1.859375 -3.453125q0 -2.046875 -1.484375 -3.203125q-1.46875 -1.15625 -4.09375 -2.015625q-2.609375 -0.859375 -6.203125 -1.890625q-4.28125 -1.21875 -7.171875 -2.71875q-2.875 -1.5 -4.28125 -3.796875q-1.40625 -2.3125 -1.40625 -5.765625q0 -4.671875 2.203125 -7.84375q2.21875 -3.171875 5.984375 -4.796875q3.78125 -1.640625 8.390625 -1.640625q3.203125 0 6.046875 0.703125q2.84375 0.703125 5.34375 1.859375q2.5 1.15625 4.484375 2.5l-3.90625 7.171875zm26.810059 34.171844q-4.09375 0 -7.359375 -1.375q-3.265625 -1.375 -5.546875 -3.7968445q-2.265625 -2.4375 -3.484375 -5.578125q-1.203125 -3.140625 -1.203125 -6.59375q0 -3.515625 1.203125 -6.65625q1.21875 -3.140625 3.484375 -5.5625q2.28125 -2.4375 5.546875 -3.8125q3.265625 -1.375 7.359375 -1.375q4.09375 0 7.328125 1.375q3.234375 1.375 5.53125 3.8125q2.3125 2.421875 3.484375 5.5625q1.1875 3.140625 1.1875 6.65625q0 3.453125 -1.1875 6.59375q-1.171875 3.140625 -3.453125 5.578125q-2.265625 2.4218445 -5.53125 3.7968445q-3.265625 1.375 -7.359375 1.375zm-8.765625 -17.34372q0 2.9375 1.140625 5.21875q1.15625 2.265625 3.140625 3.546875q1.984375 1.28125 4.484375 1.28125q2.4375 0 4.421875 -1.3125q1.984375 -1.3125 3.15625 -3.578125q1.1875 -2.28125 1.1875 -5.21875q0 -2.875 -1.1875 -5.171875q-1.171875 -2.3125 -3.15625 -3.59375q-1.984375 -1.28125 -4.421875 -1.28125q-2.5 0 -4.484375 1.3125q-1.984375 1.3125 -3.140625 3.59375q-1.140625 2.265625 -1.140625 5.203125zm54.971436 16.703094l-9.78125 -14.4687195l-4.546875 4.484375l0 9.9843445l-8.578125 0l0 -46.71872l8.578125 0l0 28.28125l13.5 -15.03125l9.09375 0l-12.484375 14.203125l13.375 19.265594l-9.15625 0zm26.562073 0.640625q-4.09375 0 -7.359375 -1.375q-3.265625 -1.375 -5.546875 -3.7968445q-2.265625 -2.4375 -3.484375 -5.578125q-1.203125 -3.140625 -1.203125 -6.59375q0 -3.515625 1.203125 -6.65625q1.21875 -3.140625 3.484375 -5.5625q2.28125 -2.4375 5.546875 -3.8125q3.265625 -1.375 7.359375 -1.375q4.09375 0 7.328125 1.375q3.234375 1.375 5.53125 3.8125q2.3125 2.421875 3.484375 5.5625q1.1875 3.140625 1.1875 6.65625q0 3.453125 -1.1875 6.59375q-1.171875 3.140625 -3.453125 5.578125q-2.265625 2.4218445 -5.53125 3.7968445q-3.265625 1.375 -7.359375 1.375zm-8.765625 -17.34372q0 2.9375 1.140625 5.21875q1.15625 2.265625 3.140625 3.546875q1.984375 1.28125 4.484375 1.28125q2.4375 0 4.421875 -1.3125q1.984375 -1.3125 3.15625 -3.578125q1.1875 -2.28125 1.1875 -5.21875q0 -2.875 -1.1875 -5.171875q-1.171875 -2.3125 -3.15625 -3.59375q-1.984375 -1.28125 -4.421875 -1.28125q-2.5 0 -4.484375 1.3125q-1.984375 1.3125 -3.140625 3.59375q-1.140625 2.265625 -1.140625 5.203125zm51.12767 17.34372q-3.8281097 0 -6.8437347 -1.71875q-3.0 -1.734375 -4.734375 -4.7499695l0 5.8280945l-7.484375 0l0 -46.71872l8.578125 0l0 19.078125q1.78125 -3.015625 4.6875 -4.734375q2.921875 -1.734375 6.8281097 -1.734375q3.265625 0 5.953125 1.375q2.6875 1.375 4.640625 3.8125q1.953125 2.421875 3.0 5.5625q1.0625 3.140625 1.0625 6.71875q0 3.578125 -1.1875 6.71875q-1.1875 3.140625 -3.296875 5.546875q-2.109375 2.3905945 -4.953125 3.7030945q-2.84375 1.3125 -6.25 1.3125zm-2.3593597 -7.2968445q2.046875 0 3.7343597 -0.796875q1.703125 -0.796875 2.953125 -2.140625q1.25 -1.34375 1.921875 -3.171875q0.671875 -1.828125 0.671875 -3.8125q0 -2.75 -1.125 -5.078125q-1.125 -2.34375 -3.078125 -3.75q-1.9375 -1.40625 -4.5624847 -1.40625q-1.859375 0 -3.5625 0.859375q-1.6875 0.859375 -3.0 2.34375q-1.3125 1.46875 -2.078125 3.328125l0 8.0q0.375 1.265625 1.234375 2.296875q0.875 1.03125 2.015625 1.765625q1.15625 0.734375 2.40625 1.15625q1.25 0.40625 2.46875 0.40625zm21.560287 -3.265625q0 -3.265625 1.828125 -5.71875q1.828125 -2.46875 5.09375 -3.8125q3.265625 -1.34375 7.484375 -1.34375q2.109375 0 4.28125 0.328125q2.1875 0.3125 3.78125 1.015625l0 -1.796875q0 -3.203125 -1.890625 -4.921875q-1.890625 -1.734375 -5.59375 -1.734375q-2.75 0 -5.25 0.96875q-2.5 0.953125 -5.25 2.8125l-2.75 -5.640625q3.328125 -2.171875 6.8125 -3.25q3.484375 -1.09375 7.328125 -1.09375q7.171875 0 11.171875 3.59375q4.0 3.578125 4.0 10.234375l0 10.6875q0 1.34375 0.46875 1.921875q0.484375 0.5625 1.578125 0.703125l0 6.9687195q-1.15625 0.1875 -2.078125 0.3125q-0.921875 0.140625 -1.5625 0.140625q-2.5625 0 -3.875 -1.15625q-1.3125 -1.15625 -1.640625 -2.8124695l-0.1875 -1.734375q-2.171875 2.8124695 -5.4375 4.3593445q-3.265625 1.53125 -6.65625 1.53125q-3.328125 0 -5.984375 -1.375q-2.65625 -1.375 -4.171875 -3.7655945q-1.5 -2.40625 -1.5 -5.421875zm20.875 1.734375q0.703125 -0.765625 1.140625 -1.53125q0.453125 -0.78125 0.453125 -1.421875l0 -3.390625q-1.53125 -0.640625 -3.328125 -0.984375q-1.796875 -0.359375 -3.390625 -0.359375q-3.328125 0 -5.46875 1.453125q-2.140625 1.4375 -2.140625 3.796875q0 1.28125 0.703125 2.4375q0.703125 1.140625 2.046875 1.859375q1.34375 0.703125 3.203125 0.703125q1.90625 0 3.765625 -0.734375q1.859375 -0.75 3.015625 -1.828125zm49.345306 8.1874695l-8.578125 0l0 -18.81247q0 -4.03125 -1.40625 -5.890625q-1.40625 -1.859375 -3.90625 -1.859375q-1.734375 0 -3.5 0.90625q-1.75 0.890625 -3.15625 2.46875q-1.40625 1.5625 -2.046875 3.609375l0 19.578094l-8.578125 0l0 -33.53122l7.734375 0l0 6.203125q1.28125 -2.171875 3.265625 -3.671875q1.984375 -1.515625 4.578125 -2.3125q2.59375 -0.796875 5.46875 -0.796875q3.140625 0 5.15625 1.125q2.015625 1.109375 3.0625 3.0q1.0625 1.890625 1.484375 4.265625q0.421875 2.359375 0.421875 4.796875l0 20.921844zm23.67215 0l0 -45.43747l30.53125 0l0 7.734375l-21.703125 0l0 11.71875l18.046875 0l0 7.171875l-18.046875 0l0 18.81247l-8.828125 0zm49.470703 0.640625q-4.03125 0 -7.296875 -1.375q-3.265625 -1.375 -5.578125 -3.7655945q-2.296875 -2.40625 -3.546875 -5.515625q-1.234375 -3.109375 -1.234375 -6.5625q0 -4.796875 2.140625 -8.765625q2.140625 -3.96875 6.140625 -6.359375q4.0 -2.40625 9.4375 -2.40625q5.515625 0 9.40625 2.40625q3.90625 2.390625 5.984375 6.328125q2.078125 3.9375 2.078125 8.484375q0 0.765625 -0.0625 1.5625q-0.0625 0.796875 -0.125 1.3125l-25.921875 0q0.265625 2.5625 1.5 4.484375q1.25 1.921875 3.203125 2.921875q1.953125 0.984375 4.203125 0.984375q2.5625 0 4.828125 -1.25q2.265625 -1.25 3.109375 -3.296875l7.359375 2.046875q-1.21875 2.5625 -3.5 4.546875q-2.265625 1.9843445 -5.34375 3.1093445q-3.0625 1.109375 -6.78125 1.109375zm-8.765625 -20.09372l17.53125 0q-0.25 -2.5625 -1.4375 -4.453125q-1.1875 -1.890625 -3.109375 -2.9375q-1.90625 -1.0625 -4.28125 -1.0625q-2.296875 0 -4.1875 1.0625q-1.890625 1.046875 -3.078125 2.9375q-1.1875 1.890625 -1.4375 4.453125zm51.32843 17.71872q-1.09375 0.453125 -2.625 1.03125q-1.53125 0.578125 -3.296875 0.921875q-1.765625 0.359375 -3.546875 0.359375q-2.375 0 -4.359375 -0.828125q-1.984375 -0.84375 -3.171875 -2.65625q-1.171875 -1.8280945 -1.171875 -4.7812195l0 -19.25l-4.421875 0l0 -6.59375l4.421875 0l0 -10.890625l8.578125 0l0 10.890625l7.03125 0l0 6.59375l-7.03125 0l0 16.375q0.0625 1.734375 0.953125 2.5q0.890625 0.765625 2.234375 0.765625q1.34375 0 2.625 -0.4375q1.28125 -0.453125 2.046875 -0.78125l1.734375 6.7812195zm19.643585 2.375q-4.09375 0 -7.359375 -1.375q-3.265625 -1.375 -5.578125 -3.8437195q-2.296875 -2.46875 -3.546875 -5.59375q-1.234375 -3.140625 -1.234375 -6.59375q0 -4.734375 2.140625 -8.671875q2.140625 -3.9375 6.109375 -6.296875q3.96875 -2.375 9.40625 -2.375q5.4375 0 9.34375 2.375q3.90625 2.359375 5.828125 6.203125l-8.390625 2.5625q-1.078125 -1.859375 -2.875 -2.84375q-1.796875 -1.0 -3.96875 -1.0q-2.4375 0 -4.453125 1.25q-2.015625 1.25 -3.171875 3.515625q-1.140625 2.265625 -1.140625 5.28125q0 2.9375 1.171875 5.21875q1.1875 2.265625 3.171875 3.578125q1.984375 1.3125 4.421875 1.3125q1.53125 0 2.90625 -0.515625q1.390625 -0.515625 2.46875 -1.40625q1.09375 -0.890625 1.609375 -2.046875l8.375 2.5625q-1.15625 2.5 -3.359375 4.484375q-2.203125 1.9843445 -5.1875 3.1093445q-2.96875 1.109375 -6.6875 1.109375zm51.658417 -0.640625l-8.578125 0l0 -18.81247q0 -3.90625 -1.515625 -5.828125q-1.5 -1.921875 -4.125 -1.921875q-1.53125 0 -3.265625 0.90625q-1.71875 0.890625 -3.09375 2.46875q-1.375 1.5625 -2.015625 3.609375l0 19.578094l-8.578125 0l0 -46.71872l8.578125 0l0 19.390625q1.859375 -3.203125 5.046875 -4.984375q3.203125 -1.796875 6.984375 -1.796875q3.265625 0 5.3125 1.125q2.046875 1.109375 3.1875 3.0q1.15625 1.890625 1.609375 4.234375q0.453125 2.328125 0.453125 4.828125l0 20.921844zm43.062805 0.3125q-4.984375 0 -9.046875 -1.9375q-4.0625 -1.9530945 -6.984375 -5.2187195q-2.90625 -3.265625 -4.515625 -7.390625q-1.59375 -4.140625 -1.59375 -8.484375q0 -4.546875 1.6875 -8.671875q1.703125 -4.125 4.671875 -7.359375q2.984375 -3.234375 7.046875 -5.125q4.0625 -1.890625 8.921875 -1.890625q4.9375 0 9.0 1.984375q4.0625 1.984375 6.9375 5.3125q2.890625 3.328125 4.484375 7.4375q1.59375 4.09375 1.59375 8.4375q0 4.484375 -1.65625 8.609375q-1.65625 4.125 -4.640625 7.359375q-2.96875 3.2343445 -7.046875 5.0937195q-4.0625 1.84375 -8.859375 1.84375zm0.0625 -7.7968445q3.203125 0 5.703125 -1.3125q2.5 -1.3125 4.15625 -3.515625q1.671875 -2.21875 2.53125 -4.9375q0.859375 -2.71875 0.859375 -5.46875q0 -2.9375 -0.9375 -5.6875q-0.921875 -2.765625 -2.625 -4.875q-1.6875 -2.109375 -4.15625 -3.390625q-2.453125 -1.28125 -5.53125 -1.28125q-3.265625 0 -5.734375 1.3125q-2.453125 1.3125 -4.125 3.53125q-1.65625 2.203125 -2.53125 4.890625q-0.859375 2.6875 -0.859375 5.5q0 2.9375 0.890625 5.703125q0.90625 2.75 2.59375 4.859375q1.703125 2.109375 4.171875 3.390625q2.46875 1.28125 5.59375 1.28125zm-0.890625 -9.34375l8.3125 0l14.984375 16.828094l-8.328125 0l-14.96875 -16.828094zm28.601196 4.28125l0 -20.984375l8.578125 0l0 19.125q0 3.84375 1.40625 5.796875q1.40625 1.953125 4.171875 1.953125q1.65625 0 3.28125 -0.671875q1.640625 -0.671875 3.015625 -2.015625q1.375 -1.34375 2.34375 -3.390625l0 -20.796875l8.5625 0l0 23.9375q0 1.34375 0.484375 1.921875q0.484375 0.5625 1.5625 0.703125l0 6.9687195q-1.265625 0.1875 -2.140625 0.28125q-0.859375 0.109375 -1.5625 0.109375q-2.3125 0 -3.75 -1.0625q-1.4375 -1.0625 -1.6875 -2.9062195l-0.203125 -2.6875q-2.234375 3.3905945 -5.75 5.1562195q-3.515625 1.75 -7.75 1.75q-5.1875 0 -7.875 -3.359375q-2.6875 -3.3593445 -2.6875 -9.8280945zm55.42688 13.1874695q-4.03125 0 -7.296875 -1.375q-3.265625 -1.375 -5.578125 -3.7655945q-2.296875 -2.40625 -3.546875 -5.515625q-1.234375 -3.109375 -1.234375 -6.5625q0 -4.796875 2.140625 -8.765625q2.140625 -3.96875 6.140625 -6.359375q4.0 -2.40625 9.4375 -2.40625q5.515625 0 9.40625 2.40625q3.90625 2.390625 5.984375 6.328125q2.078125 3.9375 2.078125 8.484375q0 0.765625 -0.0625 1.5625q-0.0625 0.796875 -0.125 1.3125l-25.921875 0q0.265625 2.5625 1.5 4.484375q1.25 1.921875 3.203125 2.921875q1.953125 0.984375 4.203125 0.984375q2.5625 0 4.828125 -1.25q2.265625 -1.25 3.109375 -3.296875l7.359375 2.046875q-1.21875 2.5625 -3.5 4.546875q-2.265625 1.9843445 -5.34375 3.1093445q-3.0625 1.109375 -6.78125 1.109375zm-8.765625 -20.09372l17.53125 0q-0.25 -2.5625 -1.4375 -4.453125q-1.1875 -1.890625 -3.109375 -2.9375q-1.90625 -1.0625 -4.28125 -1.0625q-2.296875 0 -4.1875 1.0625q-1.890625 1.046875 -3.078125 2.9375q-1.1875 1.890625 -1.4375 4.453125zm43.898438 20.09372q-4.28125 0 -8.1875 -1.40625q-3.90625 -1.40625 -6.71875 -4.1562195l3.078125 -5.578125q3.0 2.4375 5.90625 3.59375q2.921875 1.140625 5.609375 1.140625q2.5 0 4.0 -0.890625q1.5 -0.890625 1.5 -2.6875q0 -1.21875 -0.828125 -1.890625q-0.828125 -0.671875 -2.40625 -1.171875q-1.5625 -0.515625 -3.796875 -1.15625q-3.71875 -1.21875 -6.21875 -2.375q-2.484375 -1.15625 -3.734375 -2.90625q-1.25 -1.765625 -1.25 -4.515625q0 -3.328125 1.6875 -5.71875q1.703125 -2.40625 4.734375 -3.75q3.046875 -1.34375 7.140625 -1.34375q3.59375 0 6.78125 1.125q3.203125 1.109375 5.828125 3.609375l-3.453125 5.4375q-2.5625 -1.984375 -4.875 -2.90625q-2.296875 -0.9375 -4.65625 -0.9375q-1.34375 0 -2.53125 0.328125q-1.1875 0.3125 -1.921875 1.046875q-0.734375 0.734375 -0.734375 2.078125q0 1.21875 0.671875 1.890625q0.671875 0.671875 2.046875 1.1875q1.375 0.515625 3.359375 1.15625q4.03125 1.140625 6.8125 2.359375q2.78125 1.21875 4.1875 2.984375q1.421875 1.75 1.421875 4.828125q0 5.0 -3.65625 7.8124695q-3.640625 2.8125 -9.796875 2.8125zm39.17395 -2.375q-1.09375 0.453125 -2.625 1.03125q-1.53125 0.578125 -3.296875 0.921875q-1.765625 0.359375 -3.546875 0.359375q-2.375 0 -4.359375 -0.828125q-1.984375 -0.84375 -3.171875 -2.65625q-1.171875 -1.8280945 -1.171875 -4.7812195l0 -19.25l-4.421875 0l0 -6.59375l4.421875 0l0 -10.890625l8.578125 0l0 10.890625l7.03125 0l0 6.59375l-7.03125 0l0 16.375q0.0625 1.734375 0.953125 2.5q0.890625 0.765625 2.234375 0.765625q1.34375 0 2.625 -0.4375q1.28125 -0.453125 2.046875 -0.78125l1.734375 6.7812195z" fill-rule="nonzero"/></g></svg>