<svg version="1.1" viewBox="0.0 0.0 816.0 1056.0" fill="none" stroke="none" stroke-linecap="square" stroke-miterlimit="10" xmlns:xlink="http://www.w3.org/1999/xlink" xmlns="http://www.w3.org/2000/svg"><clipPath id="gef2424c68b_0_111.0"><path d="m0 0l816.0 0l0 1056.0l-816.0 0l0 -1056.0z" clip-rule="nonzero"/></clipPath><g clip-path="url(#gef2424c68b_0_111.0)"><path fill="#ffffff" d="m0 0l816.0 0l0 1056.0l-816.0 0z" fill-rule="evenodd"/><path fill="#004c52" d="m-0.21017507 0l0 201.88828l464.86472 -201.88828z" fill-rule="evenodd"/><path fill="#abe33f" fill-opacity="0.8115" d="m-0.53766406 70.63086l0.32746905 58.704178l300.62067 93.5594l95.72693 -222.8941z" fill-rule="evenodd"/><path fill="#004c52" d="m568.94 1056.6414l227.46478 0l-51.745605 -82.3031z" fill-rule="evenodd"/><path fill="#00ae9d" fill-opacity="0.8346" d="m817.6329 978.76416l0 81.26245l-162.5144 0z" fill-rule="evenodd"/><path fill="#abe33f" fill-opacity="0.8115" d="m817.3538 979.8128l0 -116.68396l-73.03784 196.90155z" fill-rule="evenodd"/><path fill="#00ae9d" fill-opacity="0.8346" d="m139.1256 2.808399E-5l295.39618 192.75748l71.98004 -193.99449l-9.686859 1.2370069z" fill-rule="evenodd"/><path fill="#000000" fill-opacity="0.0" d="m11.758531 17.572178l773.8268 0l0 90.01575l-773.8268 0z" fill-rule="evenodd"/><path fill="#ffffff" d="m57.867905 49.327175l-13.921875 0l0 36.125004l-8.40625 0l0 -36.125004l-13.921875 0l0 -7.421875l36.25 0l0 7.421875zm34.462143 36.125004l-8.21875 0l0 -18.03125q0 -3.7343788 -1.453125 -5.578129q-1.4375 -1.84375 -3.9375 -1.84375q-1.484375 0 -3.140625 0.859375q-1.65625 0.859375 -2.96875 2.359375q-1.3125 1.5000038 -1.9375 3.4687538l0 18.765625l-8.21875 0l0 -44.76563l8.21875 0l0 18.578125q1.78125 -3.0625 4.84375 -4.78125q3.078125 -1.71875 6.6875 -1.71875q3.125 0 5.09375 1.078125q1.96875 1.0625 3.0625 2.875q1.109375 1.8125 1.53125 4.046875q0.4375 2.234375 0.4375 4.640629l0 20.046875zm22.073471 0.609375q-3.859375 0 -6.984375 -1.3125q-3.125 -1.328125 -5.34375 -3.625q-2.203125 -2.296875 -3.40625 -5.265625q-1.1875 -2.984375 -1.1875 -6.296875q0 -4.59375 2.046875 -8.390629q2.0625 -3.8125 5.890625 -6.109375q3.84375 -2.296875 9.046875 -2.296875q5.28125 0 9.015625 2.296875q3.75 2.296875 5.734375 6.078125q2.0 3.7656288 2.0 8.125004q0 0.734375 -0.0625 1.5q-0.0625 0.765625 -0.125 1.25l-24.84375 0q0.25 2.453125 1.4375 4.296875q1.203125 1.84375 3.0625 2.796875q1.875 0.953125 4.03125 0.953125q2.453125 0 4.625 -1.1875q2.1875 -1.203125 2.984375 -3.171875l7.046875 1.96875q-1.171875 2.453125 -3.34375 4.359375q-2.171875 1.890625 -5.125 2.96875q-2.9375 1.0625 -6.5 1.0625zm-8.40625 -19.25l16.8125 0q-0.25 -2.453125 -1.390625 -4.265629q-1.125 -1.8125 -2.96875 -2.8125q-1.828125 -1.015625 -4.109375 -1.015625q-2.203125 0 -4.015625 1.015625q-1.8125 1.0 -2.953125 2.8125q-1.125 1.8125038 -1.375 4.265629zm80.157455 18.640625l-8.21875 0l0 -18.03125q0 -3.7968788 -1.3125 -5.609379q-1.3125 -1.8125 -3.640625 -1.8125q-2.40625 0 -4.578125 1.875q-2.171875 1.875 -3.09375 4.875004l0 18.703125l-8.21875 0l0 -18.03125q0 -3.8593788 -1.328125 -5.640629q-1.3125 -1.78125 -3.640625 -1.78125q-2.390625 0 -4.578125 1.84375q-2.171875 1.84375 -3.09375 4.843754l0 18.765625l-8.21875 0l0 -32.14063l7.421875 0l0 5.953125q1.84375 -3.125 4.90625 -4.8125q3.078125 -1.6875 7.0625 -1.6875q3.984375 0 6.21875 1.96875q2.234375 1.953125 2.859375 4.84375q1.953125 -3.3125 4.984375 -5.0625q3.046875 -1.75 6.84375 -1.75q3.0 0 4.875 1.078125q1.875 1.0625 2.90625 2.875q1.046875 1.8125 1.4375 4.078125q0.40625 2.265625 0.40625 4.609379l0 20.046875zm22.080902 0.609375q-3.859375 0 -6.984375 -1.3125q-3.125 -1.328125 -5.34375 -3.625q-2.203125 -2.296875 -3.40625 -5.265625q-1.1875 -2.984375 -1.1875 -6.296875q0 -4.59375 2.046875 -8.390629q2.0625 -3.8125 5.890625 -6.109375q3.84375 -2.296875 9.046875 -2.296875q5.28125 0 9.015625 2.296875q3.75 2.296875 5.734375 6.078125q2.0 3.7656288 2.0 8.125004q0 0.734375 -0.0625 1.5q-0.0625 0.765625 -0.125 1.25l-24.84375 0q0.25 2.453125 1.4375 4.296875q1.203125 1.84375 3.0625 2.796875q1.875 0.953125 4.03125 0.953125q2.453125 0 4.625 -1.1875q2.1875 -1.203125 2.984375 -3.171875l7.046875 1.96875q-1.171875 2.453125 -3.34375 4.359375q-2.171875 1.890625 -5.125 2.96875q-2.9375 1.0625 -6.5 1.0625zm-8.40625 -19.25l16.8125 0q-0.25 -2.453125 -1.390625 -4.265629q-1.125 -1.8125 -2.96875 -2.8125q-1.828125 -1.015625 -4.109375 -1.015625q-2.203125 0 -4.015625 1.015625q-1.8125 1.0 -2.953125 2.8125q-1.125 1.8125038 -1.375 4.265629zm30.73558 -4.296879l0 -8.828125l6.6875 0l0 8.828125l-6.6875 0zm0 22.937504l0 -8.828125l6.6875 0l0 8.828125l-6.6875 0zm44.882492 0l0 -43.54688l8.46875 0l0 36.125004l22.203125 0l0 7.421875l-30.671875 0zm49.617188 0.609375q-3.921875 0 -7.046875 -1.3125q-3.125 -1.328125 -5.3125 -3.65625q-2.171875 -2.328125 -3.34375 -5.328125q-1.15625 -3.0 -1.15625 -6.3125q0 -3.375 1.15625 -6.375004q1.171875 -3.015625 3.34375 -5.34375q2.1875 -2.328125 5.3125 -3.640625q3.125 -1.328125 7.046875 -1.328125q3.921875 0 7.015625 1.328125q3.109375 1.3125 5.3125 3.640625q2.21875 2.328125 3.34375 5.34375q1.140625 3.0000038 1.140625 6.375004q0 3.3125 -1.140625 6.3125q-1.125 3.0 -3.3125 5.328125q-2.171875 2.328125 -5.3125 3.65625q-3.125 1.3125 -7.046875 1.3125zm-8.390625 -16.609375q0 2.8125 1.09375 5.0q1.109375 2.171875 3.0 3.40625q1.90625 1.21875 4.296875 1.21875q2.328125 0 4.234375 -1.25q1.90625 -1.265625 3.03125 -3.4375q1.140625 -2.1875 1.140625 -5.0q0 -2.765625 -1.140625 -4.96875q-1.125 -2.2187538 -3.03125 -3.4375038q-1.90625 -1.234375 -4.234375 -1.234375q-2.390625 0 -4.296875 1.265625q-1.890625 1.25 -3.0 3.4375038q-1.09375 2.171875 -1.09375 5.0zm42.55548 16.609375q-4.109375 0 -7.859375 -1.34375q-3.734375 -1.34375 -6.4375 -3.984375l2.953125 -5.34375q2.875 2.328125 5.65625 3.4375q2.796875 1.109375 5.375 1.109375q2.390625 0 3.828125 -0.859375q1.453125 -0.859375 1.453125 -2.578125q0 -1.171875 -0.796875 -1.8125q-0.796875 -0.640625 -2.296875 -1.125q-1.5 -0.5 -3.65625 -1.109375q-3.5625 -1.171875 -5.953125 -2.265625q-2.390625 -1.109375 -3.59375 -2.796875q-1.1875 -1.6875 -1.1875 -4.328129q0 -3.1875 1.625 -5.484375q1.625 -2.296875 4.53125 -3.578125q2.921875 -1.296875 6.84375 -1.296875q3.4375 0 6.5 1.078125q3.078125 1.0625 5.59375 3.453125l-3.3125 5.21875q-2.453125 -1.90625 -4.671875 -2.78125q-2.203125 -0.890625 -4.46875 -0.890625q-1.296875 0 -2.4375 0.3125q-1.125 0.296875 -1.828125 1.0q-0.703125 0.703125 -0.703125 2.0q0 1.15625 0.640625 1.8125q0.640625 0.6406288 1.953125 1.1250038q1.328125 0.484375 3.234375 1.109375q3.859375 1.09375 6.53125 2.265625q2.671875 1.15625 4.015625 2.84375q1.34375 1.6875 1.34375 4.640625q0 4.78125 -3.5 7.484375q-3.484375 2.6875 -9.375 2.6875zm37.533997 -2.265625q-1.046875 0.421875 -2.515625 0.984375q-1.46875 0.546875 -3.15625 0.875q-1.6875 0.34375 -3.40625 0.34375q-2.265625 0 -4.171875 -0.796875q-1.90625 -0.796875 -3.046875 -2.53125q-1.125 -1.75 -1.125 -4.578125l0 -18.453129l-4.234375 0l0 -6.328125l4.234375 0l0 -10.421875l8.21875 0l0 10.421875l6.75 0l0 6.328125l-6.75 0l0 15.687504q0.0625 1.65625 0.921875 2.40625q0.859375 0.734375 2.140625 0.734375q1.296875 0 2.515625 -0.421875q1.234375 -0.4375 1.96875 -0.75l1.65625 6.5zm62.86255 1.65625l-20.484375 -21.703129q-2.578125 -2.765625 -4.140625 -4.75q-1.5625 -2.0 -2.25 -3.65625q-0.671875 -1.65625 -0.671875 -3.5625q0 -3.125 1.5625 -5.484375q1.578125 -2.359375 4.296875 -3.640625q2.734375 -1.296875 6.109375 -1.296875q3.0625 0 5.671875 1.078125q2.609375 1.0625 4.265625 3.21875q1.65625 2.140625 1.65625 5.328125q0 2.890625 -1.453125 5.21875q-1.4375 2.328125 -3.828125 4.296875q-2.390625 1.953125 -5.390625 3.7968788q-2.21875 1.40625 -4.03125 2.765625q-1.796875 1.34375 -2.8125 2.84375q-1.015625 1.5 -1.015625 3.28125q0 1.71875 0.984375 3.1875q0.984375 1.46875 2.734375 2.359375q1.75 0.890625 3.890625 0.890625q2.640625 0 5.125 -1.28125q2.484375 -1.296875 4.4375 -3.65625q1.96875 -2.359375 3.09375 -5.671875q1.140625 -3.3125 1.140625 -7.421879l6.6875 0q0 5.828129 -1.78125 10.343754q-1.78125 4.5 -4.78125 7.65625q-3.0 3.15625 -6.8125 4.8125q-3.796875 1.65625 -7.90625 1.65625q-4.484375 0 -7.796875 -1.796875q-3.296875 -1.8125 -5.109375 -4.75q-1.8125 -2.953125 -1.8125 -6.390625q0 -3.4375 1.59375 -6.0q1.59375 -2.578125 4.046875 -4.578129q2.453125 -2.0 4.90625 -3.53125q2.703125 -1.71875 4.53125 -2.90625q1.84375 -1.203125 2.828125 -2.390625q0.984375 -1.203125 0.984375 -2.609375q0 -1.65625 -1.140625 -2.671875q-1.125 -1.015625 -2.90625 -1.015625q-1.34375 0 -2.359375 0.5625q-1.015625 0.546875 -1.578125 1.46875q-0.546875 0.921875 -0.546875 2.078125q0 0.859375 0.515625 1.71875q0.53125 0.859375 1.84375 2.25q1.328125 1.375 3.65625 3.890625l24.84375 26.062504l-10.796875 0z" fill-rule="nonzero"/><path fill="#d9d9d9" d="m504.38544 85.45218l0 -43.54688l29.265625 0l0 7.421875l-20.796875 0l0 11.21875l17.296875 0l0 6.875004l-17.296875 0l0 18.03125l-8.46875 0zm47.3479 0.609375q-3.921875 0 -7.046875 -1.3125q-3.125 -1.328125 -5.3125 -3.65625q-2.171875 -2.328125 -3.34375 -5.328125q-1.15625 -3.0 -1.15625 -6.3125q0 -3.375 1.15625 -6.375004q1.171875 -3.015625 3.34375 -5.34375q2.1875 -2.328125 5.3125 -3.640625q3.125 -1.328125 7.046875 -1.328125q3.921875 0 7.015625 1.328125q3.109375 1.3125 5.3125 3.640625q2.21875 2.328125 3.34375 5.34375q1.140625 3.0000038 1.140625 6.375004q0 3.3125 -1.140625 6.3125q-1.125 3.0 -3.3125 5.328125q-2.171875 2.328125 -5.3125 3.65625q-3.125 1.3125 -7.046875 1.3125zm-8.390625 -16.609375q0 2.8125 1.09375 5.0q1.109375 2.171875 3.0 3.40625q1.90625 1.21875 4.296875 1.21875q2.328125 0 4.234375 -1.25q1.90625 -1.265625 3.03125 -3.4375q1.140625 -2.1875 1.140625 -5.0q0 -2.765625 -1.140625 -4.96875q-1.125 -2.2187538 -3.03125 -3.4375038q-1.90625 -1.234375 -4.234375 -1.234375q-2.390625 0 -4.296875 1.265625q-1.890625 1.25 -3.0 3.4375038q-1.09375 2.171875 -1.09375 5.0zm30.414856 3.984375l0 -20.125004l8.21875 0l0 18.343754q0 3.671875 1.34375 5.546875q1.34375 1.875 3.984375 1.875q1.59375 0 3.15625 -0.640625q1.5625 -0.65625 2.875 -1.9375q1.328125 -1.28125 2.25 -3.25l0 -19.937504l8.21875 0l0 22.937504q0 1.296875 0.453125 1.84375q0.46875 0.546875 1.515625 0.671875l0 6.6875q-1.234375 0.1875 -2.0625 0.28125q-0.828125 0.09375 -1.5 0.09375q-2.203125 0 -3.59375 -1.015625q-1.375 -1.015625 -1.625 -2.796875l-0.171875 -2.578125q-2.15625 3.25 -5.53125 4.9375q-3.375 1.6875 -7.421875 1.6875q-4.953125 0 -7.53125 -3.21875q-2.578125 -3.21875 -2.578125 -9.40625zm68.072754 12.015625l-8.21875 0l0 -18.03125q0 -3.8593788 -1.359375 -5.640629q-1.34375 -1.78125 -3.734375 -1.78125q-1.65625 0 -3.34375 0.859375q-1.6875 0.859375 -3.03125 2.359375q-1.34375 1.5000038 -1.96875 3.4687538l0 18.765625l-8.21875 0l0 -32.14063l7.421875 0l0 5.953125q1.234375 -2.078125 3.125 -3.515625q1.90625 -1.453125 4.390625 -2.21875q2.484375 -0.765625 5.25 -0.765625q3.0 0 4.921875 1.078125q1.9375 1.0625 2.953125 2.875q1.015625 1.8125 1.40625 4.078125q0.40625 2.265625 0.40625 4.609379l0 20.046875zm5.2140503 -16.0625q0 -4.671875 1.828125 -8.437504q1.84375 -3.765625 5.09375 -5.96875q3.25 -2.21875 7.421875 -2.21875q3.5625 0 6.40625 1.75q2.859375 1.75 4.453125 4.4375l0 -18.265625l8.21875 0l0 35.562504q0 1.296875 0.421875 1.84375q0.4375 0.546875 1.484375 0.671875l0 6.6875q-2.15625 0.421875 -3.5 0.421875q-2.203125 0 -3.65625 -1.09375q-1.4375 -1.109375 -1.625 -2.890625l-0.109375 -2.015625q-1.78125 3.0 -4.828125 4.59375q-3.03125 1.59375 -6.34375 1.59375q-3.3125 0 -6.109375 -1.28125q-2.78125 -1.296875 -4.84375 -3.5625q-2.046875 -2.265625 -3.1875 -5.296875q-1.125 -3.046875 -1.125 -6.53125zm25.203125 4.28125l0 -7.65625q-0.609375 -1.78125 -1.96875 -3.1875038q-1.34375 -1.421875 -3.0 -2.25q-1.65625 -0.828125 -3.3125 -0.828125q-1.90625 0 -3.4375 0.796875q-1.53125 0.796875 -2.671875 2.15625q-1.125 1.3437538 -1.71875 3.1250038q-0.578125 1.78125 -0.578125 3.734375q0 1.96875 0.640625 3.71875q0.65625 1.75 1.875 3.046875q1.234375 1.28125 2.859375 2.015625q1.625 0.734375 3.53125 0.734375q1.15625 0 2.34375 -0.390625q1.203125 -0.40625 2.28125 -1.109375q1.078125 -0.71875 1.90625 -1.71875q0.828125 -1.015625 1.25 -2.1875z" fill-rule="nonzero"/><path fill="#000000" fill-opacity="0.0" d="m21.086615 307.74103l773.8268 0l0 349.32288l-773.8268 0z" fill-rule="evenodd"/><path fill="#da97f8" d="m30.086615 324.74103l88.12819 0l0 38.400024l-88.12819 0l0 -38.400024z" fill-rule="nonzero"/><path fill="#000000" fill-opacity="0.0" d="m30.086615 326.11697l88.12819 0l0 37.40808l-88.12819 0l0 -37.40808z" fill-rule="nonzero"/><path fill="#004c52" d="m38.914738 352.80478l5.953125 -17.4375l2.65625 0l-7.171875 20.09375l-2.578125 0l-7.109373 -20.09375l2.656248 0l5.921875 17.4375l-0.328125 0zm16.694778 3.046875q-1.984375 0 -3.546875 -1.015625q-1.5625 -1.015625 -2.46875 -2.828125q-0.90625 -1.8125 -0.90625 -4.15625q0 -2.515625 0.890625 -4.328125q0.90625 -1.8125 2.46875 -2.78125q1.5625 -0.96875 3.5625 -0.96875q1.734375 0 2.96875 0.71875q1.234375 0.703125 1.984375 1.90625q0.75 1.1875 1.046875 2.703125q0.296875 1.515625 0.171875 3.125l-11.078125 0l0 -1.53125l9.4375 0l-0.734375 0.484375q0.046875 -0.953125 -0.109375 -1.890625q-0.15625 -0.953125 -0.578125 -1.734375q-0.40625 -0.796875 -1.15625 -1.265625q-0.75 -0.484375 -1.921875 -0.484375q-1.46875 0 -2.46875 0.75q-0.984375 0.75 -1.484375 1.96875q-0.5 1.21875 -0.5 2.65625l0 1.015625q0 1.609375 0.484375 2.875q0.5 1.25 1.46875 2.0q0.984375 0.734375 2.46875 0.734375q1.484375 0 2.4375 -0.71875q0.96875 -0.734375 1.171875 -2.140625l2.59375 0q-0.234375 1.53125 -1.09375 2.625q-0.84375 1.09375 -2.15625 1.6875q-1.3125 0.59375 -2.953125 0.59375zm11.119541 -0.390625l0 -15.328125l2.5 0l0 15.328125l-2.5 0zm1.71875 -6.90625q0 -2.921875 0.5625 -4.84375q0.5625 -1.9375 1.640625 -2.875q1.078125 -0.953125 2.640625 -0.953125q0.5 0 0.921875 0.078125q0.4375 0.0625 0.859375 0.203125l-0.15625 2.46875q-0.453125 -0.140625 -0.984375 -0.25q-0.515625 -0.109375 -0.9375 -0.109375q-1.359375 0 -2.1875 0.78125q-0.828125 0.78125 -1.203125 2.1875q-0.375 1.40625 -0.375 3.3125l-0.78125 0zm16.849274 7.296875q-1.53125 0 -2.78125 -0.796875q-1.234375 -0.8125 -1.96875 -2.34375q-0.71875 -1.546875 -0.71875 -3.78125l0.96875 0q0 1.484375 0.609375 2.546875q0.609375 1.046875 1.578125 1.59375q0.984375 0.53125 2.0625 0.53125q1.234375 0 2.25 -0.703125q1.03125 -0.703125 1.640625 -2.015625q0.625 -1.3125 0.625 -3.140625q0 -1.78125 -0.609375 -3.0625q-0.609375 -1.296875 -1.640625 -1.984375q-1.03125 -0.703125 -2.296875 -0.703125q-1.09375 0 -2.0625 0.53125q-0.96875 0.53125 -1.5625 1.578125q-0.59375 1.046875 -0.59375 2.5625l-0.96875 0q0 -2.171875 0.703125 -3.703125q0.71875 -1.546875 1.984375 -2.359375q1.265625 -0.828125 2.953125 -0.828125q1.796875 0 3.3125 0.96875q1.515625 0.96875 2.421875 2.765625q0.921875 1.796875 0.921875 4.234375q0 2.46875 -0.9375 4.296875q-0.921875 1.8125 -2.484375 2.8125q-1.546875 1.0 -3.40625 1.0zm-7.0 -0.390625l0 -21.828125l2.5 0l0 18.25l-0.75 3.578125l-1.75 0zm24.460037 0.390625q-2.21875 0 -3.71875 -0.625q-1.484375 -0.640625 -2.25 -1.75q-0.765625 -1.125 -0.8125 -2.5625l2.40625 0q0.078125 1.453125 1.171875 2.1875q1.09375 0.734375 2.984375 0.734375q0.984375 0 1.8125 -0.3125q0.84375 -0.328125 1.328125 -0.890625q0.5 -0.5625 0.5 -1.265625q0 -0.890625 -0.65625 -1.40625q-0.65625 -0.515625 -2.09375 -0.90625l-2.96875 -0.953125q-1.9375 -0.609375 -2.96875 -1.671875q-1.03125 -1.0625 -1.03125 -2.546875q0 -1.859375 1.625 -2.984375q1.640625 -1.125 4.296875 -1.125q2.8125 0 4.359375 1.15625q1.546875 1.15625 1.625 2.890625l-2.46875 0q-0.140625 -1.015625 -1.03125 -1.53125q-0.875 -0.53125 -2.484375 -0.53125q-1.5625 0 -2.4375 0.703125q-0.859375 0.703125 -0.859375 1.546875q0 1.578125 2.71875 2.328125l3.03125 1.03125q1.96875 0.59375 3.015625 1.5625q1.046875 0.953125 1.046875 2.4375q0 1.15625 -0.75 2.1875q-0.75 1.015625 -2.125 1.65625q-1.375 0.640625 -3.265625 0.640625zm9.862915 -2.9375q0 -0.75 0.53125 -1.296875q0.53125 -0.546875 1.328125 -0.546875q0.796875 0 1.359375 0.546875q0.5625 0.546875 0.5625 1.296875q0 0.75 -0.5625 1.265625q-0.5625 0.5 -1.359375 0.5q-0.796875 0 -1.328125 -0.515625q-0.53125 -0.515625 -0.53125 -1.25zm0 -9.78125q0 -0.75 0.53125 -1.296875q0.53125 -0.546875 1.328125 -0.546875q0.796875 0 1.359375 0.546875q0.5625 0.546875 0.5625 1.296875q0 0.75 -0.5625 1.265625q-0.5625 0.5 -1.359375 0.5q-0.796875 0 -1.328125 -0.515625q-0.53125 -0.515625 -0.53125 -1.25z" fill-rule="nonzero"/><path fill="#000000" fill-opacity="0.0" d="m118.214806 326.11697l0 0l0 37.40808l0 0l0 -37.40808z" fill-rule="nonzero"/><path fill="#abe33f" d="m24.461615 407.71103l19.374998 0l-7.375 -7.375l6.125 0l9.875 9.625l-9.875 9.625l-6.125 0l7.375 -7.375l-19.374998 0l0 -4.5z" fill-rule="nonzero"/><path fill="#004c52" d="m87.74287 421.85165q-2.015625 0 -3.703125 -0.734375q-1.671875 -0.734375 -2.703125 -2.15625q-1.015625 -1.421875 -1.046875 -3.515625l2.4375 0q0 1.40625 0.6875 2.3125q0.6875 0.90625 1.8125 1.34375q1.140625 0.4375 2.484375 0.4375q1.46875 0 2.53125 -0.453125q1.078125 -0.46875 1.65625 -1.234375q0.59375 -0.765625 0.59375 -1.671875q0 -1.28125 -0.796875 -2.0625q-0.78125 -0.796875 -2.3125 -1.296875l-3.546875 -1.25q-2.5 -0.890625 -3.78125 -2.046875q-1.28125 -1.15625 -1.28125 -3.234375q0 -2.328125 1.796875 -3.796875q1.796875 -1.484375 5.109375 -1.484375q3.078125 0 4.796875 1.421875q1.734375 1.421875 2.0 3.796875l-2.46875 0q-0.234375 -1.390625 -1.3125 -2.15625q-1.0625 -0.78125 -3.015625 -0.78125q-1.984375 0 -3.09375 0.875q-1.09375 0.875 -1.09375 2.21875q0 1.109375 0.6875 1.765625q0.703125 0.640625 2.1875 1.15625l4.171875 1.4375q2.15625 0.71875 3.40625 2.015625q1.265625 1.296875 1.265625 3.359375q0 1.59375 -0.859375 2.890625q-0.859375 1.296875 -2.53125 2.078125q-1.65625 0.765625 -4.078125 0.765625zm18.234665 0q-1.984375 0 -3.546875 -1.015625q-1.5625 -1.015625 -2.46875 -2.828125q-0.90625 -1.8125 -0.90625 -4.15625q0 -2.515625 0.890625 -4.328125q0.90625 -1.8125 2.46875 -2.78125q1.5625 -0.96875 3.5625 -0.96875q1.734375 0 2.96875 0.71875q1.234375 0.703125 1.984375 1.90625q0.75 1.1875 1.046875 2.703125q0.296875 1.515625 0.171875 3.125l-11.078125 0l0 -1.53125l9.4375 0l-0.734375 0.484375q0.046875 -0.953125 -0.109375 -1.890625q-0.15625 -0.953125 -0.578125 -1.734375q-0.40625 -0.796875 -1.15625 -1.265625q-0.75 -0.484375 -1.921875 -0.484375q-1.46875 0 -2.46875 0.75q-0.984375 0.75 -1.484375 1.96875q-0.5 1.21875 -0.5 2.65625l0 1.015625q0 1.609375 0.484375 2.875q0.5 1.25 1.46875 2.0q0.984375 0.734375 2.46875 0.734375q1.484375 0 2.4375 -0.71875q0.96875 -0.734375 1.171875 -2.140625l2.59375 0q-0.234375 1.53125 -1.09375 2.625q-0.84375 1.09375 -2.15625 1.6875q-1.3125 0.59375 -2.953125 0.59375zm20.588287 -0.390625l-0.3125 -3.359375l0 -6.5625q0 -2.0625 -0.890625 -2.96875q-0.875 -0.90625 -2.640625 -0.90625q-0.984375 0 -1.796875 0.296875q-0.8125 0.28125 -1.28125 0.890625q-0.46875 0.59375 -0.46875 1.53125l-2.78125 0q0 -1.65625 0.8125 -2.671875q0.8125 -1.015625 2.25 -1.46875q1.4375 -0.46875 3.265625 -0.46875q1.765625 0 3.125 0.59375q1.359375 0.59375 2.125 1.890625q0.7656174 1.28125 0.7656174 3.34375l0 9.859375l-2.1718674 0zm-5.21875 0.390625q-1.890625 0 -3.125 -0.671875q-1.21875 -0.671875 -1.828125 -1.75q-0.609375 -1.078125 -0.609375 -2.25q0 -1.5625 0.765625 -2.53125q0.78125 -0.984375 2.125 -1.4375q1.34375 -0.453125 3.03125 -0.453125q1.203125 0 2.40625 0.25q1.203125 0.234375 2.359375 0.640625l0 1.578125q-0.96875 -0.390625 -2.171875 -0.609375q-1.203125 -0.234375 -2.21875 -0.234375q-1.53125 0 -2.59375 0.640625q-1.046875 0.625 -1.046875 2.15625q0 1.109375 0.796875 1.921875q0.8125 0.796875 2.59375 0.796875q1.25 0 2.25 -0.578125q1.0 -0.59375 1.578125 -1.46875q0.59375 -0.890625 0.59375 -1.765625l0.59375 0q0 1.53125 -0.671875 2.84375q-0.65625 1.3125 -1.890625 2.125q-1.21875 0.796875 -2.9375 0.796875zm13.366035 -0.390625l0 -15.328125l2.5 0l0 15.328125l-2.5 0zm1.71875 -6.90625q0 -2.921875 0.5625 -4.84375q0.5625 -1.9375 1.640625 -2.875q1.078125 -0.953125 2.640625 -0.953125q0.5 0 0.921875 0.078125q0.4375 0.0625 0.859375 0.203125l-0.15625 2.46875q-0.453125 -0.140625 -0.984375 -0.25q-0.515625 -0.109375 -0.9375 -0.109375q-1.359375 0 -2.1875 0.78125q-0.828125 0.78125 -1.203125 2.1875q-0.375 1.40625 -0.375 3.3125l-0.78125 0zm15.224274 7.296875q-1.84375 0 -3.4375 -0.984375q-1.59375 -1.0 -2.578125 -2.8125q-0.96875 -1.8125 -0.96875 -4.28125q0 -2.515625 0.96875 -4.3125q0.984375 -1.796875 2.578125 -2.734375q1.59375 -0.953125 3.4375 -0.953125q1.296875 0 2.328125 0.40625q1.03125 0.390625 1.796875 1.078125q0.765625 0.6875 1.265625 1.5625q0.515625 0.859375 0.75 1.828125l-2.5625 0.21875q-0.390625 -1.328125 -1.328125 -2.09375q-0.9375 -0.78125 -2.28125 -0.78125q-1.140625 0 -2.140625 0.65625q-1.0 0.640625 -1.625 1.9375q-0.625 1.28125 -0.625 3.1875q0 1.78125 0.5625 3.09375q0.578125 1.296875 1.5625 2.015625q1.0 0.71875 2.265625 0.71875q1.78125 0 2.6875 -0.859375q0.921875 -0.875 0.921875 -2.4375l2.5625 0q0 1.609375 -0.75 2.859375q-0.75 1.234375 -2.140625 1.96875q-1.375 0.71875 -3.25 0.71875zm22.01204 -0.390625l0 -8.984375q0 -2.203125 -1.046875 -3.34375q-1.046875 -1.140625 -2.859375 -1.140625q-1.375 0 -2.390625 0.75q-1.0 0.75 -1.546875 2.15625q-0.53125 1.390625 -0.53125 3.328125l-0.96875 0q0 -2.671875 0.703125 -4.5625q0.703125 -1.890625 2.046875 -2.890625q1.359375 -1.0 3.296875 -1.0q1.8125 0 3.09375 0.8125q1.296875 0.8125 1.984375 2.3125q0.6875 1.5 0.6875 3.578125l0 8.984375l-2.46875 0zm-10.875 0l0 -21.828125l2.5 0l0 21.828125l-2.5 0z" fill-rule="nonzero"/><path fill="#abe33f" d="m24.461615 465.71103l19.374998 0l-7.375 -7.375l6.125 0l9.875 9.625l-9.875 9.625l-6.125 0l7.375 -7.375l-19.374998 0l0 -4.5z" fill-rule="nonzero"/><path fill="#004c52" d="m81.32099 479.46103l0 -20.09375l7.0 0q3.453125 0 5.21875 1.640625q1.765625 1.640625 1.765625 4.3125q0 2.640625 -1.765625 4.28125q-1.765625 1.640625 -5.21875 1.640625l-4.5 0l0 8.21875l-2.5 0zm11.265625 0l-5.765625 -9.125l2.71875 0l6.28125 9.125l-3.234375 0zm-8.765625 -9.984375l4.3125 0q2.25 0 3.421875 -1.109375q1.1875 -1.109375 1.1875 -2.890625q0 -1.828125 -1.125 -2.890625q-1.125 -1.078125 -3.296875 -1.078125l-4.5 0l0 7.96875zm22.412537 10.375q-1.984375 0 -3.546875 -1.015625q-1.5625 -1.015625 -2.46875 -2.828125q-0.90625 -1.8125 -0.90625 -4.15625q0 -2.515625 0.890625 -4.328125q0.90625 -1.8125 2.46875 -2.78125q1.5625 -0.96875 3.5625 -0.96875q1.734375 0 2.96875 0.71875q1.234375 0.703125 1.984375 1.90625q0.75 1.1875 1.046875 2.703125q0.296875 1.515625 0.171875 3.125l-11.078125 0l0 -1.53125l9.4375 0l-0.734375 0.484375q0.046875 -0.953125 -0.109375 -1.890625q-0.15625 -0.953125 -0.578125 -1.734375q-0.40625 -0.796875 -1.15625 -1.265625q-0.75 -0.484375 -1.921875 -0.484375q-1.46875 0 -2.46875 0.75q-0.984375 0.75 -1.484375 1.96875q-0.5 1.21875 -0.5 2.65625l0 1.015625q0 1.609375 0.484375 2.875q0.5 1.25 1.46875 2.0q0.984375 0.734375 2.46875 0.734375q1.484375 0 2.4375 -0.71875q0.96875 -0.734375 1.171875 -2.140625l2.59375 0q-0.234375 1.53125 -1.09375 2.625q-0.84375 1.09375 -2.15625 1.6875q-1.3125 0.59375 -2.953125 0.59375zm15.822662 0q-1.25 0 -2.25 -0.484375q-0.984375 -0.484375 -1.5625 -1.4375q-0.578125 -0.96875 -0.578125 -2.40625l0 -15.609375l2.46875 0l0 15.546875q0 2.375 2.203125 2.375q0.65625 0 1.265625 -0.140625q0.625 -0.15625 1.390625 -0.4375l0.359375 1.78125q-0.8125 0.359375 -1.625 0.578125q-0.8125 0.234375 -1.671875 0.234375zm-6.84375 -13.953125l0 -1.734375l9.75 0l0 1.734375l-9.75 0zm14.172646 13.5625l0 -15.328125l2.5 0l0 15.328125l-2.5 0zm1.71875 -6.90625q0 -2.921875 0.5625 -4.84375q0.5625 -1.9375 1.640625 -2.875q1.078125 -0.953125 2.640625 -0.953125q0.5 0 0.921875 0.078125q0.4375 0.0625 0.859375 0.203125l-0.15625 2.46875q-0.453125 -0.140625 -0.984375 -0.25q-0.515625 -0.109375 -0.9375 -0.109375q-1.359375 0 -2.1875 0.78125q-0.828125 0.78125 -1.203125 2.1875q-0.375 1.40625 -0.375 3.3125l-0.78125 0zm11.255524 -12.0q-0.765625 0 -1.21875 -0.4375q-0.453125 -0.453125 -0.453125 -1.171875q0 -0.703125 0.453125 -1.109375q0.453125 -0.421875 1.21875 -0.421875q0.765625 0 1.203125 0.421875q0.453125 0.40625 0.453125 1.109375q0 0.71875 -0.453125 1.171875q-0.4375 0.4375 -1.203125 0.4375zm-1.25 18.90625l0 -15.328125l2.5 0l0 15.328125l-2.5 0zm14.692276 0.390625q-1.984375 0 -3.546875 -1.015625q-1.5625 -1.015625 -2.46875 -2.828125q-0.90625 -1.8125 -0.90625 -4.15625q0 -2.515625 0.890625 -4.328125q0.90625 -1.8125 2.46875 -2.78125q1.5625 -0.96875 3.5625 -0.96875q1.734375 0 2.96875 0.71875q1.234375 0.703125 1.984375 1.90625q0.75 1.1875 1.046875 2.703125q0.296875 1.515625 0.171875 3.125l-11.078125 0l0 -1.53125l9.4375 0l-0.734375 0.484375q0.046875 -0.953125 -0.109375 -1.890625q-0.15625 -0.953125 -0.578125 -1.734375q-0.40625 -0.796875 -1.15625 -1.265625q-0.75 -0.484375 -1.921875 -0.484375q-1.46875 0 -2.46875 0.75q-0.984375 0.75 -1.484375 1.96875q-0.5 1.21875 -0.5 2.65625l0 1.015625q0 1.609375 0.484375 2.875q0.5 1.25 1.46875 2.0q0.984375 0.734375 2.46875 0.734375q1.484375 0 2.4375 -0.71875q0.96875 -0.734375 1.171875 -2.140625l2.59375 0q-0.234375 1.53125 -1.09375 2.625q-0.84375 1.09375 -2.15625 1.6875q-1.3125 0.59375 -2.953125 0.59375zm8.463287 -15.6875l2.84375 0l4.796875 13.15625l-0.34375 0l4.796875 -13.15625l2.84375 0l-6.109375 15.296875l-2.71875 0l-6.109375 -15.296875zm24.048782 15.6875q-1.984375 0 -3.546875 -1.015625q-1.5625 -1.015625 -2.46875 -2.828125q-0.90625 -1.8125 -0.90625 -4.15625q0 -2.515625 0.890625 -4.328125q0.90625 -1.8125 2.46875 -2.78125q1.5625 -0.96875 3.5625 -0.96875q1.734375 0 2.96875 0.71875q1.234375 0.703125 1.984375 1.90625q0.75 1.1875 1.046875 2.703125q0.296875 1.515625 0.171875 3.125l-11.078125 0l0 -1.53125l9.4375 0l-0.734375 0.484375q0.046875 -0.953125 -0.109375 -1.890625q-0.15625 -0.953125 -0.578125 -1.734375q-0.40625 -0.796875 -1.15625 -1.265625q-0.75 -0.484375 -1.921875 -0.484375q-1.46875 0 -2.46875 0.75q-0.984375 0.75 -1.484375 1.96875q-0.5 1.21875 -0.5 2.65625l0 1.015625q0 1.609375 0.484375 2.875q0.5 1.25 1.46875 2.0q0.984375 0.734375 2.46875 0.734375q1.484375 0 2.4375 -0.71875q0.96875 -0.734375 1.171875 -2.140625l2.59375 0q-0.234375 1.53125 -1.09375 2.625q-0.84375 1.09375 -2.15625 1.6875q-1.3125 0.59375 -2.953125 0.59375zm9.713287 1.90625l8.03125 -25.6875l2.5625 0l-8.109375 25.6875l-2.484375 0zm15.214279 -2.296875l0 -20.09375l7.0 0q3.453125 0 5.21875 1.640625q1.765625 1.640625 1.765625 4.3125q0 2.640625 -1.765625 4.28125q-1.765625 1.640625 -5.21875 1.640625l-4.5 0l0 8.21875l-2.5 0zm11.265625 0l-5.765625 -9.125l2.71875 0l6.28125 9.125l-3.234375 0zm-8.765625 -9.984375l4.3125 0q2.25 0 3.421875 -1.109375q1.1875 -1.109375 1.1875 -2.890625q0 -1.828125 -1.125 -2.890625q-1.125 -1.078125 -3.296875 -1.078125l-4.5 0l0 7.96875zm22.412537 10.375q-1.984375 0 -3.546875 -1.015625q-1.5625 -1.015625 -2.46875 -2.828125q-0.90625 -1.8125 -0.90625 -4.15625q0 -2.515625 0.890625 -4.328125q0.90625 -1.8125 2.46875 -2.78125q1.5625 -0.96875 3.5625 -0.96875q1.734375 0 2.96875 0.71875q1.234375 0.703125 1.984375 1.90625q0.75 1.1875 1.046875 2.703125q0.296875 1.515625 0.171875 3.125l-11.078125 0l0 -1.53125l9.4375 0l-0.734375 0.484375q0.046875 -0.953125 -0.109375 -1.890625q-0.15625 -0.953125 -0.578125 -1.734375q-0.40625 -0.796875 -1.15625 -1.265625q-0.75 -0.484375 -1.921875 -0.484375q-1.46875 0 -2.46875 0.75q-0.984375 0.75 -1.484375 1.96875q-0.5 1.21875 -0.5 2.65625l0 1.015625q0 1.609375 0.484375 2.875q0.5 1.25 1.46875 2.0q0.984375 0.734375 2.46875 0.734375q1.484375 0 2.4375 -0.71875q0.96875 -0.734375 1.171875 -2.140625l2.59375 0q-0.234375 1.53125 -1.09375 2.625q-0.84375 1.09375 -2.15625 1.6875q-1.3125 0.59375 -2.953125 0.59375zm15.822662 0q-1.25 0 -2.25 -0.484375q-0.984375 -0.484375 -1.5625 -1.4375q-0.578125 -0.96875 -0.578125 -2.40625l0 -15.609375l2.46875 0l0 15.546875q0 2.375 2.203125 2.375q0.65625 0 1.265625 -0.140625q0.625 -0.15625 1.390625 -0.4375l0.359375 1.78125q-0.8125 0.359375 -1.625 0.578125q-0.8125 0.234375 -1.671875 0.234375zm-6.84375 -13.953125l0 -1.734375l9.75 0l0 1.734375l-9.75 0zm24.563293 -1.765625l2.5 0l0 15.328125l-2.5 0l0 -15.328125zm-10.84375 0l2.5 0l0 9.53125q0 1.921875 0.9375 2.921875q0.9375 0.984375 2.671875 0.984375q1.453125 0 2.515625 -0.765625q1.0625 -0.765625 1.640625 -2.109375q0.578125 -1.359375 0.578125 -3.109375l0.9375 0q0 2.578125 -0.75 4.40625q-0.734375 1.828125 -2.09375 2.796875q-1.34375 0.953125 -3.171875 0.953125q-1.734375 0 -3.03125 -0.625q-1.296875 -0.640625 -2.015625 -1.9375q-0.71875 -1.3125 -0.71875 -3.3125l0 -9.734375zm19.829132 15.328125l0 -15.328125l2.5 0l0 15.328125l-2.5 0zm1.71875 -6.90625q0 -2.921875 0.5625 -4.84375q0.5625 -1.9375 1.640625 -2.875q1.078125 -0.953125 2.640625 -0.953125q0.5 0 0.921875 0.078125q0.4375 0.0625 0.859375 0.203125l-0.15625 2.46875q-0.453125 -0.140625 -0.984375 -0.25q-0.515625 -0.109375 -0.9375 -0.109375q-1.359375 0 -2.1875 0.78125q-0.828125 0.78125 -1.203125 2.1875q-0.375 1.40625 -0.375 3.3125l-0.78125 0zm20.724304 6.90625l0 -8.984375q0 -2.203125 -1.046875 -3.34375q-1.046875 -1.140625 -2.859375 -1.140625q-1.375 0 -2.390625 0.75q-1.0 0.75 -1.546875 2.15625q-0.53125 1.390625 -0.53125 3.328125l-0.96875 0q0 -2.671875 0.703125 -4.5625q0.703125 -1.890625 2.046875 -2.890625q1.359375 -1.0 3.296875 -1.0q1.8125 0 3.09375 0.8125q1.296875 0.8125 1.984375 2.3125q0.6875 1.5 0.6875 3.578125l0 8.984375l-2.46875 0zm-10.875 0l0 -15.296875l2.140625 0l0.359375 3.515625l0 11.78125l-2.5 0z" fill-rule="nonzero"/><path fill="#abe33f" d="m24.461615 523.71106l19.374998 0l-7.375 -7.375l6.125 0l9.875 9.625l-9.875 9.625l-6.125 0l7.375 -7.375l-19.374998 0l0 -4.5z" fill-rule="nonzero"/><path fill="#004c52" d="m80.86787 517.3673l2.5 0l0 12.828125q0 2.828125 1.421875 4.09375q1.421875 1.25 3.734375 1.25q2.28125 0 3.6875 -1.25q1.421875 -1.265625 1.421875 -4.09375l0 -12.828125l2.5 0l0 12.828125q0 2.53125 -0.9375 4.234375q-0.9375 1.703125 -2.65625 2.5625q-1.703125 0.859375 -4.015625 0.859375q-2.328125 0 -4.046875 -0.859375q-1.71875 -0.859375 -2.671875 -2.5625q-0.9375 -1.703125 -0.9375 -4.234375l0 -12.828125zm32.224167 20.09375l0 -8.984375q0 -2.203125 -1.046875 -3.34375q-1.046875 -1.140625 -2.859375 -1.140625q-1.375 0 -2.390625 0.75q-1.0 0.75 -1.546875 2.15625q-0.53125 1.390625 -0.53125 3.328125l-0.96875 0q0 -2.671875 0.703125 -4.5625q0.703125 -1.890625 2.046875 -2.890625q1.359375 -1.0 3.296875 -1.0q1.8125 0 3.09375 0.8125q1.296875 0.8125 1.984375 2.3125q0.6875 1.5 0.6875 3.578125l0 8.984375l-2.46875 0zm-10.875 0l0 -15.296875l2.140625 0l0.359375 3.515625l0 11.78125l-2.5 0zm20.140167 0l0 -17.65625q0 -1.53125 0.578125 -2.5q0.59375 -0.96875 1.578125 -1.421875q0.984375 -0.46875 2.203125 -0.46875q0.65625 0 1.3281174 0.09375q0.6875 0.09375 1.359375 0.296875l-0.484375 1.96875q-0.484375 -0.1875 -0.9531174 -0.28125q-0.46875 -0.09375 -0.90625 -0.09375q-0.515625 0 -1.03125 0.1875q-0.5 0.1875 -0.84375 0.71875q-0.328125 0.53125 -0.328125 1.53125l0 17.625l-2.5 0zm-2.5 -13.5625l0 -1.734375l8.171867 0l0 1.734375l-8.171867 0zm18.16314 13.953125q-2.0625 0 -3.671875 -0.90625q-1.609375 -0.921875 -2.546875 -2.71875q-0.921875 -1.796875 -0.921875 -4.40625q0 -2.640625 0.921875 -4.421875q0.9375 -1.796875 2.546875 -2.703125q1.609375 -0.921875 3.671875 -0.921875q2.046875 0 3.65625 0.921875q1.609375 0.90625 2.53125 2.703125q0.921875 1.78125 0.921875 4.421875q0 2.609375 -0.921875 4.40625q-0.921875 1.796875 -2.53125 2.71875q-1.609375 0.90625 -3.65625 0.90625zm-0.0625 -2.1875q1.484375 0 2.515625 -0.703125q1.046875 -0.71875 1.578125 -2.03125q0.546875 -1.3125 0.546875 -3.109375q0 -2.75 -1.140625 -4.3125q-1.125 -1.578125 -3.375 -1.578125q-1.5 0 -2.53125 0.71875q-1.03125 0.703125 -1.578125 2.03125q-0.53125 1.3125 -0.53125 3.140625q0 2.703125 1.140625 4.28125q1.15625 1.5625 3.375 1.5625zm12.019287 1.796875l0 -15.328125l2.5 0l0 15.328125l-2.5 0zm1.71875 -6.90625q0 -2.921875 0.5625 -4.84375q0.5625 -1.9375 1.640625 -2.875q1.078125 -0.953125 2.640625 -0.953125q0.5 0 0.921875 0.078125q0.4375 0.0625 0.859375 0.203125l-0.15625 2.46875q-0.453125 -0.140625 -0.984375 -0.25q-0.515625 -0.109375 -0.9375 -0.109375q-1.359375 0 -2.1875 0.78125q-0.828125 0.78125 -1.203125 2.1875q-0.375 1.40625 -0.375 3.3125l-0.78125 0zm14.552399 7.296875q-1.25 0 -2.25 -0.484375q-0.984375 -0.484375 -1.5625 -1.4375q-0.578125 -0.96875 -0.578125 -2.40625l0 -15.609375l2.46875 0l0 15.546875q0 2.375 2.203125 2.375q0.65625 0 1.265625 -0.140625q0.625 -0.15625 1.390625 -0.4375l0.359375 1.78125q-0.8125 0.359375 -1.625 0.578125q-0.8125 0.234375 -1.671875 0.234375zm-6.84375 -13.953125l0 -1.734375l9.75 0l0 1.734375l-9.75 0zm24.563278 -1.765625l2.5 0l0 15.328125l-2.5 0l0 -15.328125zm-10.84375 0l2.5 0l0 9.53125q0 1.921875 0.9375 2.921875q0.9375 0.984375 2.671875 0.984375q1.453125 0 2.515625 -0.765625q1.0625 -0.765625 1.640625 -2.109375q0.578125 -1.359375 0.578125 -3.109375l0.9375 0q0 2.578125 -0.75 4.40625q-0.734375 1.828125 -2.09375 2.796875q-1.34375 0.953125 -3.171875 0.953125q-1.734375 0 -3.03125 -0.625q-1.296875 -0.640625 -2.015625 -1.9375q-0.71875 -1.3125 -0.71875 -3.3125l0 -9.734375zm30.704163 15.328125l0 -8.984375q0 -2.203125 -1.046875 -3.34375q-1.046875 -1.140625 -2.859375 -1.140625q-1.375 0 -2.390625 0.75q-1.0 0.75 -1.546875 2.15625q-0.53125 1.390625 -0.53125 3.328125l-0.96875 0q0 -2.671875 0.703125 -4.5625q0.703125 -1.890625 2.046875 -2.890625q1.359375 -1.0 3.296875 -1.0q1.8125 0 3.09375 0.8125q1.296875 0.8125 1.984375 2.3125q0.6875 1.5 0.6875 3.578125l0 8.984375l-2.46875 0zm-10.875 0l0 -15.296875l2.140625 0l0.359375 3.515625l0 11.78125l-2.5 0zm28.780792 0l-0.3125 -3.359375l0 -6.5625q0 -2.0625 -0.890625 -2.96875q-0.875 -0.90625 -2.640625 -0.90625q-0.984375 0 -1.796875 0.296875q-0.8125 0.28125 -1.28125 0.890625q-0.46875 0.59375 -0.46875 1.53125l-2.78125 0q0 -1.65625 0.8125 -2.671875q0.8125 -1.015625 2.25 -1.46875q1.4375 -0.46875 3.265625 -0.46875q1.765625 0 3.125 0.59375q1.359375 0.59375 2.125 1.890625q0.765625 1.28125 0.765625 3.34375l0 9.859375l-2.171875 0zm-5.21875 0.390625q-1.890625 0 -3.125 -0.671875q-1.21875 -0.671875 -1.828125 -1.75q-0.609375 -1.078125 -0.609375 -2.25q0 -1.5625 0.765625 -2.53125q0.78125 -0.984375 2.125 -1.4375q1.34375 -0.453125 3.03125 -0.453125q1.203125 0 2.40625 0.25q1.203125 0.234375 2.359375 0.640625l0 1.578125q-0.96875 -0.390625 -2.171875 -0.609375q-1.203125 -0.234375 -2.21875 -0.234375q-1.53125 0 -2.59375 0.640625q-1.046875 0.625 -1.046875 2.15625q0 1.109375 0.796875 1.921875q0.8125 0.796875 2.59375 0.796875q1.25 0 2.25 -0.578125q1.0 -0.59375 1.578125 -1.46875q0.59375 -0.890625 0.59375 -1.765625l0.59375 0q0 1.53125 -0.671875 2.84375q-0.65625 1.3125 -1.890625 2.125q-1.21875 0.796875 -2.9375 0.796875zm18.069168 0q-1.25 0 -2.25 -0.484375q-0.984375 -0.484375 -1.5625 -1.4375q-0.578125 -0.96875 -0.578125 -2.40625l0 -15.609375l2.46875 0l0 15.546875q0 2.375 2.203125 2.375q0.65625 0 1.265625 -0.140625q0.625 -0.15625 1.390625 -0.4375l0.359375 1.78125q-0.8125 0.359375 -1.625 0.578125q-0.8125 0.234375 -1.671875 0.234375zm-6.84375 -13.953125l0 -1.734375l9.75 0l0 1.734375l-9.75 0zm19.485153 13.953125q-1.984375 0 -3.546875 -1.015625q-1.5625 -1.015625 -2.46875 -2.828125q-0.90625 -1.8125 -0.90625 -4.15625q0 -2.515625 0.890625 -4.328125q0.90625 -1.8125 2.46875 -2.78125q1.5625 -0.96875 3.5625 -0.96875q1.734375 0 2.96875 0.71875q1.234375 0.703125 1.984375 1.90625q0.75 1.1875 1.046875 2.703125q0.296875 1.515625 0.171875 3.125l-11.078125 0l0 -1.53125l9.4375 0l-0.734375 0.484375q0.046875 -0.953125 -0.109375 -1.890625q-0.15625 -0.953125 -0.578125 -1.734375q-0.40625 -0.796875 -1.15625 -1.265625q-0.75 -0.484375 -1.921875 -0.484375q-1.46875 0 -2.46875 0.75q-0.984375 0.75 -1.484375 1.96875q-0.5 1.21875 -0.5 2.65625l0 1.015625q0 1.609375 0.484375 2.875q0.5 1.25 1.46875 2.0q0.984375 0.734375 2.46875 0.734375q1.484375 0 2.4375 -0.71875q0.96875 -0.734375 1.171875 -2.140625l2.59375 0q-0.234375 1.53125 -1.09375 2.625q-0.84375 1.09375 -2.15625 1.6875q-1.3125 0.59375 -2.953125 0.59375zm9.713287 1.90625l8.03125 -25.6875l2.5625 0l-8.109375 25.6875l-2.484375 0zm22.183014 -1.90625q-2.6562195 0 -4.5780945 -1.328125q-1.90625 -1.34375 -2.953125 -3.71875q-1.046875 -2.390625 -1.046875 -5.515625q0 -3.34375 1.125 -5.625q1.140625 -2.296875 3.078125 -3.46875q1.953125 -1.1875 4.3749695 -1.1875q3.21875 0 5.171875 1.609375q1.96875 1.609375 2.703125 4.1875l-2.6875 0.546875q-0.625 -1.875 -2.0 -2.984375q-1.359375 -1.109375 -3.1875 -1.109375q-1.578125 0 -2.9218445 0.90625q-1.328125 0.890625 -2.15625 2.6875q-0.8125 1.796875 -0.8125 4.4375q0 2.390625 0.640625 4.265625q0.65625 1.875 1.953125 2.953125q1.3124695 1.0625 3.2968445 1.0625q2.390625 0 3.78125 -1.28125q1.40625 -1.28125 1.40625 -3.359375l2.71875 0q0 2.15625 -1.0 3.703125q-0.984375 1.546875 -2.765625 2.390625q-1.78125 0.828125 -4.140625 0.828125zm18.178558 0q-2.0625 0 -3.671875 -0.90625q-1.609375 -0.921875 -2.546875 -2.71875q-0.921875 -1.796875 -0.921875 -4.40625q0 -2.640625 0.921875 -4.421875q0.9375 -1.796875 2.546875 -2.703125q1.609375 -0.921875 3.671875 -0.921875q2.046875 0 3.65625 0.921875q1.609375 0.90625 2.53125 2.703125q0.921875 1.78125 0.921875 4.421875q0 2.609375 -0.921875 4.40625q-0.921875 1.796875 -2.53125 2.71875q-1.609375 0.90625 -3.65625 0.90625zm-0.0625 -2.1875q1.484375 0 2.515625 -0.703125q1.046875 -0.71875 1.578125 -2.03125q0.546875 -1.3125 0.546875 -3.109375q0 -2.75 -1.140625 -4.3125q-1.125 -1.578125 -3.375 -1.578125q-1.5 0 -2.53125 0.71875q-1.03125 0.703125 -1.578125 2.03125q-0.53125 1.3125 -0.53125 3.140625q0 2.703125 1.140625 4.28125q1.15625 1.5625 3.375 1.5625zm33.519287 1.796875l0 -8.984375q0 -2.203125 -1.046875 -3.34375q-1.046875 -1.140625 -2.828125 -1.140625q-2.078125 0 -3.1875 1.609375q-1.09375 1.609375 -1.09375 4.4375l-1.15625 0q0 -2.0625 0.40625 -3.609375q0.40625 -1.5625 1.1875 -2.59375q0.796875 -1.03125 1.90625 -1.546875q1.125 -0.515625 2.546875 -0.515625q1.8125 0 3.09375 0.8125q1.296875 0.8125 1.984375 2.3125q0.6875 1.5 0.6875 3.578125l0 8.984375l-2.5 0zm-21.5 0l0 -15.296875l2.140625 0l0.28125 3.078125q0.734375 -1.671875 2.03125 -2.5625q1.296875 -0.90625 3.125 -0.90625q1.8125 0 3.09375 0.8125q1.296875 0.8125 1.984375 2.3125q0.6875 1.5 0.6875 3.578125l0 8.984375l-2.46875 0l0 -8.984375q0 -2.203125 -1.046875 -3.34375q-1.046875 -1.140625 -2.859375 -1.140625q-1.375 0 -2.390625 0.75q-1.0 0.75 -1.546875 2.15625q-0.53125 1.390625 -0.53125 3.328125l0 7.234375l-2.5 0zm35.248566 0.390625q-1.984375 0 -3.546875 -1.015625q-1.5625 -1.015625 -2.46875 -2.828125q-0.90625 -1.8125 -0.90625 -4.15625q0 -2.515625 0.890625 -4.328125q0.90625 -1.8125 2.46875 -2.78125q1.5625 -0.96875 3.5625 -0.96875q1.734375 0 2.96875 0.71875q1.234375 0.703125 1.984375 1.90625q0.75 1.1875 1.046875 2.703125q0.296875 1.515625 0.171875 3.125l-11.078125 0l0 -1.53125l9.4375 0l-0.734375 0.484375q0.046875 -0.953125 -0.109375 -1.890625q-0.15625 -0.953125 -0.578125 -1.734375q-0.40625 -0.796875 -1.15625 -1.265625q-0.75 -0.484375 -1.921875 -0.484375q-1.46875 0 -2.46875 0.75q-0.984375 0.75 -1.484375 1.96875q-0.5 1.21875 -0.5 2.65625l0 1.015625q0 1.609375 0.484375 2.875q0.5 1.25 1.46875 2.0q0.984375 0.734375 2.46875 0.734375q1.484375 0 2.4375 -0.71875q0.96875 -0.734375 1.171875 -2.140625l2.59375 0q-0.234375 1.53125 -1.09375 2.625q-0.84375 1.09375 -2.15625 1.6875q-1.3125 0.59375 -2.953125 0.59375zm16.588287 0q-1.859375 0 -3.40625 -1.0q-1.546875 -1.0 -2.484375 -2.8125q-0.921875 -1.828125 -0.921875 -4.296875q0 -2.4375 0.90625 -4.234375q0.921875 -1.796875 2.421875 -2.765625q1.515625 -0.96875 3.328125 -0.96875q1.671875 0 2.9375 0.828125q1.28125 0.8125 1.984375 2.359375q0.703125 1.53125 0.703125 3.703125l-0.953125 0q0 -1.515625 -0.609375 -2.5625q-0.59375 -1.046875 -1.5625 -1.578125q-0.953125 -0.53125 -2.0625 -0.53125q-1.234375 0 -2.265625 0.703125q-1.03125 0.6875 -1.65625 1.984375q-0.609375 1.28125 -0.609375 3.0625q0 1.828125 0.609375 3.140625q0.625 1.3125 1.65625 2.015625q1.03125 0.703125 2.265625 0.703125q1.046875 0 2.015625 -0.53125q0.96875 -0.546875 1.59375 -1.59375q0.625 -1.0625 0.625 -2.546875l0.953125 0q0 2.234375 -0.734375 3.78125q-0.71875 1.53125 -1.96875 2.34375q-1.234375 0.796875 -2.765625 0.796875zm4.921875 -0.390625l-0.40625 -3.578125l0 -18.25l2.5 0l0 21.828125l-2.09375 0zm9.9756775 -18.90625q-0.765625 0 -1.21875 -0.4375q-0.453125 -0.453125 -0.453125 -1.171875q0 -0.703125 0.453125 -1.109375q0.453125 -0.421875 1.21875 -0.421875q0.765625 0 1.203125 0.421875q0.453125 0.40625 0.453125 1.109375q0 0.71875 -0.453125 1.171875q-0.4375 0.4375 -1.203125 0.4375zm-1.25 18.90625l0 -15.328125l2.5 0l0 15.328125l-2.5 0zm14.754761 0.390625q-1.84375 0 -3.4375 -0.984375q-1.59375 -1.0 -2.578125 -2.8125q-0.96875 -1.8125 -0.96875 -4.28125q0 -2.515625 0.96875 -4.3125q0.984375 -1.796875 2.578125 -2.734375q1.59375 -0.953125 3.4375 -0.953125q1.296875 0 2.328125 0.40625q1.03125 0.390625 1.796875 1.078125q0.765625 0.6875 1.265625 1.5625q0.515625 0.859375 0.75 1.828125l-2.5625 0.21875q-0.390625 -1.328125 -1.328125 -2.09375q-0.9375 -0.78125 -2.28125 -0.78125q-1.140625 0 -2.140625 0.65625q-1.0 0.640625 -1.625 1.9375q-0.625 1.28125 -0.625 3.1875q0 1.78125 0.5625 3.09375q0.578125 1.296875 1.5625 2.015625q1.0 0.71875 2.265625 0.71875q1.78125 0 2.6875 -0.859375q0.921875 -0.875 0.921875 -2.4375l2.5625 0q0 1.609375 -0.75 2.859375q-0.75 1.234375 -2.140625 1.96875q-1.375 0.71875 -3.25 0.71875zm18.73706 -20.484375l3.578125 0l6.921875 13.890625l-0.265625 0l6.921875 -13.890625l3.484375 0l0 20.09375l-2.53125 0l0 -17.5l0.453125 0l-7.359375 14.96875l-1.671875 0l-7.328125 -14.875l0.296875 0l0 17.40625l-2.5 0l0 -20.09375zm28.510315 1.1875q-0.765625 0 -1.21875 -0.4375q-0.453125 -0.453125 -0.453125 -1.171875q0 -0.703125 0.453125 -1.109375q0.453125 -0.421875 1.21875 -0.421875q0.765625 0 1.203125 0.421875q0.453125 0.40625 0.453125 1.109375q0 0.71875 -0.453125 1.171875q-0.4375 0.4375 -1.203125 0.4375zm-1.25 18.90625l0 -15.328125l2.5 0l0 15.328125l-2.5 0zm14.879761 0.390625q-2.21875 0 -3.71875 -0.625q-1.484375 -0.640625 -2.25 -1.75q-0.765625 -1.125 -0.8125 -2.5625l2.40625 0q0.078125 1.453125 1.171875 2.1875q1.09375 0.734375 2.984375 0.734375q0.984375 0 1.8125 -0.3125q0.84375 -0.328125 1.328125 -0.890625q0.5 -0.5625 0.5 -1.265625q0 -0.890625 -0.65625 -1.40625q-0.65625 -0.515625 -2.09375 -0.90625l-2.96875 -0.953125q-1.9375 -0.609375 -2.96875 -1.671875q-1.03125 -1.0625 -1.03125 -2.546875q0 -1.859375 1.625 -2.984375q1.640625 -1.125 4.296875 -1.125q2.8125 0 4.359375 1.15625q1.546875 1.15625 1.625 2.890625l-2.46875 0q-0.140625 -1.015625 -1.03125 -1.53125q-0.875 -0.53125 -2.484375 -0.53125q-1.5625 0 -2.4375 0.703125q-0.859375 0.703125 -0.859375 1.546875q0 1.578125 2.71875 2.328125l3.03125 1.03125q1.96875 0.59375 3.015625 1.5625q1.046875 0.953125 1.046875 2.4375q0 1.15625 -0.75 2.1875q-0.75 1.015625 -2.125 1.65625q-1.375 0.640625 -3.265625 0.640625zm18.25354 0q-1.671875 0 -2.921875 -0.765625q-1.234375 -0.78125 -1.90625 -2.25q-0.671875 -1.484375 -0.671875 -3.609375l1.0625 0q0 1.421875 0.578125 2.40625q0.59375 0.96875 1.546875 1.46875q0.953125 0.5 2.03125 0.5q1.15625 0 2.203125 -0.65625q1.0625 -0.671875 1.734375 -1.96875q0.671875 -1.296875 0.671875 -3.203125q0 -1.8125 -0.625 -3.109375q-0.609375 -1.296875 -1.65625 -1.984375q-1.03125 -0.6875 -2.296875 -0.6875q-1.09375 0 -2.0625 0.53125q-0.953125 0.515625 -1.546875 1.53125q-0.578125 1.015625 -0.578125 2.515625l-1.0625 0q0 -2.234375 0.734375 -3.734375q0.734375 -1.515625 2.0 -2.28125q1.265625 -0.78125 2.828125 -0.78125q1.796875 0 3.34375 0.96875q1.5625 0.953125 2.515625 2.75q0.96875 1.796875 0.96875 4.28125q0 2.53125 -0.96875 4.34375q-0.96875 1.8125 -2.546875 2.78125q-1.5625 0.953125 -3.375 0.953125zm-6.9375 7.125l0 -22.8125l2.078125 0l0.421875 3.578125l0 19.234375l-2.5 0zm18.70404 -7.515625l0 -21.828125l2.5 0l0 21.828125l-2.5 0zm18.428772 0l-0.3125 -3.359375l0 -6.5625q0 -2.0625 -0.890625 -2.96875q-0.875 -0.90625 -2.640625 -0.90625q-0.984375 0 -1.796875 0.296875q-0.8125 0.28125 -1.28125 0.890625q-0.46875 0.59375 -0.46875 1.53125l-2.78125 0q0 -1.65625 0.8125 -2.671875q0.8125 -1.015625 2.25 -1.46875q1.4375 -0.46875 3.265625 -0.46875q1.765625 0 3.125 0.59375q1.359375 0.59375 2.125 1.890625q0.765625 1.28125 0.765625 3.34375l0 9.859375l-2.171875 0zm-5.21875 0.390625q-1.890625 0 -3.125 -0.671875q-1.21875 -0.671875 -1.828125 -1.75q-0.609375 -1.078125 -0.609375 -2.25q0 -1.5625 0.765625 -2.53125q0.78125 -0.984375 2.125 -1.4375q1.34375 -0.453125 3.03125 -0.453125q1.203125 0 2.40625 0.25q1.203125 0.234375 2.359375 0.640625l0 1.578125q-0.96875 -0.390625 -2.171875 -0.609375q-1.203125 -0.234375 -2.21875 -0.234375q-1.53125 0 -2.59375 0.640625q-1.046875 0.625 -1.046875 2.15625q0 1.109375 0.796875 1.921875q0.8125 0.796875 2.59375 0.796875q1.25 0 2.25 -0.578125q1.0 -0.59375 1.578125 -1.46875q0.59375 -0.890625 0.59375 -1.765625l0.59375 0q0 1.53125 -0.671875 2.84375q-0.65625 1.3125 -1.890625 2.125q-1.21875 0.796875 -2.9375 0.796875zm18.741028 0q-1.84375 0 -3.4375 -0.984375q-1.59375 -1.0 -2.578125 -2.8125q-0.96875 -1.8125 -0.96875 -4.28125q0 -2.515625 0.96875 -4.3125q0.984375 -1.796875 2.578125 -2.734375q1.59375 -0.953125 3.4375 -0.953125q1.296875 0 2.328125 0.40625q1.03125 0.390625 1.796875 1.078125q0.765625 0.6875 1.265625 1.5625q0.515625 0.859375 0.75 1.828125l-2.5625 0.21875q-0.390625 -1.328125 -1.328125 -2.09375q-0.9375 -0.78125 -2.28125 -0.78125q-1.140625 0 -2.140625 0.65625q-1.0 0.640625 -1.625 1.9375q-0.625 1.28125 -0.625 3.1875q0 1.78125 0.5625 3.09375q0.578125 1.296875 1.5625 2.015625q1.0 0.71875 2.265625 0.71875q1.78125 0 2.6875 -0.859375q0.921875 -0.875 0.921875 -2.4375l2.5625 0q0 1.609375 -0.75 2.859375q-0.75 1.234375 -2.140625 1.96875q-1.375 0.71875 -3.25 0.71875zm16.449524 0q-1.984375 0 -3.546875 -1.015625q-1.5625 -1.015625 -2.46875 -2.828125q-0.90625 -1.8125 -0.90625 -4.15625q0 -2.515625 0.890625 -4.328125q0.90625 -1.8125 2.46875 -2.78125q1.5625 -0.96875 3.5625 -0.96875q1.734375 0 2.96875 0.71875q1.234375 0.703125 1.984375 1.90625q0.75 1.1875 1.046875 2.703125q0.296875 1.515625 0.171875 3.125l-11.078125 0l0 -1.53125l9.4375 0l-0.734375 0.484375q0.046875 -0.953125 -0.109375 -1.890625q-0.15625 -0.953125 -0.578125 -1.734375q-0.40625 -0.796875 -1.15625 -1.265625q-0.75 -0.484375 -1.921875 -0.484375q-1.46875 0 -2.46875 0.75q-0.984375 0.75 -1.484375 1.96875q-0.5 1.21875 -0.5 2.65625l0 1.015625q0 1.609375 0.484375 2.875q0.5 1.25 1.46875 2.0q0.984375 0.734375 2.46875 0.734375q1.484375 0 2.4375 -0.71875q0.96875 -0.734375 1.171875 -2.140625l2.59375 0q-0.234375 1.53125 -1.09375 2.625q-0.84375 1.09375 -2.15625 1.6875q-1.3125 0.59375 -2.953125 0.59375zm32.619568 -0.390625l0 -8.984375q0 -2.203125 -1.046875 -3.34375q-1.046875 -1.140625 -2.828125 -1.140625q-2.078125 0 -3.1875 1.609375q-1.09375 1.609375 -1.09375 4.4375l-1.15625 0q0 -2.0625 0.40625 -3.609375q0.40625 -1.5625 1.1875 -2.59375q0.796875 -1.03125 1.90625 -1.546875q1.125 -0.515625 2.546875 -0.515625q1.8125 0 3.09375 0.8125q1.296875 0.8125 1.984375 2.3125q0.6875 1.5 0.6875 3.578125l0 8.984375l-2.5 0zm-21.5 0l0 -15.296875l2.140625 0l0.28125 3.078125q0.734375 -1.671875 2.03125 -2.5625q1.296875 -0.90625 3.125 -0.90625q1.8125 0 3.09375 0.8125q1.296875 0.8125 1.984375 2.3125q0.6875 1.5 0.6875 3.578125l0 8.984375l-2.46875 0l0 -8.984375q0 -2.203125 -1.046875 -3.34375q-1.046875 -1.140625 -2.859375 -1.140625q-1.375 0 -2.390625 0.75q-1.0 0.75 -1.546875 2.15625q-0.53125 1.390625 -0.53125 3.328125l0 7.234375l-2.5 0zm35.248535 0.390625q-1.984375 0 -3.546875 -1.015625q-1.5625 -1.015625 -2.46875 -2.828125q-0.90625 -1.8125 -0.90625 -4.15625q0 -2.515625 0.890625 -4.328125q0.90625 -1.8125 2.46875 -2.78125q1.5625 -0.96875 3.5625 -0.96875q1.734375 0 2.96875 0.71875q1.234375 0.703125 1.984375 1.90625q0.75 1.1875 1.046875 2.703125q0.296875 1.515625 0.171875 3.125l-11.078125 0l0 -1.53125l9.4375 0l-0.734375 0.484375q0.046875 -0.953125 -0.109375 -1.890625q-0.15625 -0.953125 -0.578125 -1.734375q-0.40625 -0.796875 -1.15625 -1.265625q-0.75 -0.484375 -1.921875 -0.484375q-1.46875 0 -2.46875 0.75q-0.984375 0.75 -1.484375 1.96875q-0.5 1.21875 -0.5 2.65625l0 1.015625q0 1.609375 0.484375 2.875q0.5 1.25 1.46875 2.0q0.984375 0.734375 2.46875 0.734375q1.484375 0 2.4375 -0.71875q0.96875 -0.734375 1.171875 -2.140625l2.59375 0q-0.234375 1.53125 -1.09375 2.625q-0.84375 1.09375 -2.15625 1.6875q-1.3125 0.59375 -2.953125 0.59375zm21.994507 -0.390625l0 -8.984375q0 -2.203125 -1.046875 -3.34375q-1.046875 -1.140625 -2.859375 -1.140625q-1.375 0 -2.390625 0.75q-1.0 0.75 -1.546875 2.15625q-0.53125 1.390625 -0.53125 3.328125l-0.96875 0q0 -2.671875 0.703125 -4.5625q0.703125 -1.890625 2.046875 -2.890625q1.359375 -1.0 3.296875 -1.0q1.8125 0 3.09375 0.8125q1.296875 0.8125 1.984375 2.3125q0.6875 1.5 0.6875 3.578125l0 8.984375l-2.46875 0zm-10.875 0l0 -15.296875l2.140625 0l0.359375 3.515625l0 11.78125l-2.5 0zm24.015198 0.390625q-1.25 0 -2.25 -0.484375q-0.984375 -0.484375 -1.5625 -1.4375q-0.578125 -0.96875 -0.578125 -2.40625l0 -15.609375l2.46875 0l0 15.546875q0 2.375 2.203125 2.375q0.65625 0 1.265625 -0.140625q0.625 -0.15625 1.390625 -0.4375l0.359375 1.78125q-0.8125 0.359375 -1.625 0.578125q-0.8125 0.234375 -1.671875 0.234375zm-6.84375 -13.953125l0 -1.734375l9.75 0l0 1.734375l-9.75 0z" fill-rule="nonzero"/><path fill="#abe33f" d="m24.461615 655.71106l19.374998 0l-7.375 -7.375l6.125 0l9.875 9.625l-9.875 9.625l-6.125 0l7.375 -7.375l-19.374998 0l0 -4.5z" fill-rule="nonzero"/><path fill="#004c52" d="m78.27412 651.50793l0 -2.140625l15.65625 0l0 2.140625l-7.15625 0l0.5625 -0.578125l0 18.53125l-2.5 0l0 -18.53125l0.5625 0.578125l-7.125 0zm29.937912 17.953125l0 -8.984375q0 -2.203125 -1.046875 -3.34375q-1.046875 -1.140625 -2.859375 -1.140625q-1.375 0 -2.390625 0.75q-1.0 0.75 -1.546875 2.15625q-0.53125 1.390625 -0.53125 3.328125l-0.96875 0q0 -2.671875 0.703125 -4.5625q0.703125 -1.890625 2.046875 -2.890625q1.359375 -1.0 3.296875 -1.0q1.8125 0 3.09375 0.8125q1.296875 0.8125 1.984375 2.3125q0.6875 1.5 0.6875 3.578125l0 8.984375l-2.46875 0zm-10.875 0l0 -21.828125l2.5 0l0 21.828125l-2.5 0zm24.624542 0.390625q-1.984375 0 -3.546875 -1.015625q-1.5625 -1.015625 -2.46875 -2.828125q-0.90625 -1.8125 -0.90625 -4.15625q0 -2.515625 0.890625 -4.328125q0.90625 -1.8125 2.46875 -2.78125q1.5625 -0.96875 3.5625 -0.96875q1.734375 0 2.96875 0.71875q1.234375 0.703125 1.984375 1.90625q0.75 1.1875 1.046875 2.703125q0.29686737 1.515625 0.17186737 3.125l-11.078117 0l0 -1.53125l9.4375 0l-0.734375 0.484375q0.046875 -0.953125 -0.109375 -1.890625q-0.15625 -0.953125 -0.578125 -1.734375q-0.40625 -0.796875 -1.15625 -1.265625q-0.75 -0.484375 -1.921875 -0.484375q-1.46875 0 -2.46875 0.75q-0.984375 0.75 -1.484375 1.96875q-0.5 1.21875 -0.5 2.65625l0 1.015625q0 1.609375 0.484375 2.875q0.5 1.25 1.46875 2.0q0.984375 0.734375 2.46875 0.734375q1.484375 0 2.4375 -0.71875q0.96875 -0.734375 1.171875 -2.140625l2.5937424 0q-0.23436737 1.53125 -1.0937424 2.625q-0.84375 1.09375 -2.15625 1.6875q-1.3125 0.59375 -2.953125 0.59375zm23.422676 0q-1.25 0 -2.25 -0.484375q-0.984375 -0.484375 -1.5625 -1.4375q-0.578125 -0.96875 -0.578125 -2.40625l0 -15.609375l2.46875 0l0 15.546875q0 2.375 2.203125 2.375q0.65625 0 1.265625 -0.140625q0.625 -0.15625 1.390625 -0.4375l0.359375 1.78125q-0.8125 0.359375 -1.625 0.578125q-0.8125 0.234375 -1.671875 0.234375zm-6.84375 -13.953125l0 -1.734375l9.75 0l0 1.734375l-9.75 0zm19.485153 13.953125q-1.984375 0 -3.546875 -1.015625q-1.5625 -1.015625 -2.46875 -2.828125q-0.90625 -1.8125 -0.90625 -4.15625q0 -2.515625 0.890625 -4.328125q0.90625 -1.8125 2.46875 -2.78125q1.5625 -0.96875 3.5625 -0.96875q1.734375 0 2.96875 0.71875q1.234375 0.703125 1.984375 1.90625q0.75 1.1875 1.046875 2.703125q0.296875 1.515625 0.171875 3.125l-11.078125 0l0 -1.53125l9.4375 0l-0.734375 0.484375q0.046875 -0.953125 -0.109375 -1.890625q-0.15625 -0.953125 -0.578125 -1.734375q-0.40625 -0.796875 -1.15625 -1.265625q-0.75 -0.484375 -1.921875 -0.484375q-1.46875 0 -2.46875 0.75q-0.984375 0.75 -1.484375 1.96875q-0.5 1.21875 -0.5 2.65625l0 1.015625q0 1.609375 0.484375 2.875q0.5 1.25 1.46875 2.0q0.984375 0.734375 2.46875 0.734375q1.484375 0 2.4375 -0.71875q0.96875 -0.734375 1.171875 -2.140625l2.59375 0q-0.234375 1.53125 -1.09375 2.625q-0.84375 1.09375 -2.15625 1.6875q-1.3125 0.59375 -2.953125 0.59375zm20.588287 -0.390625l-0.3125 -3.359375l0 -6.5625q0 -2.0625 -0.890625 -2.96875q-0.875 -0.90625 -2.640625 -0.90625q-0.984375 0 -1.796875 0.296875q-0.8125 0.28125 -1.28125 0.890625q-0.46875 0.59375 -0.46875 1.53125l-2.78125 0q0 -1.65625 0.8125 -2.671875q0.8125 -1.015625 2.25 -1.46875q1.4375 -0.46875 3.265625 -0.46875q1.765625 0 3.125 0.59375q1.359375 0.59375 2.125 1.890625q0.765625 1.28125 0.765625 3.34375l0 9.859375l-2.171875 0zm-5.21875 0.390625q-1.890625 0 -3.125 -0.671875q-1.21875 -0.671875 -1.828125 -1.75q-0.609375 -1.078125 -0.609375 -2.25q0 -1.5625 0.765625 -2.53125q0.78125 -0.984375 2.125 -1.4375q1.34375 -0.453125 3.03125 -0.453125q1.203125 0 2.40625 0.25q1.203125 0.234375 2.359375 0.640625l0 1.578125q-0.96875 -0.390625 -2.171875 -0.609375q-1.203125 -0.234375 -2.21875 -0.234375q-1.53125 0 -2.59375 0.640625q-1.046875 0.625 -1.046875 2.15625q0 1.109375 0.796875 1.921875q0.8125 0.796875 2.59375 0.796875q1.25 0 2.25 -0.578125q1.0 -0.59375 1.578125 -1.46875q0.59375 -0.890625 0.59375 -1.765625l0.59375 0q0 1.53125 -0.671875 2.84375q-0.65625 1.3125 -1.890625 2.125q-1.21875 0.796875 -2.9375 0.796875zm34.866043 -0.390625l0 -8.984375q0 -2.203125 -1.046875 -3.34375q-1.046875 -1.140625 -2.828125 -1.140625q-2.078125 0 -3.1875 1.609375q-1.09375 1.609375 -1.09375 4.4375l-1.15625 0q0 -2.0625 0.40625 -3.609375q0.40625 -1.5625 1.1875 -2.59375q0.796875 -1.03125 1.90625 -1.546875q1.125 -0.515625 2.546875 -0.515625q1.8125 0 3.09375 0.8125q1.296875 0.8125 1.984375 2.3125q0.6875 1.5 0.6875 3.578125l0 8.984375l-2.5 0zm-21.5 0l0 -15.296875l2.140625 0l0.28125 3.078125q0.734375 -1.671875 2.03125 -2.5625q1.296875 -0.90625 3.125 -0.90625q1.8125 0 3.09375 0.8125q1.296875 0.8125 1.984375 2.3125q0.6875 1.5 0.6875 3.578125l0 8.984375l-2.46875 0l0 -8.984375q0 -2.203125 -1.046875 -3.34375q-1.046875 -1.140625 -2.859375 -1.140625q-1.375 0 -2.390625 0.75q-1.0 0.75 -1.546875 2.15625q-0.53125 1.390625 -0.53125 3.328125l0 7.234375l-2.5 0zm37.536087 0l0 -21.828125l2.5 0l0 21.828125l-2.5 0zm14.491272 0.390625q-2.0625 0 -3.671875 -0.90625q-1.609375 -0.921875 -2.546875 -2.71875q-0.921875 -1.796875 -0.921875 -4.40625q0 -2.640625 0.921875 -4.421875q0.9375 -1.796875 2.546875 -2.703125q1.609375 -0.921875 3.671875 -0.921875q2.046875 0 3.65625 0.921875q1.609375 0.90625 2.53125 2.703125q0.921875 1.78125 0.921875 4.421875q0 2.609375 -0.921875 4.40625q-0.921875 1.796875 -2.53125 2.71875q-1.609375 0.90625 -3.65625 0.90625zm-0.0625 -2.1875q1.484375 0 2.515625 -0.703125q1.046875 -0.71875 1.578125 -2.03125q0.546875 -1.3125 0.546875 -3.109375q0 -2.75 -1.140625 -4.3125q-1.125 -1.578125 -3.375 -1.578125q-1.5 0 -2.53125 0.71875q-1.03125 0.703125 -1.578125 2.03125q-0.53125 1.3125 -0.53125 3.140625q0 2.703125 1.140625 4.28125q1.15625 1.5625 3.375 1.5625zm9.363037 -13.5l2.84375 0l4.796875 13.15625l-0.34375 0l4.7968903 -13.15625l2.84375 0l-6.109375 15.296875l-2.7187653 0l-6.109375 -15.296875zm24.048782 15.6875q-1.984375 0 -3.546875 -1.015625q-1.5625 -1.015625 -2.46875 -2.828125q-0.90625 -1.8125 -0.90625 -4.15625q0 -2.515625 0.890625 -4.328125q0.90625 -1.8125 2.46875 -2.78125q1.5625 -0.96875 3.5625 -0.96875q1.734375 0 2.96875 0.71875q1.234375 0.703125 1.984375 1.90625q0.75 1.1875 1.046875 2.703125q0.296875 1.515625 0.171875 3.125l-11.078125 0l0 -1.53125l9.4375 0l-0.734375 0.484375q0.046875 -0.953125 -0.109375 -1.890625q-0.15625 -0.953125 -0.578125 -1.734375q-0.40625 -0.796875 -1.15625 -1.265625q-0.75 -0.484375 -1.921875 -0.484375q-1.46875 0 -2.46875 0.75q-0.984375 0.75 -1.484375 1.96875q-0.5 1.21875 -0.5 2.65625l0 1.015625q0 1.609375 0.484375 2.875q0.5 1.25 1.46875 2.0q0.984375 0.734375 2.46875 0.734375q1.484375 0 2.4375 -0.71875q0.96875 -0.734375 1.171875 -2.140625l2.59375 0q-0.234375 1.53125 -1.09375 2.625q-0.84375 1.09375 -2.15625 1.6875q-1.3125 0.59375 -2.953125 0.59375zm16.619537 0q-2.21875 0 -3.71875 -0.625q-1.484375 -0.640625 -2.25 -1.75q-0.765625 -1.125 -0.8125 -2.5625l2.40625 0q0.078125 1.453125 1.171875 2.1875q1.09375 0.734375 2.984375 0.734375q0.984375 0 1.8125 -0.3125q0.84375 -0.328125 1.328125 -0.890625q0.5 -0.5625 0.5 -1.265625q0 -0.890625 -0.65625 -1.40625q-0.65625 -0.515625 -2.09375 -0.90625l-2.96875 -0.953125q-1.9375 -0.609375 -2.96875 -1.671875q-1.03125 -1.0625 -1.03125 -2.546875q0 -1.859375 1.625 -2.984375q1.640625 -1.125 4.296875 -1.125q2.8125 0 4.359375 1.15625q1.546875 1.15625 1.625 2.890625l-2.46875 0q-0.140625 -1.015625 -1.03125 -1.53125q-0.875 -0.53125 -2.484375 -0.53125q-1.5625 0 -2.4375 0.703125q-0.859375 0.703125 -0.859375 1.546875q0 1.578125 2.71875 2.328125l3.03125 1.03125q1.96875 0.59375 3.015625 1.5625q1.046875 0.953125 1.046875 2.4375q0 1.15625 -0.75 2.1875q-0.75 1.015625 -2.125 1.65625q-1.375 0.640625 -3.265625 0.640625zm18.916077 -0.390625l0 -20.09375l7.0 0q3.453125 0 5.21875 1.640625q1.765625 1.640625 1.765625 4.3125q0 2.640625 -1.765625 4.28125q-1.765625 1.640625 -5.21875 1.640625l-4.5 0l0 8.21875l-2.5 0zm11.265625 0l-5.765625 -9.125l2.71875 0l6.28125 9.125l-3.234375 0zm-8.765625 -9.984375l4.3125 0q2.25 0 3.421875 -1.109375q1.1875 -1.109375 1.1875 -2.890625q0 -1.828125 -1.125 -2.890625q-1.125 -1.078125 -3.296875 -1.078125l-4.5 0l0 7.96875zm17.037537 9.984375l0 -20.09375l6.453125 0q3.3125 0 5.0625 1.671875q1.765625 1.671875 1.765625 4.53125q0 2.828125 -1.765625 4.484375q-1.75 1.65625 -5.0625 1.65625l-3.921875 0l0 7.75l-2.53125 0zm2.53125 -9.921875l3.921875 0q2.109375 0 3.1875 -1.0625q1.078125 -1.078125 1.078125 -2.90625q0 -1.859375 -1.078125 -2.953125q-1.078125 -1.109375 -3.1875 -1.109375l-3.921875 0l0 8.03125zm22.305786 10.3125q-2.390625 0 -4.359375 -1.25q-1.96875 -1.25 -3.140625 -3.53125q-1.171875 -2.296875 -1.171875 -5.4375q0 -2.609375 0.75 -4.59375q0.765625 -1.984375 2.078125 -3.328125q1.3125 -1.34375 3.015625 -2.015625q1.703125 -0.6875 3.609375 -0.6875q2.34375 0 4.109375 0.96875q1.78125 0.96875 3.046875 3.0625l-2.359375 0.84375q-1.078125 -1.328125 -2.296875 -1.953125q-1.21875 -0.640625 -2.609375 -0.640625q-1.796875 0 -3.328125 1.015625q-1.515625 1.0 -2.4375 2.875q-0.921875 1.859375 -0.921875 4.453125q0 2.3125 0.75 4.09375q0.765625 1.78125 2.140625 2.796875q1.390625 1.015625 3.296875 1.015625q1.453125 0 2.609375 -0.671875q1.15625 -0.671875 1.828125 -2.015625q0.671875 -1.359375 0.671875 -3.421875l0.78125 0q0 2.5625 -0.609375 4.453125q-0.609375 1.875 -1.953125 2.921875q-1.328125 1.046875 -3.5 1.046875zm5.734375 -0.390625l-0.453125 -4.734375l0 -3.359375l-5.046875 -0.15625l0 -1.703125l7.484375 0l0 9.953125l-1.984375 0zm13.311157 0.390625q-2.21875 0 -3.71875 -0.625q-1.484375 -0.640625 -2.25 -1.75q-0.765625 -1.125 -0.8125 -2.5625l2.40625 0q0.078125 1.453125 1.171875 2.1875q1.09375 0.734375 2.984375 0.734375q0.984375 0 1.8125 -0.3125q0.84375 -0.328125 1.328125 -0.890625q0.5 -0.5625 0.5 -1.265625q0 -0.890625 -0.65625 -1.40625q-0.65625 -0.515625 -2.09375 -0.90625l-2.96875 -0.953125q-1.9375 -0.609375 -2.96875 -1.671875q-1.03125 -1.0625 -1.03125 -2.546875q0 -1.859375 1.625 -2.984375q1.640625 -1.125 4.296875 -1.125q2.8125 0 4.359375 1.15625q1.546875 1.15625 1.625 2.890625l-2.46875 0q-0.140625 -1.015625 -1.03125 -1.53125q-0.875 -0.53125 -2.484375 -0.53125q-1.5625 0 -2.4375 0.703125q-0.859375 0.703125 -0.859375 1.546875q0 1.578125 2.71875 2.328125l3.03125 1.03125q1.96875 0.59375 3.015625 1.5625q1.046875 0.953125 1.046875 2.4375q0 1.15625 -0.75 2.1875q-0.75 1.015625 -2.125 1.65625q-1.375 0.640625 -3.265625 0.640625zm10.925415 3.09375l-1.890625 -0.921875q0.921875 -0.46875 1.546875 -1.03125q0.640625 -0.5625 0.828125 -1.375q-0.6875 -0.078125 -1.1875 -0.484375q-0.484375 -0.421875 -0.484375 -1.109375q0 -0.671875 0.5 -1.15625q0.515625 -0.484375 1.296875 -0.484375q1.0 0 1.59375 0.734375q0.609375 0.71875 0.609375 1.703125q0 1.171875 -0.71875 2.296875q-0.703125 1.125 -2.09375 1.828125zm21.67865 -3.09375q-1.53125 0 -2.78125 -0.796875q-1.234375 -0.8125 -1.96875 -2.34375q-0.71875 -1.546875 -0.71875 -3.78125l0.96875 0q0 1.484375 0.609375 2.546875q0.609375 1.046875 1.578125 1.59375q0.984375 0.53125 2.0625 0.53125q1.234375 0 2.25 -0.703125q1.03125 -0.703125 1.640625 -2.015625q0.625 -1.3125 0.625 -3.140625q0 -1.78125 -0.609375 -3.0625q-0.609375 -1.296875 -1.640625 -1.984375q-1.03125 -0.703125 -2.296875 -0.703125q-1.09375 0 -2.0625 0.53125q-0.96875 0.53125 -1.5625 1.578125q-0.59375 1.046875 -0.59375 2.5625l-0.96875 0q0 -2.171875 0.703125 -3.703125q0.71875 -1.546875 1.984375 -2.359375q1.265625 -0.828125 2.953125 -0.828125q1.796875 0 3.3125 0.96875q1.515625 0.96875 2.421875 2.765625q0.921875 1.796875 0.921875 4.234375q0 2.46875 -0.9375 4.296875q-0.921875 1.8125 -2.484375 2.8125q-1.546875 1.0 -3.40625 1.0zm-7.0 -0.390625l0 -21.828125l2.5 0l0 18.25l-0.75 3.578125l-1.75 0zm29.350647 -15.328125l2.5 0l0 15.328125l-2.5 0l0 -15.328125zm-10.84375 0l2.5 0l0 9.53125q0 1.921875 0.9375 2.921875q0.9375 0.984375 2.671875 0.984375q1.453125 0 2.515625 -0.765625q1.0625 -0.765625 1.640625 -2.109375q0.578125 -1.359375 0.578125 -3.109375l0.9375 0q0 2.578125 -0.75 4.40625q-0.734375 1.828125 -2.09375 2.796875q-1.34375 0.953125 -3.171875 0.953125q-1.734375 0 -3.03125 -0.625q-1.296875 -0.640625 -2.015625 -1.9375q-0.71875 -1.3125 -0.71875 -3.3125l0 -9.734375zm24.532288 15.71875q-1.25 0 -2.25 -0.484375q-0.984375 -0.484375 -1.5625 -1.4375q-0.578125 -0.96875 -0.578125 -2.40625l0 -15.609375l2.46875 0l0 15.546875q0 2.375 2.203125 2.375q0.65625 0 1.265625 -0.140625q0.625 -0.15625 1.390625 -0.4375l0.359375 1.78125q-0.8125 0.359375 -1.625 0.578125q-0.8125 0.234375 -1.671875 0.234375zm-6.84375 -13.953125l0 -1.734375l9.75 0l0 1.734375l-9.75 0zm26.47583 13.953125q-1.25 0 -2.25 -0.484375q-0.984375 -0.484375 -1.5625 -1.4375q-0.578125 -0.96875 -0.578125 -2.40625l0 -15.609375l2.46875 0l0 15.546875q0 2.375 2.203125 2.375q0.65625 0 1.265625 -0.140625q0.625 -0.15625 1.390625 -0.4375l0.359375 1.78125q-0.8125 0.359375 -1.625 0.578125q-0.8125 0.234375 -1.671875 0.234375zm-6.84375 -13.953125l0 -1.734375l9.75 0l0 1.734375l-9.75 0zm25.047668 13.5625l0 -8.984375q0 -2.203125 -1.046875 -3.34375q-1.046875 -1.140625 -2.859375 -1.140625q-1.375 0 -2.390625 0.75q-1.0 0.75 -1.546875 2.15625q-0.53125 1.390625 -0.53125 3.328125l-0.96875 0q0 -2.671875 0.703125 -4.5625q0.703125 -1.890625 2.046875 -2.890625q1.359375 -1.0 3.296875 -1.0q1.8125 0 3.09375 0.8125q1.296875 0.8125 1.984375 2.3125q0.6875 1.5 0.6875 3.578125l0 8.984375l-2.46875 0zm-10.875 0l0 -21.828125l2.5 0l0 21.828125l-2.5 0zm24.624542 0.390625q-1.984375 0 -3.546875 -1.015625q-1.5625 -1.015625 -2.46875 -2.828125q-0.90625 -1.8125 -0.90625 -4.15625q0 -2.515625 0.890625 -4.328125q0.90625 -1.8125 2.46875 -2.78125q1.5625 -0.96875 3.5625 -0.96875q1.734375 0 2.96875 0.71875q1.234375 0.703125 1.984375 1.90625q0.75 1.1875 1.046875 2.703125q0.296875 1.515625 0.171875 3.125l-11.078125 0l0 -1.53125l9.4375 0l-0.734375 0.484375q0.046875 -0.953125 -0.109375 -1.890625q-0.15625 -0.953125 -0.578125 -1.734375q-0.40625 -0.796875 -1.15625 -1.265625q-0.75 -0.484375 -1.921875 -0.484375q-1.46875 0 -2.46875 0.75q-0.984375 0.75 -1.484375 1.96875q-0.5 1.21875 -0.5 2.65625l0 1.015625q0 1.609375 0.484375 2.875q0.5 1.25 1.46875 2.0q0.984375 0.734375 2.46875 0.734375q1.484375 0 2.4375 -0.71875q0.96875 -0.734375 1.171875 -2.140625l2.59375 0q-0.234375 1.53125 -1.09375 2.625q-0.84375 1.09375 -2.15625 1.6875q-1.3125 0.59375 -2.953125 0.59375zm8.588287 -15.6875l2.78125 0l5.0 13.125l-0.578125 0l3.875 -13.125l2.5625 0l-5.765625 18.375q-0.71875 2.296875 -1.921875 3.546875q-1.203125 1.25 -3.078125 1.25q-1.0 0 -1.90625 -0.296875q-0.90625 -0.28125 -1.859375 -0.828125l0 -2.296875q0.84375 0.671875 1.625 0.953125q0.796875 0.296875 1.671875 0.296875q0.953125 0 1.59375 -0.609375q0.65625 -0.609375 1.078125 -1.5625q0.4375 -0.953125 0.75 -2.0l0.4375 -1.53125l-6.265625 -15.296875zm16.458557 1.890625l-1.78125 -0.96875q0.90625 -0.453125 1.53125 -1.03125q0.640625 -0.59375 0.828125 -1.359375q-0.71875 -0.078125 -1.203125 -0.5q-0.484375 -0.421875 -0.484375 -1.109375q0 -0.703125 0.515625 -1.171875q0.53125 -0.484375 1.34375 -0.484375q0.671875 0 1.140625 0.34375q0.484375 0.34375 0.734375 0.921875q0.265625 0.5625 0.265625 1.265625q0 1.140625 -0.765625 2.25q-0.75 1.09375 -2.125 1.84375zm7.768738 13.40625l0 -15.328125l2.5 0l0 15.328125l-2.5 0zm1.71875 -6.90625q0 -2.921875 0.5625 -4.84375q0.5625 -1.9375 1.640625 -2.875q1.078125 -0.953125 2.640625 -0.953125q0.5 0 0.921875 0.078125q0.4375 0.0625 0.859375 0.203125l-0.15625 2.46875q-0.453125 -0.140625 -0.984375 -0.25q-0.515625 -0.109375 -0.9375 -0.109375q-1.359375 0 -2.1875 0.78125q-0.828125 0.78125 -1.203125 2.1875q-0.375 1.40625 -0.375 3.3125l-0.78125 0zm15.161743 7.296875q-1.984375 0 -3.546875 -1.015625q-1.5625 -1.015625 -2.46875 -2.828125q-0.90625 -1.8125 -0.90625 -4.15625q0 -2.515625 0.890625 -4.328125q0.90625 -1.8125 2.46875 -2.78125q1.5625 -0.96875 3.5625 -0.96875q1.734375 0 2.96875 0.71875q1.234375 0.703125 1.984375 1.90625q0.75 1.1875 1.046875 2.703125q0.296875 1.515625 0.171875 3.125l-11.078125 0l0 -1.53125l9.4375 0l-0.734375 0.484375q0.046875 -0.953125 -0.109375 -1.890625q-0.15625 -0.953125 -0.578125 -1.734375q-0.40625 -0.796875 -1.15625 -1.265625q-0.75 -0.484375 -1.921875 -0.484375q-1.46875 0 -2.46875 0.75q-0.984375 0.75 -1.484375 1.96875q-0.5 1.21875 -0.5 2.65625l0 1.015625q0 1.609375 0.484375 2.875q0.5 1.25 1.46875 2.0q0.984375 0.734375 2.46875 0.734375q1.484375 0 2.4375 -0.71875q0.96875 -0.734375 1.171875 -2.140625l2.59375 0q-0.234375 1.53125 -1.09375 2.625q-0.84375 1.09375 -2.15625 1.6875q-1.3125 0.59375 -2.953125 0.59375zm24.250854 0q-2.0625 0 -3.671875 -0.90625q-1.609375 -0.921875 -2.546875 -2.71875q-0.921875 -1.796875 -0.921875 -4.40625q0 -2.640625 0.921875 -4.421875q0.9375 -1.796875 2.546875 -2.703125q1.609375 -0.921875 3.671875 -0.921875q2.046875 0 3.65625 0.921875q1.609375 0.90625 2.53125 2.703125q0.921875 1.78125 0.921875 4.421875q0 2.609375 -0.921875 4.40625q-0.921875 1.796875 -2.53125 2.71875q-1.609375 0.90625 -3.65625 0.90625zm-0.0625 -2.1875q1.484375 0 2.515625 -0.703125q1.046875 -0.71875 1.578125 -2.03125q0.546875 -1.3125 0.546875 -3.109375q0 -2.75 -1.140625 -4.3125q-1.125 -1.578125 -3.375 -1.578125q-1.5 0 -2.53125 0.71875q-1.03125 0.703125 -1.578125 2.03125q-0.53125 1.3125 -0.53125 3.140625q0 2.703125 1.140625 4.28125q1.15625 1.5625 3.375 1.5625zm22.409912 -13.53125l2.5 0l0 15.328125l-2.5 0l0 -15.328125zm-10.84375 0l2.5 0l0 9.53125q0 1.921875 0.9375 2.921875q0.9375 0.984375 2.671875 0.984375q1.453125 0 2.515625 -0.765625q1.0625 -0.765625 1.640625 -2.109375q0.578125 -1.359375 0.578125 -3.109375l0.9375 0q0 2.578125 -0.75 4.40625q-0.734375 1.828125 -2.09375 2.796875q-1.34375 0.953125 -3.171875 0.953125q-1.734375 0 -3.03125 -0.625q-1.296875 -0.640625 -2.015625 -1.9375q-0.71875 -1.3125 -0.71875 -3.3125l0 -9.734375zm24.532288 15.71875q-1.25 0 -2.25 -0.484375q-0.984375 -0.484375 -1.5625 -1.4375q-0.578125 -0.96875 -0.578125 -2.40625l0 -15.609375l2.46875 0l0 15.546875q0 2.375 2.203125 2.375q0.65625 0 1.265625 -0.140625q0.625 -0.15625 1.390625 -0.4375l0.359375 1.78125q-0.8125 0.359375 -1.625 0.578125q-0.8125 0.234375 -1.671875 0.234375zm-6.84375 -13.953125l0 -1.734375l9.75 0l0 1.734375l-9.75 0zm27.303955 13.953125q-2.0625 0 -3.671875 -0.90625q-1.609375 -0.921875 -2.546875 -2.71875q-0.921875 -1.796875 -0.921875 -4.40625q0 -2.640625 0.921875 -4.421875q0.9375 -1.796875 2.546875 -2.703125q1.609375 -0.921875 3.671875 -0.921875q2.046875 0 3.65625 0.921875q1.609375 0.90625 2.53125 2.703125q0.921875 1.78125 0.921875 4.421875q0 2.609375 -0.921875 4.40625q-0.921875 1.796875 -2.53125 2.71875q-1.609375 0.90625 -3.65625 0.90625zm-0.0625 -2.1875q1.484375 0 2.515625 -0.703125q1.046875 -0.71875 1.578125 -2.03125q0.546875 -1.3125 0.546875 -3.109375q0 -2.75 -1.140625 -4.3125q-1.125 -1.578125 -3.375 -1.578125q-1.5 0 -2.53125 0.71875q-1.03125 0.703125 -1.578125 2.03125q-0.53125 1.3125 -0.53125 3.140625q0 2.703125 1.140625 4.28125q1.15625 1.5625 3.375 1.5625zm12.847412 1.796875l0 -17.65625q0 -1.53125 0.578125 -2.5q0.59375 -0.96875 1.578125 -1.421875q0.984375 -0.46875 2.203125 -0.46875q0.65625 0 1.328125 0.09375q0.6875 0.09375 1.359375 0.296875l-0.484375 1.96875q-0.484375 -0.1875 -0.953125 -0.28125q-0.46875 -0.09375 -0.90625 -0.09375q-0.515625 0 -1.03125 0.1875q-0.5 0.1875 -0.84375 0.71875q-0.328125 0.53125 -0.328125 1.53125l0 17.625l-2.5 0zm-2.5 -13.5625l0 -1.734375l8.171875 0l0 1.734375l-8.171875 0zm25.731934 13.953125q-2.21875 0 -3.71875 -0.625q-1.484375 -0.640625 -2.25 -1.75q-0.765625 -1.125 -0.8125 -2.5625l2.40625 0q0.078125 1.453125 1.171875 2.1875q1.09375 0.734375 2.984375 0.734375q0.984375 0 1.8125 -0.3125q0.84375 -0.328125 1.328125 -0.890625q0.5 -0.5625 0.5 -1.265625q0 -0.890625 -0.65625 -1.40625q-0.65625 -0.515625 -2.09375 -0.90625l-2.96875 -0.953125q-1.9375 -0.609375 -2.96875 -1.671875q-1.03125 -1.0625 -1.03125 -2.546875q0 -1.859375 1.625 -2.984375q1.640625 -1.125 4.296875 -1.125q2.8125 0 4.359375 1.15625q1.546875 1.15625 1.625 2.890625l-2.46875 0q-0.140625 -1.015625 -1.03125 -1.53125q-0.875 -0.53125 -2.484375 -0.53125q-1.5625 0 -2.4375 0.703125q-0.859375 0.703125 -0.859375 1.546875q0 1.578125 2.71875 2.328125l3.03125 1.03125q1.96875 0.59375 3.015625 1.5625q1.046875 0.953125 1.046875 2.4375q0 1.15625 -0.75 2.1875q-0.75 1.015625 -2.125 1.65625q-1.375 0.640625 -3.265625 0.640625zm16.69104 0q-1.84375 0 -3.4375 -0.984375q-1.59375 -1.0 -2.578125 -2.8125q-0.96875 -1.8125 -0.96875 -4.28125q0 -2.515625 0.96875 -4.3125q0.984375 -1.796875 2.578125 -2.734375q1.59375 -0.953125 3.4375 -0.953125q1.296875 0 2.328125 0.40625q1.03125 0.390625 1.796875 1.078125q0.765625 0.6875 1.265625 1.5625q0.515625 0.859375 0.75 1.828125l-2.5625 0.21875q-0.390625 -1.328125 -1.328125 -2.09375q-0.9375 -0.78125 -2.28125 -0.78125q-1.140625 0 -2.140625 0.65625q-1.0 0.640625 -1.625 1.9375q-0.625 1.28125 -0.625 3.1875q0 1.78125 0.5625 3.09375q0.578125 1.296875 1.5625 2.015625q1.0 0.71875 2.265625 0.71875q1.78125 0 2.6875 -0.859375q0.921875 -0.875 0.921875 -2.4375l2.5625 0q0 1.609375 -0.75 2.859375q-0.75 1.234375 -2.140625 1.96875q-1.375 0.71875 -3.25 0.71875zm16.668274 0q-2.0625 0 -3.671875 -0.90625q-1.609375 -0.921875 -2.546875 -2.71875q-0.921875 -1.796875 -0.921875 -4.40625q0 -2.640625 0.921875 -4.421875q0.9375 -1.796875 2.546875 -2.703125q1.609375 -0.921875 3.671875 -0.921875q2.046875 0 3.65625 0.921875q1.609375 0.90625 2.53125 2.703125q0.921875 1.78125 0.921875 4.421875q0 2.609375 -0.921875 4.40625q-0.921875 1.796875 -2.53125 2.71875q-1.609375 0.90625 -3.65625 0.90625zm-0.0625 -2.1875q1.484375 0 2.515625 -0.703125q1.046875 -0.71875 1.578125 -2.03125q0.546875 -1.3125 0.546875 -3.109375q0 -2.75 -1.140625 -4.3125q-1.125 -1.578125 -3.375 -1.578125q-1.5 0 -2.53125 0.71875q-1.03125 0.703125 -1.578125 2.03125q-0.53125 1.3125 -0.53125 3.140625q0 2.703125 1.140625 4.28125q1.15625 1.5625 3.375 1.5625zm18.956787 2.1875q-1.671875 0 -2.921875 -0.765625q-1.234375 -0.78125 -1.90625 -2.25q-0.671875 -1.484375 -0.671875 -3.609375l1.0625 0q0 1.421875 0.578125 2.40625q0.59375 0.96875 1.546875 1.46875q0.953125 0.5 2.03125 0.5q1.15625 0 2.203125 -0.65625q1.0625 -0.671875 1.734375 -1.96875q0.671875 -1.296875 0.671875 -3.203125q0 -1.8125 -0.625 -3.109375q-0.609375 -1.296875 -1.65625 -1.984375q-1.03125 -0.6875 -2.296875 -0.6875q-1.09375 0 -2.0625 0.53125q-0.953125 0.515625 -1.546875 1.53125q-0.578125 1.015625 -0.578125 2.515625l-1.0625 0q0 -2.234375 0.734375 -3.734375q0.734375 -1.515625 2.0 -2.28125q1.265625 -0.78125 2.828125 -0.78125q1.796875 0 3.34375 0.96875q1.5625 0.953125 2.515625 2.75q0.96875 1.796875 0.96875 4.28125q0 2.53125 -0.96875 4.34375q-0.96875 1.8125 -2.546875 2.78125q-1.5625 0.953125 -3.375 0.953125zm-6.9375 7.125l0 -22.8125l2.078125 0l0.421875 3.578125l0 19.234375l-2.5 0zm24.01654 -7.125q-1.984375 0 -3.546875 -1.015625q-1.5625 -1.015625 -2.46875 -2.828125q-0.90625 -1.8125 -0.90625 -4.15625q0 -2.515625 0.890625 -4.328125q0.90625 -1.8125 2.46875 -2.78125q1.5625 -0.96875 3.5625 -0.96875q1.734375 0 2.96875 0.71875q1.234375 0.703125 1.984375 1.90625q0.75 1.1875 1.046875 2.703125q0.296875 1.515625 0.171875 3.125l-11.078125 0l0 -1.53125l9.4375 0l-0.734375 0.484375q0.046875 -0.953125 -0.109375 -1.890625q-0.15625 -0.953125 -0.578125 -1.734375q-0.40625 -0.796875 -1.15625 -1.265625q-0.75 -0.484375 -1.921875 -0.484375q-1.46875 0 -2.46875 0.75q-0.984375 0.75 -1.484375 1.96875q-0.5 1.21875 -0.5 2.65625l0 1.015625q0 1.609375 0.484375 2.875q0.5 1.25 1.46875 2.0q0.984375 0.734375 2.46875 0.734375q1.484375 0 2.4375 -0.71875q0.96875 -0.734375 1.171875 -2.140625l2.59375 0q-0.234375 1.53125 -1.09375 2.625q-0.84375 1.09375 -2.15625 1.6875q-1.3125 0.59375 -2.953125 0.59375z" fill-rule="nonzero"/><path fill="#abe33f" d="m24.461615 713.71106l19.374998 0l-7.375 -7.375l6.125 0l9.875 9.625l-9.875 9.625l-6.125 0l7.375 -7.375l-19.374998 0l0 -4.5z" fill-rule="nonzero"/><path fill="#004c52" d="m81.25849 727.46106l0 -20.09375l6.453125 0q3.3125 0 5.0625 1.671875q1.765625 1.671875 1.765625 4.53125q0 2.828125 -1.765625 4.484375q-1.75 1.65625 -5.0625 1.65625l-3.921875 0l0 7.75l-2.53125 0zm2.53125 -9.921875l3.921875 0q2.109375 0 3.1875 -1.0625q1.078125 -1.078125 1.078125 -2.90625q0 -1.859375 -1.078125 -2.953125q-1.078125 -1.109375 -3.1875 -1.109375l-3.921875 0l0 8.03125zm25.633911 -5.40625l2.5 0l0 15.328125l-2.5 0l0 -15.328125zm-10.84375 0l2.5 0l0 9.53125q0 1.921875 0.9375 2.921875q0.9375 0.984375 2.671875 0.984375q1.453125 0 2.515625 -0.765625q1.0625 -0.765625 1.640625 -2.109375q0.578125 -1.359375 0.578125 -3.109375l0.9375 0q0 2.578125 -0.75 4.40625q-0.734375 1.828125 -2.09375 2.796875q-1.34375 0.953125 -3.171875 0.953125q-1.734375 0 -3.03125 -0.625q-1.296875 -0.640625 -2.015625 -1.9375q-0.71875 -1.3125 -0.71875 -3.3125l0 -9.734375zm18.297913 15.328125l0 -2.015625l9.015625 -11.265625l-9.015625 0l0 -2.015625l11.828117 0l0 2.015625l-8.890617 11.265625l8.890617 0l0 2.015625l-11.828117 0zm15.184029 0l0 -2.015625l9.015625 -11.265625l-9.015625 0l0 -2.015625l11.828125 0l0 2.015625l-8.890625 11.265625l8.890625 0l0 2.015625l-11.828125 0zm16.715286 0l0 -21.828125l2.5 0l0 21.828125l-2.5 0zm14.272522 0.390625q-1.984375 0 -3.546875 -1.015625q-1.5625 -1.015625 -2.46875 -2.828125q-0.90625 -1.8125 -0.90625 -4.15625q0 -2.515625 0.890625 -4.328125q0.90625 -1.8125 2.46875 -2.78125q1.5625 -0.96875 3.5625 -0.96875q1.734375 0 2.96875 0.71875q1.234375 0.703125 1.984375 1.90625q0.75 1.1875 1.046875 2.703125q0.296875 1.515625 0.171875 3.125l-11.078125 0l0 -1.53125l9.4375 0l-0.734375 0.484375q0.046875 -0.953125 -0.109375 -1.890625q-0.15625 -0.953125 -0.578125 -1.734375q-0.40625 -0.796875 -1.15625 -1.265625q-0.75 -0.484375 -1.921875 -0.484375q-1.46875 0 -2.46875 0.75q-0.984375 0.75 -1.484375 1.96875q-0.5 1.21875 -0.5 2.65625l0 1.015625q0 1.609375 0.484375 2.875q0.5 1.25 1.46875 2.0q0.984375 0.734375 2.46875 0.734375q1.484375 0 2.4375 -0.71875q0.96875 -0.734375 1.171875 -2.140625l2.59375 0q-0.234375 1.53125 -1.09375 2.625q-0.84375 1.09375 -2.15625 1.6875q-1.3125 0.59375 -2.953125 0.59375zm18.719559 -20.484375l3.578125 0l6.921875 13.890625l-0.265625 0l6.921875 -13.890625l3.484375 0l0 20.09375l-2.53125 0l0 -17.5l0.453125 0l-7.359375 14.96875l-1.671875 0l-7.328125 -14.875l0.296875 0l0 17.40625l-2.5 0l0 -20.09375zm32.41655 20.484375q-1.984375 0 -3.546875 -1.015625q-1.5625 -1.015625 -2.46875 -2.828125q-0.90625 -1.8125 -0.90625 -4.15625q0 -2.515625 0.890625 -4.328125q0.90625 -1.8125 2.46875 -2.78125q1.5625 -0.96875 3.5625 -0.96875q1.734375 0 2.96875 0.71875q1.234375 0.703125 1.984375 1.90625q0.75 1.1875 1.046875 2.703125q0.296875 1.515625 0.171875 3.125l-11.078125 0l0 -1.53125l9.4375 0l-0.734375 0.484375q0.046875 -0.953125 -0.109375 -1.890625q-0.15625 -0.953125 -0.578125 -1.734375q-0.40625 -0.796875 -1.15625 -1.265625q-0.75 -0.484375 -1.921875 -0.484375q-1.46875 0 -2.46875 0.75q-0.984375 0.75 -1.484375 1.96875q-0.5 1.21875 -0.5 2.65625l0 1.015625q0 1.609375 0.484375 2.875q0.5 1.25 1.46875 2.0q0.984375 0.734375 2.46875 0.734375q1.484375 0 2.4375 -0.71875q0.96875 -0.734375 1.171875 -2.140625l2.59375 0q-0.234375 1.53125 -1.09375 2.625q-0.84375 1.09375 -2.15625 1.6875q-1.3125 0.59375 -2.953125 0.59375zm16.494537 0q-1.84375 0 -3.4375 -0.984375q-1.59375 -1.0 -2.578125 -2.8125q-0.96875 -1.8125 -0.96875 -4.28125q0 -2.515625 0.96875 -4.3125q0.984375 -1.796875 2.578125 -2.734375q1.59375 -0.953125 3.4375 -0.953125q1.296875 0 2.328125 0.40625q1.03125 0.390625 1.796875 1.078125q0.765625 0.6875 1.265625 1.5625q0.515625 0.859375 0.75 1.828125l-2.5625 0.21875q-0.390625 -1.328125 -1.328125 -2.09375q-0.9375 -0.78125 -2.28125 -0.78125q-1.140625 0 -2.140625 0.65625q-1.0 0.640625 -1.625 1.9375q-0.625 1.28125 -0.625 3.1875q0 1.78125 0.5625 3.09375q0.578125 1.296875 1.5625 2.015625q1.0 0.71875 2.265625 0.71875q1.78125 0 2.6875 -0.859375q0.921875 -0.875 0.921875 -2.4375l2.5625 0q0 1.609375 -0.75 2.859375q-0.75 1.234375 -2.140625 1.96875q-1.375 0.71875 -3.25 0.71875zm22.01204 -0.390625l0 -8.984375q0 -2.203125 -1.046875 -3.34375q-1.046875 -1.140625 -2.859375 -1.140625q-1.375 0 -2.390625 0.75q-1.0 0.75 -1.546875 2.15625q-0.53125 1.390625 -0.53125 3.328125l-0.96875 0q0 -2.671875 0.703125 -4.5625q0.703125 -1.890625 2.046875 -2.890625q1.359375 -1.0 3.296875 -1.0q1.8125 0 3.09375 0.8125q1.296875 0.8125 1.984375 2.3125q0.6875 1.5 0.6875 3.578125l0 8.984375l-2.46875 0zm-10.875 0l0 -21.828125l2.5 0l0 21.828125l-2.5 0zm28.780807 0l-0.3125 -3.359375l0 -6.5625q0 -2.0625 -0.890625 -2.96875q-0.875 -0.90625 -2.640625 -0.90625q-0.984375 0 -1.796875 0.296875q-0.8125 0.28125 -1.28125 0.890625q-0.46875 0.59375 -0.46875 1.53125l-2.78125 0q0 -1.65625 0.8125 -2.671875q0.8125 -1.015625 2.25 -1.46875q1.4375 -0.46875 3.265625 -0.46875q1.765625 0 3.125 0.59375q1.359375 0.59375 2.125 1.890625q0.765625 1.28125 0.765625 3.34375l0 9.859375l-2.171875 0zm-5.21875 0.390625q-1.890625 0 -3.125 -0.671875q-1.21875 -0.671875 -1.828125 -1.75q-0.609375 -1.078125 -0.609375 -2.25q0 -1.5625 0.765625 -2.53125q0.78125 -0.984375 2.125 -1.4375q1.34375 -0.453125 3.03125 -0.453125q1.203125 0 2.40625 0.25q1.203125 0.234375 2.359375 0.640625l0 1.578125q-0.96875 -0.390625 -2.171875 -0.609375q-1.203125 -0.234375 -2.21875 -0.234375q-1.53125 0 -2.59375 0.640625q-1.046875 0.625 -1.046875 2.15625q0 1.109375 0.796875 1.921875q0.8125 0.796875 2.59375 0.796875q1.25 0 2.25 -0.578125q1.0 -0.59375 1.578125 -1.46875q0.59375 -0.890625 0.59375 -1.765625l0.59375 0q0 1.53125 -0.671875 2.84375q-0.65625 1.3125 -1.890625 2.125q-1.21875 0.796875 -2.9375 0.796875zm24.241028 -0.390625l0 -8.984375q0 -2.203125 -1.046875 -3.34375q-1.046875 -1.140625 -2.859375 -1.140625q-1.375 0 -2.390625 0.75q-1.0 0.75 -1.546875 2.15625q-0.53125 1.390625 -0.53125 3.328125l-0.96875 0q0 -2.671875 0.703125 -4.5625q0.703125 -1.890625 2.046875 -2.890625q1.359375 -1.0 3.296875 -1.0q1.8125 0 3.09375 0.8125q1.296875 0.8125 1.984375 2.3125q0.6875 1.5 0.6875 3.578125l0 8.984375l-2.46875 0zm-10.875 0l0 -15.296875l2.140625 0l0.359375 3.515625l0 11.78125l-2.5 0zm20.718292 -18.90625q-0.765625 0 -1.21875 -0.4375q-0.453125 -0.453125 -0.453125 -1.171875q0 -0.703125 0.453125 -1.109375q0.453125 -0.421875 1.21875 -0.421875q0.765625 0 1.203125 0.421875q0.453125 0.40625 0.453125 1.109375q0 0.71875 -0.453125 1.171875q-0.4375 0.4375 -1.203125 0.4375zm-1.25 18.90625l0 -15.328125l2.5 0l0 15.328125l-2.5 0zm14.754791 0.390625q-1.84375 0 -3.4375 -0.984375q-1.59375 -1.0 -2.578125 -2.8125q-0.96875 -1.8125 -0.96875 -4.28125q0 -2.515625 0.96875 -4.3125q0.984375 -1.796875 2.578125 -2.734375q1.59375 -0.953125 3.4375 -0.953125q1.296875 0 2.328125 0.40625q1.03125 0.390625 1.796875 1.078125q0.765625 0.6875 1.265625 1.5625q0.515625 0.859375 0.75 1.828125l-2.5625 0.21875q-0.390625 -1.328125 -1.328125 -2.09375q-0.9375 -0.78125 -2.28125 -0.78125q-1.140625 0 -2.140625 0.65625q-1.0 0.640625 -1.625 1.9375q-0.625 1.28125 -0.625 3.1875q0 1.78125 0.5625 3.09375q0.578125 1.296875 1.5625 2.015625q1.0 0.71875 2.265625 0.71875q1.78125 0 2.6875 -0.859375q0.921875 -0.875 0.921875 -2.4375l2.5625 0q0 1.609375 -0.75 2.859375q-0.75 1.234375 -2.140625 1.96875q-1.375 0.71875 -3.25 0.71875zm16.637024 0q-2.21875 0 -3.71875 -0.625q-1.484375 -0.640625 -2.25 -1.75q-0.765625 -1.125 -0.8125 -2.5625l2.40625 0q0.078125 1.453125 1.171875 2.1875q1.09375 0.734375 2.984375 0.734375q0.984375 0 1.8125 -0.3125q0.84375 -0.328125 1.328125 -0.890625q0.5 -0.5625 0.5 -1.265625q0 -0.890625 -0.65625 -1.40625q-0.65625 -0.515625 -2.09375 -0.90625l-2.96875 -0.953125q-1.9375 -0.609375 -2.96875 -1.671875q-1.03125 -1.0625 -1.03125 -2.546875q0 -1.859375 1.625 -2.984375q1.640625 -1.125 4.296875 -1.125q2.8125 0 4.359375 1.15625q1.546875 1.15625 1.625 2.890625l-2.46875 0q-0.140625 -1.015625 -1.03125 -1.53125q-0.875 -0.53125 -2.484375 -0.53125q-1.5625 0 -2.4375 0.703125q-0.859375 0.703125 -0.859375 1.546875q0 1.578125 2.71875 2.328125l3.03125 1.03125q1.96875 0.59375 3.015625 1.5625q1.046875 0.953125 1.046875 2.4375q0 1.15625 -0.75 2.1875q-0.75 1.015625 -2.125 1.65625q-1.375 0.640625 -3.265625 0.640625zm13.737915 -5.515625l0 -1.4375q0 -1.390625 0.296875 -2.28125q0.296875 -0.90625 0.984375 -1.5625q0.6875 -0.65625 1.890625 -1.3125q1.078125 -0.5625 1.71875 -1.0625q0.640625 -0.5 0.921875 -1.078125q0.28125 -0.578125 0.28125 -1.40625q0 -1.25 -1.015625 -2.078125q-1.015625 -0.828125 -2.796875 -0.828125q-1.96875 0 -3.015625 0.78125q-1.03125 0.765625 -1.3125 2.15625l-2.65625 0q0.234375 -2.328125 1.96875 -3.765625q1.734375 -1.453125 4.953125 -1.453125q2.046875 0 3.515625 0.71875q1.484375 0.703125 2.28125 1.90625q0.796875 1.1875 0.796875 2.625q0 1.65625 -0.84375 2.765625q-0.828125 1.109375 -2.6875 2.09375q-1.0625 0.59375 -1.6875 1.109375q-0.609375 0.5 -0.875 1.15625q-0.25 0.640625 -0.25 1.671875l0 1.28125l-2.46875 0zm1.28125 5.515625q-0.796875 0 -1.328125 -0.515625q-0.515625 -0.53125 -0.515625 -1.265625q0 -0.75 0.515625 -1.296875q0.515625 -0.546875 1.3125 -0.546875q0.8125 0 1.375 0.546875q0.5625 0.53125 0.5625 1.28125q0 0.734375 -0.5625 1.265625q-0.546875 0.53125 -1.359375 0.53125z" fill-rule="nonzero"/></g></svg>