<svg version="1.1" viewBox="0.0 0.0 816.0 1056.0" fill="none" stroke="none" stroke-linecap="square" stroke-miterlimit="10" xmlns:xlink="http://www.w3.org/1999/xlink" xmlns="http://www.w3.org/2000/svg"><clipPath id="p.0"><path d="m0 0l816.0 0l0 1056.0l-816.0 0l0 -1056.0z" clip-rule="nonzero"/></clipPath><g clip-path="url(#p.0)"><path fill="#004c52" d="m0 0l816.0 0l0 1056.0l-816.0 0z" fill-rule="evenodd"/><path fill="#00ae9d" fill-opacity="0.8346" d="m817.0776 404.9549l0 319.1772l-215.30432 261.01172l-601.2356 -204.33618l0 -471.30728l205.07756 -247.58467z" fill-rule="evenodd"/><path fill="#00ae9d" fill-opacity="0.2654" d="m815.4869 219.759l-169.03845 -63.728943l-646.9749 284.46536l0 369.89587l158.23608 119.62518l657.7773 -146.46979z" fill-rule="evenodd"/><path fill="#abe33f" fill-opacity="0.8115" d="m0.53766406 277.3912l-0.53766406 435.42062l817.0776 157.72113l0 -570.2223z" fill-rule="evenodd"/><path fill="#000000" fill-opacity="0.0" d="m22.724411 373.4882l770.55115 0l0 238.11026l-770.55115 0z" fill-rule="evenodd"/><path fill="#ffffff" d="m236.90971 456.2758l0 10.859375l-33.0 0l-1.578125 7.46875l25.921875 0l0 54.18753l-11.203125 0l0 -4.328125l-36.796875 0l0 5.671875l-11.203125 0l0 -55.53128l21.640625 0l1.359375 -7.46875l-32.65625 0l0 -10.859375l77.515625 0zm-56.65625 48.1875l0 10.1406555l36.796875 0l0 -10.1406555l-36.796875 0zm36.796875 -9.859375l0 -10.140625l-36.796875 0l0 10.140625l36.796875 0z" fill-rule="nonzero"/><path fill="#ffffff" d="m273.3572 516.0102q-2.0625 -8.7031555 -4.859375 -14.2812805l9.5625 -3.515625q3.921875 6.53125 5.21875 14.3281555l-9.921875 3.46875zm31.28125 1.609375q-20.59375 6.125 -33.765625 8.578125q-0.640625 4.546875 -4.84375 0.421875l-2.625 -10.125q10.9375 -1.21875 20.734375 -3.28125l3.453125 -15.8125305l9.53125 1.296875q4.25 4.25 -0.484375 4.921875l-2.40625 7.421875q1.9375 -0.375 8.78125 -2.671875l1.625 9.2500305zm25.546875 -15.8281555l-16.796875 0l0 4.140625l16.796875 0l0 -4.140625zm0 -12.328125l-16.796875 0l0 3.46875l16.796875 0l0 -3.46875zm-2.921875 23.09378q7.5 5.546875 17.53125 8.765625l-4.96875 9.890625q-10.078125 -3.625 -18.640625 -10.546875l6.078125 -8.109375zm-33.71875 9.265625q12.046875 -3.09375 21.15625 -8.796875l4.625 5.890625q4.859375 5.8125 -2.671875 4.328125q-9.0 5.765625 -19.078125 8.1875l-4.03125 -9.609375zm10.640625 -7.03125l0 -45.859406l11.75 0l1.078125 -4.125l-14.15625 0l0 -9.875l39.53125 0l0 9.875l-14.234375 0l-1.609375 4.125l12.84375 0l0 45.859406l-35.203125 0zm26.0 -36.984406l-16.796875 0l0 2.796875l16.796875 0l0 -2.796875zm-52.453125 0.65625l0 8.796875l11.796875 0l0 -8.796875l-11.796875 0zm21.0 20.0l-9.203125 0l0 -2.328125l-11.796875 0l0 3.65625l-9.203125 0l0 -30.1875l30.203125 0l0 28.859375zm3.65625 -42.1875l0 9.859375l-37.53125 0l0 -9.859375l37.53125 0z" fill-rule="nonzero"/><path fill="#ffffff" d="m370.0547 472.80704q23.328125 -5.671875 35.21875 -22.328125l9.296875 1.21875q4.296875 4.234375 0.703125 4.125q12.015625 10.265625 34.265625 15.640625l-4.09375 9.6875q-17.171875 -4.84375 -21.25 -8.109375l0 2.765625l-28.859375 0l0 -2.203125q-5.78125 4.390625 -21.640625 8.53125l-3.640625 -9.328125zm13.28125 2.796875l54.1875 0l0 28.859375l-43.984375 0q0 14.8437805 -16.921875 26.37503l-5.984375 -8.984375q12.703125 -8.125 12.703125 -20.15628l0 -26.09375zm18.859375 38.859406l0 4.796875l26.140625 0l0 -4.796875l-26.140625 0zm-10.1875 -8.8594055l46.515625 0l0 24.53128l-10.1875 0l0 -2.0l-26.140625 0l0 3.0l-10.1875 0l0 -25.53128zm35.328125 -11.140625l-33.796875 0l0 1.140625l33.796875 0l0 -1.140625zm0 -10.0l-33.796875 0l0 1.140625l33.796875 0l0 -1.140625zm-12.09375 -17.53125q-2.609375 -1.859375 -6.171875 -5.203125q-2.6875 3.890625 -4.5 5.203125l10.671875 0z" fill-rule="nonzero"/><path fill="#ffffff" d="m521.0803 450.93204q7.671875 1.546875 1.921875 5.375l0 1.96875l30.0 0l0 8.859375l-61.328156 0l0 35.234375q0 16.96878 -9.640625 28.62503l-7.796875 -7.8125q7.234375 -9.40625 7.234375 -23.15628l0 -41.75l30.34375 0l0 -7.34375l9.2656555 0zm-5.28125 20.0l0 -4.65625l8.21875 0q7.25 0.890625 1.984375 4.671875l0 -0.015625l25.0 0l0 8.875l-25.0 0l0 1.125l18.328125 0l0 27.859375l-18.328125 0l0 1.8125l29.0 0l0 8.8594055l-29.0 0l0 11.328125l-10.203125 0l0 -11.328125l-25.65628 0l0 -8.8594055l25.65628 0l0 -1.8125l-7.5625305 0l-11.09375 0l0 -27.859375l18.65628 0l0 -1.125l-21.65628 0l0 -8.875l21.65628 0zm19.34375 18.859375l-9.140625 0l0 1.140625l9.140625 0l0 -1.140625zm-19.34375 0l-9.4531555 0l0 1.140625l9.4531555 0l0 -1.140625zm0 8.671875l-9.4531555 0l0 1.46875l9.4531555 0l0 -1.46875zm19.34375 0l-9.140625 0l0 1.46875l9.140625 0l0 -1.46875z" fill-rule="nonzero"/><path fill="#ffffff" d="m635.77783 481.7914q6.140625 5.328125 25.46875 11.046875l-3.359375 11.0625q-8.65625 -2.609375 -8.84375 -2.859375l0.09375 29.421906l-10.1875 0l0 -3.328125l-34.46875 0l0 4.328125l-10.203125 0l0 -29.640656q-0.84375 0.5 -9.0625 2.96875l-5.484375 -9.484375q18.78125 -5.515625 27.703125 -13.515625l-24.484375 0l0 -9.859375l16.390625 0q-1.03125 -1.484375 -4.546875 -5.59375l8.9375 -3.6875q4.03125 3.578125 7.890625 9.859375l-2.171875 0.140625l6.5 -0.71875l0 -7.421875l-26.453125 0.65625l-3.3125 -8.84375q40.359375 -0.71875 60.4375 -4.234375l4.015625 6.828125q2.140625 5.328125 -4.140625 3.234375l-20.359375 1.53125l0 8.25l3.578125 0l7.359375 -12.265625l7.71875 4.28125q5.453125 5.5 -1.296875 4.625l-2.5625 3.359375l18.203125 0l0 9.859375l-23.359375 0zm3.171875 24.46875l0 -3.125l-12.8125 0l0 3.125l12.8125 0zm0 12.0000305l0 -3.125l-12.8125 0l0 3.125l12.8125 0zm-23.0 -3.125l-11.46875 0l0 3.125l11.46875 0l0 -3.125zm0 -8.8750305l0 -3.125l-11.46875 0l0 3.125l11.46875 0zm18.390625 -12.0q-0.9375 -0.375 -8.203125 -7.171875l0 9.046875l-10.1875 0l0 -8.59375q-5.171875 5.609375 -7.5625 6.71875l25.953125 0z" fill-rule="nonzero"/></g></svg>