<svg version="1.1" viewBox="0.0 0.0 816.0 1056.0" fill="none" stroke="none" stroke-linecap="square" stroke-miterlimit="10" xmlns:xlink="http://www.w3.org/1999/xlink" xmlns="http://www.w3.org/2000/svg"><clipPath id="gef2424c68b_0_86.0"><path d="m0 0l816.0 0l0 1056.0l-816.0 0l0 -1056.0z" clip-rule="nonzero"/></clipPath><g clip-path="url(#gef2424c68b_0_86.0)"><path fill="#ffffff" d="m0 0l816.0 0l0 1056.0l-816.0 0z" fill-rule="evenodd"/><path fill="#004c52" d="m0 0l0 273.68134l763.2509 -273.68134z" fill-rule="evenodd"/><path fill="#00ae9d" fill-opacity="0.8346" d="m228.75932 0l484.9707 261.29587l102.26996 -209.28513l0 -52.010746z" fill-rule="evenodd"/><path fill="#abe33f" fill-opacity="0.8115" d="m-0.53766406 95.748726l0.53766406 79.58065l493.58228 126.83115l157.17194 -302.16006z" fill-rule="evenodd"/><path fill="#004c52" d="m320.9118 1056.024l454.2882 0l-103.345276 -97.83136z" fill-rule="evenodd"/><path fill="#00ae9d" fill-opacity="0.8346" d="m817.61523 963.4538l0 96.5943l-324.57062 0z" fill-rule="evenodd"/><path fill="#abe33f" fill-opacity="0.8115" d="m817.0776 964.6959l0 -138.69873l-145.86981 234.0509z" fill-rule="evenodd"/><path fill="#000000" fill-opacity="0.0" d="m42.17323 273.8622l773.8268 0l0 90.01575l-773.8268 0z" fill-rule="evenodd"/><path fill="#000000" d="m52.595104 318.7022q0 -1.6875 0.25 -3.03125q0.265625 -1.34375 0.921875 -2.5q0.65625 -1.15625 1.796875 -2.171875q1.140625 -1.03125 2.890625 -2.0q1.53125 -0.828125 2.6875 -1.4375q1.15625 -0.625 1.953125 -1.140625q0.8125 -0.515625 1.2187462 -1.0625q0.40625 -0.546875 0.40625 -1.25q0 -0.75 -0.40625 -1.359375q-0.4062462 -0.625 -1.1562462 -0.984375q-0.75 -0.375 -1.875 -0.375q-0.890625 0 -1.65625 0.21875q-0.765625 0.21875 -1.421875 0.640625q-0.640625 0.40625 -1.203125 0.90625q-0.5625 0.5 -1.015625 1.0625l-3.171875 -3.65625q0.53125 -0.53125 1.40625 -1.140625q0.875 -0.609375 2.078125 -1.15625q1.21875 -0.546875 2.6875 -0.890625q1.484375 -0.359375 3.15625 -0.359375q2.5468712 0 4.328121 0.8125q1.796875 0.796875 2.75 2.21875q0.953125 1.40625 0.953125 3.3125q0 1.3125 -0.484375 2.328125q-0.484375 1.0 -1.234375 1.765625q-0.75 0.765625 -1.625 1.359375q-0.875 0.59375 -1.703125 1.046875q-1.1562462 0.59375 -2.0937462 1.109375q-0.921875 0.5 -1.640625 1.0q-0.703125 0.5 -1.25 1.03125q-0.53125 0.515625 -0.9375 1.1875l11.374996 0l0 4.515625l-17.984371 0zm40.725002 -10.9375q0 3.28125 -1.25 5.84375q-1.25 2.5625 -3.4375 4.015625q-2.1875 1.453125 -4.953125 1.453125q-2.75 0 -4.9375 -1.453125q-2.1875 -1.453125 -3.4375 -4.015625q-1.25 -2.5625 -1.25 -5.84375q0 -3.28125 1.25 -5.84375q1.25 -2.5625 3.4375 -4.03125q2.1875 -1.46875 4.9375 -1.46875q2.765625 0 4.953125 1.46875q2.1875 1.46875 3.4375 4.03125q1.25 2.5625 1.25 5.84375zm-5.046875 0q0 -2.015625 -0.578125 -3.515625q-0.578125 -1.515625 -1.625 -2.375q-1.046875 -0.859375 -2.390625 -0.859375q-1.375 0 -2.421875 0.859375q-1.046875 0.859375 -1.625 2.375q-0.578125 1.5 -0.578125 3.515625q0 2.015625 0.578125 3.515625q0.578125 1.484375 1.625 2.34375q1.046875 0.859375 2.421875 0.859375q1.34375 0 2.375 -0.859375q1.03125 -0.859375 1.625 -2.359375q0.59375 -1.515625 0.59375 -3.5zm8.29454 10.9375q0 -1.6875 0.25 -3.03125q0.265625 -1.34375 0.921875 -2.5q0.65625 -1.15625 1.796875 -2.171875q1.140625 -1.03125 2.890625 -2.0q1.53125 -0.828125 2.6875 -1.4375q1.15625 -0.625 1.953125 -1.140625q0.8125 -0.515625 1.21875 -1.0625q0.40625 -0.546875 0.40625 -1.25q0 -0.75 -0.40625 -1.359375q-0.40625 -0.625 -1.15625 -0.984375q-0.75 -0.375 -1.875 -0.375q-0.890625 0 -1.65625 0.21875q-0.765625 0.21875 -1.421875 0.640625q-0.640625 0.40625 -1.203125 0.90625q-0.5625 0.5 -1.015625 1.0625l-3.171875 -3.65625q0.53125 -0.53125 1.40625 -1.140625q0.875 -0.609375 2.078125 -1.15625q1.21875 -0.546875 2.6875 -0.890625q1.484375 -0.359375 3.15625 -0.359375q2.546875 0 4.328125 0.8125q1.796875 0.796875 2.75 2.21875q0.953125 1.40625 0.953125 3.3125q0 1.3125 -0.484375 2.328125q-0.484375 1.0 -1.234375 1.765625q-0.75 0.765625 -1.625 1.359375q-0.875 0.59375 -1.703125 1.046875q-1.15625 0.59375 -2.09375 1.109375q-0.921875 0.5 -1.640625 1.0q-0.703125 0.5 -1.25 1.03125q-0.53125 0.515625 -0.9375 1.1875l11.375 0l0 4.515625l-17.984375 0zm37.17814 -4.515625l0 4.515625l-15.156258 0l0 -4.515625l5.296875 0l0 -11.3125q-0.328125 0.453125 -1.046875 0.921875q-0.703125 0.453125 -1.609375 0.875q-0.890625 0.40625 -1.78125 0.671875q-0.890625 0.25 -1.609375 0.25l0 -4.65625q0.671875 0 1.625 -0.421875q0.953125 -0.4375 1.90625 -1.03125q0.953125 -0.609375 1.640625 -1.1875q0.6875 -0.578125 0.875 -0.90625l5.1093826 0l0 16.796875l4.75 0z" fill-rule="nonzero"/><path fill="#000000" d="m147.51419 295.9522q-2.625 4.5625 -7.421875 8.328125l-3.015625 -3.859375q6.40625 -4.65625 8.71875 -13.453125l4.296875 1.125q1.8125 1.8125 -0.28125 2.109375l-0.59375 1.453125l20.203125 0l0 4.296875l-10.65625 0l0 3.421875l8.75 0l0 4.3125l-8.75 0l0 5.03125l12.25 0l0 4.296875l-12.25 0l0 8.75l-4.4375 0l0 -8.75l-16.765625 0l0 -4.296875l6.5625 0l0 -9.34375l10.203125 0l0 -3.421875l-6.8125 0zm1.046875 12.765625l5.765625 0l0 -5.03125l-5.765625 0l0 5.03125zm32.09375 -13.265625q1.65625 -3.5 6.078125 -7.5625l2.75 2.484375q-4.171875 3.828125 -5.5625 6.75q-1.53125 3.1875 -1.53125 7.6875q0 3.765625 1.546875 7.125q1.390625 3.078125 5.46875 7.46875l-2.703125 2.703125q-4.25 -4.765625 -6.046875 -8.515625q-1.984375 -4.09375 -1.984375 -8.78125q0 -5.28125 1.984375 -9.359375zm12.2109375 -5.25q7.78125 -1.140625 12.0 -3.25l2.703125 3.25q0.4375 2.78125 -1.6875 1.59375q-1.140625 0.34375 -2.640625 0.765625l0 3.609375l5.109375 0l0 4.296875l-5.109375 0l0 1.578125q2.921875 1.71875 5.75 4.375l-2.765625 4.6875q-2.390625 -3.0 -2.984375 -3.484375l0 14.4375l-4.4375 0l0 -12.421875q-0.1875 0.40625 -3.71875 4.625l-3.28125 -3.296875q5.46875 -6.234375 6.609375 -10.5l-5.296875 0l0 -4.296875l5.6875 0l0 -2.6875q-1.484375 0.28125 -4.0625 0.46875l-1.875 -3.75zm19.484375 3.9375q3.703125 1.109375 0.671875 2.296875q0.140625 3.46875 -1.03125 10.140625l-4.75 -0.859375q1.1875 -5.21875 1.015625 -11.578125l4.09375 0zm14.265625 0.0625q1.875 1.828125 -0.109375 2.09375q-0.53125 4.765625 -2.734375 10.390625l-4.40625 -1.765625q2.1875 -4.5625 3.015625 -11.6875l4.234375 0.96875zm-7.765625 5.65625q0 10.8125 9.46875 17.125l-2.875 4.515625q-7.015625 -4.84375 -8.328125 -9.65625q-1.28125 5.4375 -10.015625 10.125l-3.1875 -3.8125q10.484375 -5.78125 10.484375 -15.53125l0 -15.34375l3.578125 0q3.15625 0.375 0.875 2.03125l0 10.546875zm45.109375 21.453125q-10.53125 -2.09375 -14.5 -6.15625l0 6.90625l-4.0 0l0 -7.125q-4.21875 4.5625 -14.203125 6.828125l-1.328125 -4.4375q8.078125 -1.421875 11.765625 -4.609375l-10.96875 0l0 -3.859375l14.734375 0l0 -0.796875l-4.78125 -0.046875l0.046875 0.765625l-4.015625 0l0 -8.453125l-5.984375 0l0 -3.859375l5.984375 0l0 -2.1875l3.140625 0q3.15625 0.375 0.875 2.03125l0 0.15625l4.0 0l0 -2.625l3.140625 0q3.15625 0.375 0.875 2.03125l0 0.59375l4.59375 0l0 -2.328125l3.140625 0q3.1875 0.375 0.859375 2.03125l0 0.296875l6.421875 0l0 3.859375l-6.421875 0l0 3.640625l-12.609375 0l0 -2.515625l0 -1.125l-4.0 0l0 3.859375l21.140625 0l0 3.875l-12.40625 0l0 0.796875l14.4375 0l0 3.859375l-11.0625 0q2.34375 2.1875 12.4375 4.1875l-1.3125 4.40625zm-10.625 -20.625l0 -0.359375l-4.59375 0l0 0.359375l4.59375 0zm1.09375 -10.78125l9.328125 0l0 3.859375l-9.328125 0l0 1.90625l-4.015625 0l0 -1.90625l-6.1875 0l0 1.90625l-4.015625 0l0 -1.90625l-9.484375 0l0 -3.859375l9.484375 0l0 -2.921875l3.140625 0q3.15625 0.421875 0.875 2.03125l0 0.890625l6.1875 0l0 -3.0625l3.140625 0q3.15625 0.375 0.875 2.03125l0 1.03125zm31.453125 27.125q0 0.1875 -0.1875 0.171875l0 -7.6875l-3.859375 0l0 1.015625l-4.4375 0l0 -15.671875l6.953125 0l0.34375 -2.25l-9.859375 0l0 13.078125q0 9.71875 -4.140625 16.09375l-3.578125 -3.609375q3.28125 -4.984375 3.28125 -12.484375l0 -17.390625l30.68747 0l0 4.3125l-11.4062195 0l-0.609375 2.25l8.8125 0l0 15.53125l-4.453125 0l0 -0.875l-3.28125 0l0 9.15625q0 3.09375 -3.09375 3.09375l-3.53125 0l-1.0625 -4.734375l3.421875 0zm11.671875 3.046875q-3.359375 -4.6875 -6.8125 -7.8125l3.25 -3.0625q4.3905945 3.234375 7.4999695 7.546875l-3.9374695 3.328125zm-13.828125 -8.421875q3.359375 2.90625 -0.40625 2.171875q-2.859375 4.078125 -6.921875 6.90625l-2.96875 -3.8125q4.015625 -3.015625 7.0 -7.65625l3.296875 2.390625zm-1.890625 -6.0l11.59375 0l0 -1.6875l-11.59375 0l0 1.6875zm0 -5.546875l11.59375 0l0 -1.375l-11.59375 0l0 1.375zm32.15622 13.484375q-1.796875 3.75 -6.0625 8.515625l-2.6875 -2.703125q4.0625 -4.375 5.453125 -7.46875q1.546875 -3.359375 1.546875 -7.125q0 -4.5 -1.53125 -7.6875q-1.390625 -2.921875 -5.53125 -6.75l2.71875 -2.484375q4.421875 4.0625 6.09375 7.5625q1.96875 4.078125 1.96875 9.359375q0 4.6875 -1.96875 8.78125z" fill-rule="nonzero"/><path fill="#000000" d="m72.5326 367.84283l11.953125 0l0 4.734375l-11.953125 0q0 9.890625 -10.093746 15.5l-3.4375 -3.453125q8.796871 -4.9375 8.671871 -12.046875l-14.609371 0l0 -4.734375l14.593746 0l0 -3.921875q-3.265625 0.34375 -10.390621 0.65625l-1.96875 -4.578125q15.187496 -0.328125 23.281246 -2.8125l1.890625 3.65625q1.203125 2.765625 -2.0625 1.421875q-2.859375 0.671875 -5.875 1.03125l0 4.546875zm14.365051 5.90625l0 -4.75l34.046875 0l0 4.75l-34.046875 0zm35.744995 5.203125l6.6562576 -0.15625q5.015625 -10.875 7.984375 -23.4375l4.234375 1.484375q2.796875 1.859375 -0.015625 2.625q-2.671875 9.984375 -6.828125 18.953125l12.453125 -0.59375q-2.171875 -2.90625 -4.484375 -5.40625l4.1875 -2.9375q5.453125 5.9375 10.390625 13.921875l-4.46875 3.046875l-2.5 -4.078125l-23.640633 1.84375q-1.5625 2.59375 -2.5 -0.515625l-1.46875 -4.75zm80.89771 -8.203125q-1.296875 1.3125 -1.578125 1.078125q0.71875 -0.125 2.171875 1.328125q1.96875 1.984375 1.96875 4.640625q0 3.21875 -2.265625 5.5q-2.421875 2.40625 -8.265625 2.40625q-5.859375 0 -8.28125 -2.40625q-2.265625 -2.28125 -2.265625 -5.5q0 -2.65625 1.96875 -4.640625q1.46875 -1.453125 2.359375 -1.34375q-0.296875 0.25 -1.625 -1.0625q-1.96875 -1.984375 -1.96875 -4.765625q0 -2.9375 2.109375 -5.0625q2.421875 -2.40625 7.703125 -2.40625q5.265625 0 7.6875 2.40625q2.109375 2.125 2.109375 5.0625q0 2.9375 -1.828125 4.765625zm-7.96875 -7.796875q-2.90625 0 -3.984375 1.09375q-0.796875 0.796875 -0.796875 1.9375q0 1.0 0.953125 1.921875q1.078125 1.09375 3.828125 1.09375q2.890625 0 3.96875 -1.09375q0.796875 -0.78125 0.796875 -1.921875q0 -1.140625 -0.796875 -1.9375q-1.078125 -1.09375 -3.96875 -1.09375zm0 11.375q-3.34375 0 -4.5625 1.234375q-0.953125 0.9375 -0.953125 2.234375q0 1.28125 0.953125 2.21875q1.21875 1.234375 4.5625 1.234375q3.328125 0 4.546875 -1.234375q0.953125 -0.9375 0.953125 -2.21875q0 -1.296875 -0.953125 -2.234375q-1.21875 -1.234375 -4.546875 -1.234375z" fill-rule="nonzero"/><path fill="#000000" fill-opacity="0.0" d="m422.2533 472.40945l373.7638 0l0 360.0945l-373.7638 0z" fill-rule="evenodd"/><path fill="#da97f8" d="m431.2533 489.40945l257.10535 0l0 36.80002l-257.10535 0l0 -36.80002z" fill-rule="nonzero"/><path fill="#000000" fill-opacity="0.0" d="m431.2533 492.50424l257.10535 0l0 30.65622l-257.10535 0l0 -30.65622z" fill-rule="nonzero"/><path fill="#004c52" d="m447.53455 505.4432l9.828125 0l0 2.625l-9.828125 0q0 8.3905945 -7.546875 12.5780945l-1.90625 -1.921875q6.828125 -3.828125 6.703125 -10.6562195l-11.96875 0l0 -2.625l11.96875 0l0 -4.5625q-3.359375 0.359375 -8.734375 0.609375l-1.078125 -2.515625q11.609375 -0.25 17.84375 -2.15625l1.3125 2.515625q0.359375 0.828125 -1.078125 0.234375q-2.515625 0.59375 -5.515625 0.953125l0 4.921875zm22.401978 0.46875l9.8125 -2.390625l0.609375 -0.359375l1.90625 1.921875q0.484375 0.46875 -0.359375 0.71875q-2.15625 3.46875 -4.546875 6.7030945l-2.03125 -1.3280945q1.90625 -2.5 3.59375 -5.265625l-8.265625 2.046875l4.0625 12.0937195l-2.390625 0.828125l-3.953125 -12.4530945l-6.9375 1.921875l-0.84375 -2.390625l6.9375 -1.5625l-1.90625 -5.75l2.515625 -0.484375q1.078125 0 0.359375 0.84375l1.4375 4.90625zm15.324951 3.125l0 -2.640625l26.703125 0l0 2.640625l-26.703125 0zm45.98999 6.3437195q5.265625 -2.046875 9.6875 -8.1405945l1.6875 2.265625q-4.5625 6.2343445 -11.5 8.9843445l-0.953125 0.484375l-1.921875 -1.4375l0.234375 -0.609375l0 -19.28122l2.515625 0q1.078125 0.25 0.25 0.96875l0 16.765594zm-16.046875 3.234375q5.984375 -5.75 5.984375 -14.2499695l0 -5.390625l2.515625 0q1.078125 0.234375 0.234375 0.953125l0 4.3125q0 10.0624695 -6.34375 15.9218445l-2.390625 -1.546875zm49.6875 -17.96872q-2.265625 3.953125 -4.78125 7.3125q5.140625 3.9375 10.171875 9.0937195l-2.390625 2.03125q-5.03125 -5.265625 -9.703125 -8.8593445q-4.671875 5.0312195 -10.65625 8.9843445l-2.28125 -2.03125q12.703125 -8.2655945 16.296875 -16.53122l-13.0625 0.84375l-0.359375 -2.875l13.890625 -0.609375l1.4375 -0.359375l1.921875 1.921875q0.84375 0.84375 -0.484375 1.078125zm6.34375 -2.28125q-2.15625 -2.515625 -4.0625 -4.0625l1.546875 -1.4375q2.15625 1.671875 4.078125 3.953125l-1.5625 1.546875zm-3.34375 1.921875q-1.5625 -1.796875 -4.1875 -4.1875l1.796875 -1.4375q2.140625 1.90625 4.1875 4.0625l-1.796875 1.5625zm15.797241 4.90625l0 5.15625l-5.140625 0l0 -5.15625l5.140625 0zm31.015625 0.359375q-6.09375 9.8280945 -18.90625 13.8905945q-0.359375 1.4375 -1.203125 0.125l-1.671875 -2.640625q13.046875 -2.875 19.625 -13.5312195l2.15625 2.15625zm-18.4375 3.234375q-3.59375 -2.625 -5.984375 -3.828125l1.796875 -2.515625q3.0 1.5625 6.109375 3.828125l-1.921875 2.515625zm3.59375 -7.0625q-3.234375 -2.28125 -5.984375 -3.828125l1.5625 -2.515625q3.21875 1.796875 6.09375 3.828125l-1.671875 2.515625zm9.9375 -8.140625q2.046875 1.5625 4.078125 3.703125l-1.5625 1.5625q-2.15625 -2.390625 -4.0625 -3.828125l1.546875 -1.4375zm-2.875 2.03125q2.046875 1.671875 4.078125 3.828125l-1.5625 1.4375q-2.03125 -2.15625 -4.1875 -3.953125l1.671875 -1.3125zm10.9021 23.234344l0 -2.28125l12.21875 0l0 -5.0312195l-11.5 0l0 -2.265625l11.5 0l0 -4.796875l-12.21875 0l0 -2.265625l14.609375 0l0 17.953094l-2.390625 0l0 -1.3125l-12.21875 0zm43.592407 -14.7343445q-3.59375 5.28125 -6.109375 8.6249695l-2.28125 -1.5624695q2.640625 -3.21875 4.921875 -6.703125l-9.953125 1.796875l0 8.8593445q0 1.6875 1.6875 1.6875l11.015625 0l-0.359375 2.625l-11.375 0q-3.71875 0 -3.71875 -3.828125l0 -8.8593445l-7.1875 1.4375l-0.953125 -2.75l8.140625 -1.4375l0 -7.90625l2.515625 0q1.078125 0.234375 0.234375 0.953125l0 6.59375l10.78125 -1.796875l0.953125 -0.609375l2.15625 2.15625q0.484375 0.609375 -0.46875 0.71875zm6.0998535 12.8124695q14.96875 -3.46875 15.6875 -15.9218445l-17.953125 0l0 -2.640625l18.203125 0l1.671875 -0.359375l1.3125 1.203125q-0.46875 15.9218445 -16.765625 20.359344l-2.15625 -2.640625z" fill-rule="nonzero"/><path fill="#000000" fill-opacity="0.0" d="m688.35864 490.73758l0 0l0 35.83725l0 0l0 -35.83725z" fill-rule="nonzero"/><path fill="#004c52" d="m448.2533 540.9507q0.703125 0 1.140625 -0.453125q0.4375 -0.4375 0.4375 -1.140625q0 -0.703125 -0.4375 -1.15625q-0.4375 -0.4375 -1.140625 -0.4375q-0.71875 0 -1.15625 0.4375q-0.4375 0.453125 -0.4375 1.15625q0 0.703125 0.4375 1.140625q0.4375 0.453125 1.15625 0.453125zm0 0.875q-1.0625 0 -1.78125 -0.703125q-0.703125 -0.703125 -0.703125 -1.765625q0 -1.0625 0.703125 -1.765625q0.71875 -0.71875 1.78125 -0.71875q1.046875 0 1.765625 0.71875q0.703125 0.703125 0.703125 1.765625q0 1.0625 -0.703125 1.765625q-0.71875 0.703125 -1.765625 0.703125zm-15.84375 1.15625l0 -1.953125l13.09375 0l2.296875 1.6875q-0.4375 10.703125 -12.125 13.984375l-1.59375 -1.953125q11.0625 -2.5625 11.59375 -11.765625l-13.265625 0zm35.485596 11.6875l-2.03125 0l0 -0.984375l-9.828125 0l0 1.421875l-2.03125 0l0 -13.8125l13.890625 0l0 13.375zm-11.859375 -11.421875l0 8.5l9.828125 0l0 -8.5l-9.828125 0zm31.246216 0.796875q-1.6875 9.640625 -11.0625 13.8125l-1.59375 -1.6875q8.671875 -3.546875 10.4375 -12.21875l-7.078125 0q-2.03125 3.375 -4.25 5.40625l-1.765625 -1.15625q4.59375 -4.15625 5.921875 -9.734375l2.03125 0.703125q0.53125 0.265625 -0.171875 0.53125q-0.359375 1.15625 -0.96875 2.3125l6.375 0l0.796875 -0.453125l1.59375 1.59375q0.609375 0.625 -0.265625 0.890625zm0.53125 -2.125q-1.421875 -2.03125 -2.75 -3.09375l1.15625 -0.96875q1.5 1.3125 2.828125 3.09375l-1.234375 0.96875zm2.5625 -1.0625q-1.421875 -1.765625 -2.5625 -2.828125l1.046875 -1.0625q1.328125 1.234375 2.578125 2.828125l-1.0625 1.0625zm6.6412354 15.40625q8.578125 -2.21875 9.640625 -9.296875l-13.453125 0l0 -1.953125l13.546875 0l0.796875 -0.265625l1.59375 0.984375q0.515625 0.4375 -0.1875 0.796875q-1.40625 8.84375 -10.359375 11.5l-1.578125 -1.765625zm10.0 -14.34375l-12.21875 0l0 -1.953125l12.21875 0l0 1.953125zm15.304077 9.46875q1.859375 1.765625 3.015625 3.09375l-1.78125 1.59375q-3.359375 -3.984375 -7.6875 -7.15625l1.234375 -1.59375q1.59375 0.96875 3.53125 2.734375q2.65625 -2.65625 5.40625 -6.546875l-13.890625 0.625l-0.359375 -2.21875l15.484375 -0.359375l0.890625 -0.265625l1.328125 1.421875q0.4375 0.703125 -0.359375 0.625q-2.203125 2.921875 -6.8125 8.046875zm9.646851 -2.46875l0 -1.953125l19.734375 0l0 1.953125l-19.734375 0z" fill-rule="nonzero"/><path fill="#004c52" d="m437.5033 589.29443l4.21875 -12.359375l1.875 0l-5.078125 14.234375l-1.828125 0l-5.03125 -14.234375l1.875 0l4.203125 12.359375l-0.234375 0zm8.775482 1.875l0 -14.234375l8.65625 0l0 1.53125l-6.875 0l0 4.734375l6.40625 0l0 1.515625l-6.40625 0l0 6.453125l-1.78125 0zm10.337433 0l5.015625 -7.0625l-5.0625 -7.171875l2.125 0l4.109375 5.8125l3.765625 -5.8125l2.140625 0l-4.9375 7.140625l5.125 7.09375l-2.171875 0l-4.125 -5.6875l-3.859375 5.6875l-2.125 0z" fill-rule="nonzero"/><path fill="#004c52" d="m487.04095 575.9507q0.703125 0 1.140625 -0.453125q0.4375 -0.4375 0.4375 -1.140625q0 -0.703125 -0.4375 -1.15625q-0.4375 -0.4375 -1.140625 -0.4375q-0.71875 0 -1.15625 0.4375q-0.4375 0.453125 -0.4375 1.15625q0 0.703125 0.4375 1.140625q0.4375 0.453125 1.15625 0.453125zm0 0.875q-1.0625 0 -1.78125 -0.703125q-0.703125 -0.703125 -0.703125 -1.765625q0 -1.0625 0.703125 -1.765625q0.71875 -0.71875 1.78125 -0.71875q1.046875 0 1.765625 0.71875q0.703125 0.703125 0.703125 1.765625q0 1.0625 -0.703125 1.765625q-0.71875 0.703125 -1.765625 0.703125zm-15.84375 1.15625l0 -1.953125l13.09375 0l2.296875 1.6875q-0.4375 10.703125 -12.125 13.984375l-1.59375 -1.953125q11.0625 -2.5625 11.59375 -11.765625l-13.265625 0zm35.485596 11.6875l-2.03125 0l0 -0.984375l-9.828125 0l0 1.421875l-2.03125 0l0 -13.8125l13.890625 0l0 13.375zm-11.859375 -11.421875l0 8.5l9.828125 0l0 -8.5l-9.828125 0zm31.246216 0.796875q-1.6875 9.640625 -11.0625 13.8125l-1.59375 -1.6875q8.671875 -3.546875 10.4375 -12.21875l-7.078125 0q-2.03125 3.375 -4.25 5.40625l-1.765625 -1.15625q4.59375 -4.15625 5.921875 -9.734375l2.03125 0.703125q0.53125 0.265625 -0.171875 0.53125q-0.359375 1.15625 -0.96875 2.3125l6.375 0l0.796875 -0.453125l1.59375 1.59375q0.609375 0.625 -0.265625 0.890625zm0.53125 -2.125q-1.421875 -2.03125 -2.75 -3.09375l1.15625 -0.96875q1.5 1.3125 2.828125 3.09375l-1.234375 0.96875zm2.5625 -1.0625q-1.421875 -1.765625 -2.5625 -2.828125l1.046875 -1.0625q1.328125 1.234375 2.578125 2.828125l-1.0625 1.0625zm6.6412354 15.40625q8.578125 -2.21875 9.640625 -9.296875l-13.453125 0l0 -1.953125l13.546875 0l0.796875 -0.265625l1.59375 0.984375q0.515625 0.4375 -0.1875 0.796875q-1.40625 8.84375 -10.359375 11.5l-1.578125 -1.765625zm10.0 -14.34375l-12.21875 0l0 -1.953125l12.21875 0l0 1.953125zm15.663452 8.5q-3.71875 -1.59375 -10.0 -2.5625l0.265625 -2.125q5.484375 0.609375 10.34375 2.46875l-0.609375 2.21875zm1.0625 6.453125q-6.828125 -2.5625 -12.125 -3.265625l0.4375 -2.3125q6.90625 0.984375 12.296875 3.1875l-0.609375 2.390625zm-11.15625 -16.984375q7.25 0.796875 10.4375 2.03125l-0.53125 2.296875q-4.421875 -1.59375 -10.171875 -2.03125l0.265625 -2.296875zm31.414917 6.015625q-4.6875 9.734375 -15.75 10.265625q-0.4375 1.15625 -0.890625 0.171875l-0.703125 -2.296875q11.5 -0.265625 15.484375 -9.46875l1.859375 1.328125zm-12.484375 0q-2.375 -2.21875 -4.5 -3.625l1.5 -1.859375q1.859375 1.140625 4.6875 3.796875l-1.6875 1.6875zm30.10559 -1.859375q-1.6875 9.640625 -11.0625 13.8125l-1.59375 -1.6875q8.671875 -3.546875 10.4375 -12.21875l-7.078125 0q-2.03125 3.375 -4.25 5.40625l-1.765625 -1.15625q4.59375 -4.15625 5.921875 -9.734375l2.03125 0.703125q0.53125 0.265625 -0.171875 0.53125q-0.359375 1.15625 -0.96875 2.3125l6.375 0l0.796875 -0.453125l1.59375 1.59375q0.609375 0.625 -0.265625 0.890625zm0.53125 -2.125q-1.421875 -2.03125 -2.75 -3.09375l1.15625 -0.96875q1.5 1.3125 2.828125 3.09375l-1.234375 0.96875zm2.5625 -1.0625q-1.421875 -1.765625 -2.5625 -2.828125l1.046875 -1.0625q1.328125 1.234375 2.578125 2.828125l-1.0625 1.0625z" fill-rule="nonzero"/><path fill="#004c52" d="m449.30017 647.2788q-1.046875 7.171875 -4.234375 10.4375q-2.84375 2.921875 -7.703125 4.515625l-1.59375 -1.859375q4.78125 -1.328125 7.34375 -3.71875q3.1875 -3.0 4.078125 -10.796875l2.109375 0.625q0.890625 0.265625 0 0.796875zm-14.5 5.578125q-1.15625 -2.75 -2.578125 -5.140625l1.953125 -1.0625q1.328125 2.125 2.65625 5.140625l-2.03125 1.0625zm5.484375 -1.6875q-1.25 -2.828125 -2.578125 -4.78125l2.046875 -0.96875q1.328125 1.859375 2.5625 4.6875l-2.03125 1.0625zm11.855591 3.546875q9.296875 -3.90625 14.078125 -10.984375l1.671875 1.421875q0.703125 0.53125 -0.609375 0.796875q-1.6875 2.203125 -4.34375 4.515625l0 12.03125l-2.03125 0l0 -10.359375q-3.109375 2.390625 -7.265625 4.34375l-1.5 -1.765625zm32.56433 -4.34375q-0.609375 5.75 -3.1875 8.3125q-2.5625 2.578125 -6.71875 4.078125l-1.15625 -1.6875q4.078125 -1.328125 6.375 -3.625q2.484375 -2.46875 2.828125 -8.40625l1.859375 0.625q0.796875 0.265625 0 0.703125zm-7.515625 3.1875q-1.0625 -2.390625 -2.125 -3.984375l1.671875 -0.890625q1.328125 1.6875 2.3125 3.984375l-1.859375 0.890625zm-4.515625 1.328125q-1.0625 -2.484375 -2.21875 -4.15625l1.78125 -0.890625q1.234375 1.6875 2.203125 4.078125l-1.765625 0.96875zm22.122559 -10.1875q-0.359375 1.0625 -0.890625 2.046875l5.9375 0l0.96875 -0.359375l1.15625 1.15625q0.359375 0.4375 -0.359375 0.703125q-0.703125 3.546875 -2.125 6.46875l2.125 1.40625l-1.328125 1.953125l-1.9375 -1.421875q-2.578125 3.71875 -7.34375 6.109375l-2.046875 -1.5q5.3125 -2.21875 7.609375 -5.84375q-2.203125 -1.421875 -4.328125 -2.5625l1.0625 -1.59375q2.734375 1.234375 4.515625 2.296875q1.328125 -2.75 1.59375 -4.875l-6.46875 0q-1.671875 3.015625 -4.15625 5.5l-1.6875 -1.15625q4.515625 -4.6875 5.9375 -9.90625l2.125 0.875q0.703125 0.359375 -0.359375 0.703125zm9.736816 9.21875l0 -1.953125l19.734375 0l0 1.953125l-19.734375 0zm37.972656 -0.453125q0 -2.921875 2.296875 -5.21875q2.5625 -2.5625 7.4375 -2.5625q4.515625 0 6.8125 2.296875q1.9375 1.953125 1.9375 4.15625q0 2.484375 -1.40625 3.890625q-1.515625 1.515625 -4.25 1.515625q-1.234375 0 -1.6875 -0.453125q-0.53125 -0.53125 -0.4375 -1.328125l-0.625 0.625q-1.234375 1.15625 -2.828125 1.15625q-1.5 0 -2.390625 -0.890625q-0.890625 -0.890625 -0.890625 -2.5625q0 -1.953125 1.78125 -3.71875q1.59375 -1.59375 3.796875 -1.59375q1.953125 0 2.484375 1.5l0.09375 0.265625l0.609375 -1.671875l2.046875 0q-1.328125 3.453125 -2.046875 5.578125q-0.265625 0.796875 -0.265625 1.140625q0 0.359375 0.1875 0.53125q0.265625 0.265625 0.796875 0.265625q1.84375 0 2.90625 -1.0625q1.15625 -1.140625 1.15625 -3.1875q0 -1.859375 -1.6875 -3.53125q-2.03125 -2.046875 -6.09375 -2.046875q-4.4375 0 -6.734375 2.3125q-2.03125 2.03125 -2.03125 4.59375q0 2.75 1.859375 4.609375q2.03125 2.03125 5.3125 2.03125q2.921875 0 4.78125 -0.53125q1.0625 -0.265625 2.203125 -0.890625l0.53125 0.796875q-1.0625 0.625 -2.390625 0.984375q-2.296875 0.609375 -5.125 0.609375q-3.71875 0 -6.015625 -2.296875q-2.125 -2.125 -2.125 -5.3125zm9.546875 -3.265625q-1.140625 0 -2.296875 1.140625q-1.234375 1.25 -1.234375 2.75q0 0.96875 0.4375 1.40625q0.4375 0.453125 1.328125 0.453125q1.15625 0 2.125 -0.96875q0.796875 -0.796875 1.15625 -1.421875q0.34375 -0.625 0.34375 -1.0625l0 -0.703125q-0.4375 -1.59375 -1.859375 -1.59375z" fill-rule="nonzero"/><path fill="#004c52" d="m566.56775 647.7788q-0.546875 0 -0.859375 -0.3125q-0.296875 -0.3125 -0.296875 -0.8125q0 -0.5 0.296875 -0.796875q0.3125 -0.296875 0.859375 -0.296875q0.546875 0 0.859375 0.296875q0.3125 0.296875 0.3125 0.796875q0 0.5 -0.3125 0.8125q-0.3125 0.3125 -0.859375 0.3125zm-2.53125 18.96875q-0.78125 0 -1.515625 -0.21875q-0.75 -0.203125 -1.53125 -0.625l0.09375 -1.546875q0.671875 0.375 1.3125 0.609375q0.640625 0.234375 1.3125 0.234375q0.953125 0 1.46875 -0.609375q0.53125 -0.609375 0.53125 -1.90625l0 -12.390625l1.75 0l0 12.421875q0 2.140625 -0.953125 3.078125q-0.953125 0.953125 -2.46875 0.953125zm12.212158 -5.3125q-1.453125 0 -2.59375 -0.640625q-1.140625 -0.640625 -1.796875 -1.90625q-0.65625 -1.28125 -0.65625 -3.140625q0 -1.859375 0.65625 -3.125q0.65625 -1.265625 1.796875 -1.90625q1.140625 -0.65625 2.59375 -0.65625q1.453125 0 2.59375 0.65625q1.140625 0.640625 1.78125 1.90625q0.65625 1.265625 0.65625 3.125q0 1.859375 -0.65625 3.140625q-0.640625 1.265625 -1.78125 1.90625q-1.140625 0.640625 -2.59375 0.640625zm-0.046875 -1.53125q1.0625 0 1.796875 -0.5q0.734375 -0.515625 1.109375 -1.4375q0.390625 -0.9375 0.390625 -2.21875q0 -1.9375 -0.8125 -3.046875q-0.796875 -1.109375 -2.390625 -1.109375q-1.0625 0 -1.796875 0.5q-0.71875 0.5 -1.109375 1.4375q-0.375 0.9375 -0.375 2.21875q0 1.921875 0.8125 3.046875q0.8125 1.109375 2.375 1.109375zm7.475525 1.265625l0 -1.53125l13.953125 0l0 1.53125l-13.953125 0zm21.3208 0.265625q-1.3125 0 -2.40625 -0.703125q-1.09375 -0.703125 -1.75 -1.984375q-0.65625 -1.296875 -0.65625 -3.03125q0 -1.734375 0.640625 -3.0q0.640625 -1.28125 1.703125 -1.96875q1.078125 -0.6875 2.359375 -0.6875q1.1875 0 2.09375 0.578125q0.90625 0.578125 1.390625 1.671875q0.5 1.09375 0.5 2.625l-0.671875 0q0 -1.078125 -0.4375 -1.8125q-0.421875 -0.734375 -1.109375 -1.109375q-0.671875 -0.375 -1.453125 -0.375q-0.875 0 -1.609375 0.5q-0.734375 0.484375 -1.171875 1.390625q-0.421875 0.90625 -0.421875 2.1875q0 1.28125 0.421875 2.21875q0.4375 0.921875 1.171875 1.421875q0.734375 0.5 1.609375 0.5q0.75 0 1.421875 -0.375q0.6875 -0.390625 1.125 -1.125q0.453125 -0.75 0.453125 -1.8125l0.671875 0q0 1.578125 -0.515625 2.671875q-0.515625 1.09375 -1.390625 1.65625q-0.875 0.5625 -1.96875 0.5625zm3.5 -0.265625l-0.296875 -2.53125l0 -12.921875l1.765625 0l0 15.453125l-1.46875 0zm9.814575 0.265625q-1.40625 0 -2.515625 -0.71875q-1.09375 -0.71875 -1.734375 -2.0q-0.640625 -1.28125 -0.640625 -2.9375q0 -1.78125 0.625 -3.0625q0.640625 -1.28125 1.75 -1.96875q1.109375 -0.6875 2.515625 -0.6875q1.234375 0 2.109375 0.5q0.875 0.5 1.40625 1.359375q0.53125 0.84375 0.734375 1.921875q0.21875 1.0625 0.125 2.203125l-7.84375 0l0 -1.078125l6.671875 0l-0.515625 0.328125q0.03125 -0.65625 -0.078125 -1.328125q-0.109375 -0.671875 -0.40625 -1.234375q-0.28125 -0.5625 -0.8125 -0.890625q-0.53125 -0.34375 -1.359375 -0.34375q-1.046875 0 -1.75 0.53125q-0.703125 0.53125 -1.0625 1.40625q-0.34375 0.859375 -0.34375 1.859375l0 0.734375q0 1.125 0.34375 2.03125q0.34375 0.890625 1.03125 1.421875q0.703125 0.515625 1.75 0.515625q1.0625 0 1.734375 -0.515625q0.6875 -0.515625 0.828125 -1.5l1.828125 0q-0.15625 1.0625 -0.765625 1.84375q-0.59375 0.78125 -1.53125 1.203125q-0.921875 0.40625 -2.09375 0.40625zm5.993469 -11.09375l2.015625 0l3.40625 9.3125l-0.25 0l3.390625 -9.3125l2.015625 0l-4.328125 10.828125l-1.921875 0l-4.328125 -10.828125zm17.166077 11.09375q-1.578125 0 -2.640625 -0.4375q-1.046875 -0.453125 -1.59375 -1.234375q-0.53125 -0.796875 -0.578125 -1.8125l1.703125 0q0.0625 1.03125 0.828125 1.546875q0.78125 0.515625 2.125 0.515625q0.703125 0 1.28125 -0.21875q0.59375 -0.234375 0.9375 -0.625q0.359375 -0.40625 0.359375 -0.90625q0 -0.625 -0.46875 -0.984375q-0.453125 -0.375 -1.484375 -0.640625l-2.109375 -0.6875q-1.359375 -0.421875 -2.09375 -1.171875q-0.734375 -0.75 -0.734375 -1.8125q0 -1.3125 1.15625 -2.109375q1.15625 -0.796875 3.03125 -0.796875q2.0 0 3.09375 0.828125q1.109375 0.8125 1.15625 2.03125l-1.75 0q-0.109375 -0.703125 -0.734375 -1.078125q-0.609375 -0.375 -1.765625 -0.375q-1.09375 0 -1.71875 0.5q-0.609375 0.484375 -0.609375 1.09375q0 1.125 1.921875 1.65625l2.15625 0.71875q1.390625 0.421875 2.125 1.109375q0.75 0.671875 0.75 1.71875q0 0.828125 -0.53125 1.546875q-0.53125 0.71875 -1.515625 1.171875q-0.96875 0.453125 -2.296875 0.453125z" fill-rule="nonzero"/><path fill="#000000" fill-opacity="0.0" d="m431.2533 675.95764l0 0l0 42.08374l0 0l0 -42.08374z" fill-rule="nonzero"/><path fill="#000000" fill-opacity="0.0" d="m34.2354 472.40945l373.76376 0l0 360.0945l-373.76376 0z" fill-rule="evenodd"/><path fill="#da97f8" d="m43.2354 489.40945l125.37927 0l0 36.80002l-125.37927 0l0 -36.80002z" fill-rule="nonzero"/><path fill="#000000" fill-opacity="0.0" d="m43.2354 492.50424l125.37927 0l0 30.65622l-125.37927 0l0 -30.65622z" fill-rule="nonzero"/><path fill="#004c52" d="m59.282276 502.92758l11.140621 0l0 2.625l-11.015621 0l0 2.15625q0 8.8593445 -7.671875 13.4218445l-2.515625 -1.921875q7.421875 -3.828125 7.421875 -11.4999695l0 -2.15625l-11.84375 0l0 -2.625l11.734375 0l0 -7.1875l2.390625 0q1.3125 0.109375 0.359375 0.953125l0 6.234375zm25.750607 -0.484375l11.484375 -2.875l1.328125 -0.59375l2.15625 2.15625q0.59375 0.71875 -0.484375 1.078125q-2.03125 3.828125 -5.5 8.265625l-2.28125 -1.6875q2.515625 -2.984375 4.3125 -6.578125l-10.1875 2.625l5.03125 14.8593445l-2.875 0.828125l-4.90625 -14.9687195l-8.5 2.28125l-0.953125 -2.640625l8.609375 -2.03125l-2.5 -7.1875l2.859375 -0.59375q1.078125 0 0.359375 0.953125l2.046875 6.109375zm33.651245 8.625q-5.03125 -2.15625 -13.53125 -3.46875l0.359375 -2.875q7.421875 0.828125 14.0 3.34375l-0.828125 3.0zm1.4375 8.7343445q-9.234375 -3.46875 -16.40625 -4.421875l0.59375 -3.125q9.34375 1.328125 16.640625 4.3125l-0.828125 3.234375zm-15.09375 -22.984344q9.8125 1.078125 14.125 2.75l-0.71875 3.109375q-5.984375 -2.15625 -13.765625 -2.75l0.359375 -3.109375zm27.774292 8.375l0 5.15625l-5.140625 0l0 -5.15625l5.140625 0zm31.015625 -2.984375l0 6.703125l3.125 0l0 2.265625l-3.125 0l-0.234375 4.5624695l2.515625 0l0 2.265625l-2.640625 0l-0.234375 1.796875q-0.234375 1.6875 -1.796875 1.6875l-3.234375 0l-0.46875 -2.28125l2.625 0q0.484375 0 0.609375 -0.484375l0.109375 -0.71875l-10.890625 0l-0.25 1.796875l-2.390625 0l0.953125 -8.6249695l-2.859375 0l0 -2.265625l2.984375 0l0.359375 -5.875q-0.953125 1.078125 -1.921875 1.921875l-1.78125 -2.03125q4.0625 -3.484375 5.859375 -9.109375l2.515625 0.84375q0.59375 0.234375 -0.359375 0.59375l-0.84375 2.03125l13.53125 0l0 2.28125l-14.609375 0q-0.828125 1.5625 -1.90625 2.640625l14.359375 0zm-6.453125 8.96875l-0.359375 4.5624695l4.1875 0l0.234375 -4.5624695l-4.0625 0zm-6.0 -6.703125l-0.359375 4.4375l4.078125 0l0.125 -4.4375l-3.84375 0zm6.109375 4.4375l3.953125 0l0 -4.4375l-3.828125 0l-0.125 4.4375zm-2.515625 2.265625l-4.0625 0l-0.359375 4.5624695l4.0625 0l0.359375 -4.5624695zm-15.5625 7.7968445q2.640625 -3.59375 4.1875 -8.4999695l2.046875 1.5468445q-0.84375 3.828125 -3.484375 8.265625q0.125 1.203125 -0.59375 0.59375l-2.15625 -1.90625zm4.4375 -11.3749695q-1.921875 -1.6875 -4.3125 -3.0l1.671875 -2.28125q2.515625 1.203125 4.3125 2.875l-1.671875 2.40625zm1.1875 -7.1875q-2.03125 -1.796875 -4.421875 -3.234375l1.90625 -2.28125q3.0 1.671875 4.546875 3.109375l-2.03125 2.40625z" fill-rule="nonzero"/><path fill="#000000" fill-opacity="0.0" d="m168.61467 490.73758l0 0l0 35.83725l0 0l0 -35.83725z" fill-rule="nonzero"/><path fill="#004c52" d="m60.2354 540.9507q0.703125 0 1.140625 -0.453125q0.4375 -0.4375 0.4375 -1.140625q0 -0.703125 -0.4375 -1.15625q-0.4375 -0.4375 -1.140625 -0.4375q-0.71875 0 -1.15625 0.4375q-0.4375 0.453125 -0.4375 1.15625q0 0.703125 0.4375 1.140625q0.4375 0.453125 1.15625 0.453125zm0 0.875q-1.0625 0 -1.78125 -0.703125q-0.703125 -0.703125 -0.703125 -1.765625q0 -1.0625 0.703125 -1.765625q0.71875 -0.71875 1.78125 -0.71875q1.046875 0 1.765625 0.71875q0.703125 0.703125 0.703125 1.765625q0 1.0625 -0.703125 1.765625q-0.71875 0.703125 -1.765625 0.703125zm-15.84375 1.15625l0 -1.953125l13.09375 0l2.296875 1.6875q-0.4375 10.703125 -12.125 13.984375l-1.59375 -1.953125q11.0625 -2.5625 11.59375 -11.765625l-13.265625 0zm23.719967 13.28125q8.578125 -2.21875 9.640625 -9.296875l-13.453125 0l0 -1.953125l13.546875 0l0.796875 -0.265625l1.59375 0.984375q0.515625 0.4375 -0.1875 0.796875q-1.40625 8.84375 -10.359375 11.5l-1.578125 -1.765625zm10.0 -14.34375l-12.21875 0l0 -1.953125l12.21875 0l0 1.953125zm21.850952 3.984375q-4.6875 9.734375 -15.75 10.265625q-0.4375 1.15625 -0.890625 0.171875l-0.703125 -2.296875q11.5 -0.265625 15.484375 -9.46875l1.859375 1.328125zm-12.484375 0q-2.375 -2.21875 -4.5 -3.625l1.5 -1.859375q1.859375 1.140625 4.6875 3.796875l-1.6875 1.6875zm25.496216 -1.5l8.234375 0l0 1.9375l-8.140625 0l0 1.59375q0 6.546875 -5.671875 9.921875l-1.859375 -1.421875q5.484375 -2.828125 5.484375 -8.5l0 -1.59375l-8.75 0l0 -1.9375l8.671875 0l0 -5.3125l1.765625 0q0.96875 0.078125 0.265625 0.703125l0 4.609375zm10.53186 4.515625l0 -1.953125l19.734375 0l0 1.953125l-19.734375 0z" fill-rule="nonzero"/><path fill="#004c52" d="m53.407276 582.3257l-8.84375 0l0 -1.953125l18.140625 0l0 1.953125l-7.25 0l0 1.140625q0 5.578125 -3.984375 9.203125l-1.78125 -1.328125q3.71875 -2.921875 3.71875 -7.875l0 -1.140625zm-5.65625 -5.40625l0 -1.953125l10.890625 0l0 1.953125l-10.890625 0zm12.03125 -3.625q1.15625 1.140625 2.484375 3.09375l-1.25 0.890625q-1.234375 -1.78125 -2.46875 -3.1875l1.234375 -0.796875zm2.125 -1.15625q1.15625 1.25 2.4843712 3.015625l-1.2499962 0.875q-1.40625 -1.9375 -2.46875 -3.0l1.234375 -0.890625zm19.114986 7.265625l5.21875 0l0 1.9375l-5.125 0l0 1.6875q0 6.640625 -7.0 9.46875l-1.40625 -1.59375q6.375 -2.125 6.375 -7.703125l0 -1.859375l-5.84375 0l0.078125 4.515625l-1.9375 0l-0.09375 -4.515625l-4.953125 0l0 -1.9375l4.953125 0l-0.09375 -4.703125l1.859375 0q0.890625 0.09375 0.09375 0.890625l0.09375 3.8125l5.75 0l0 -5.40625l1.953125 0q0.875 0.09375 0.078125 0.890625l0 4.515625zm1.59375 -5.84375q1.421875 1.234375 2.828125 2.921875l-1.140625 0.96875q-1.421875 -1.765625 -2.65625 -2.828125l0.96875 -1.0625zm1.6875 -1.5q1.5 1.234375 2.828125 2.90625l-1.15625 0.984375q-1.328125 -1.78125 -2.65625 -2.828125l0.984375 -1.0625zm4.6875 12.65625q9.296875 -3.90625 14.078125 -10.984375l1.671875 1.421875q0.703125 0.53125 -0.609375 0.796875q-1.6875 2.203125 -4.34375 4.515625l0 12.03125l-2.03125 0l0 -10.359375q-3.109375 2.390625 -7.265625 4.34375l-1.5 -1.765625zm35.75183 -3.8125q-4.6875 9.734375 -15.75 10.265625q-0.4375 1.15625 -0.890625 0.171875l-0.703125 -2.296875q11.5 -0.265625 15.484375 -9.46875l1.859375 1.328125zm-12.484375 0q-2.375 -2.21875 -4.5 -3.625l1.5 -1.859375q1.859375 1.140625 4.6875 3.796875l-1.6875 1.6875zm25.496216 -1.5l8.234375 0l0 1.9375l-8.140625 0l0 1.59375q0 6.546875 -5.671875 9.921875l-1.859375 -1.421875q5.484375 -2.828125 5.484375 -8.5l0 -1.59375l-8.75 0l0 -1.9375l8.671875 0l0 -5.3125l1.765625 0q0.96875 0.078125 0.265625 0.703125l0 4.609375z" fill-rule="nonzero"/><path fill="#004c52" d="m61.282276 647.2788q-1.046875 7.171875 -4.234375 10.4375q-2.84375 2.921875 -7.703125 4.515625l-1.59375 -1.859375q4.78125 -1.328125 7.34375 -3.71875q3.1875 -3.0 4.078125 -10.796875l2.109375 0.625q0.890625 0.265625 0 0.796875zm-14.5 5.578125q-1.15625 -2.75 -2.578125 -5.140625l1.953125 -1.0625q1.328125 2.125 2.65625 5.140625l-2.03125 1.0625zm5.484375 -1.6875q-1.25 -2.828125 -2.578125 -4.78125l2.046875 -0.96875q1.328125 1.859375 2.5625 4.6875l-2.03125 1.0625zm11.855587 3.546875q9.296875 -3.90625 14.078125 -10.984375l1.671875 1.421875q0.703125 0.53125 -0.609375 0.796875q-1.6875 2.203125 -4.34375 4.515625l0 12.03125l-2.03125 0l0 -10.359375q-3.109375 2.390625 -7.265625 4.34375l-1.5 -1.765625zm32.56433 -4.34375q-0.609375 5.75 -3.1875 8.3125q-2.5625 2.578125 -6.71875 4.078125l-1.15625 -1.6875q4.078125 -1.328125 6.375 -3.625q2.484375 -2.46875 2.828125 -8.40625l1.859375 0.625q0.796875 0.265625 0 0.703125zm-7.515625 3.1875q-1.0625 -2.390625 -2.125 -3.984375l1.671875 -0.890625q1.328125 1.6875 2.3125 3.984375l-1.859375 0.890625zm-4.515625 1.328125q-1.0625 -2.484375 -2.21875 -4.15625l1.78125 -0.890625q1.234375 1.6875 2.203125 4.078125l-1.765625 0.96875zm22.122559 -10.1875q-0.359375 1.0625 -0.890625 2.046875l5.9375 0l0.96875 -0.359375l1.15625 1.15625q0.359375 0.4375 -0.359375 0.703125q-0.703125 3.546875 -2.125 6.46875l2.125 1.40625l-1.328125 1.953125l-1.9375 -1.421875q-2.578125 3.71875 -7.34375 6.109375l-2.046875 -1.5q5.3125 -2.21875 7.609375 -5.84375q-2.203125 -1.421875 -4.328125 -2.5625l1.0625 -1.59375q2.734375 1.234375 4.515625 2.296875q1.328125 -2.75 1.59375 -4.875l-6.46875 0q-1.671875 3.015625 -4.15625 5.5l-1.6875 -1.15625q4.515625 -4.6875 5.9375 -9.90625l2.125 0.875q0.703125 0.359375 -0.359375 0.703125zm9.736816 9.21875l0 -1.953125l19.734375 0l0 1.953125l-19.734375 0zm37.972656 -0.453125q0 -2.921875 2.296875 -5.21875q2.5625 -2.5625 7.4375 -2.5625q4.515625 0 6.8125 2.296875q1.9375 1.953125 1.9375 4.15625q0 2.484375 -1.40625 3.890625q-1.515625 1.515625 -4.25 1.515625q-1.234375 0 -1.6875 -0.453125q-0.53125 -0.53125 -0.4375 -1.328125l-0.625 0.625q-1.234375 1.15625 -2.828125 1.15625q-1.5 0 -2.390625 -0.890625q-0.890625 -0.890625 -0.890625 -2.5625q0 -1.953125 1.78125 -3.71875q1.59375 -1.59375 3.796875 -1.59375q1.953125 0 2.484375 1.5l0.09375 0.265625l0.609375 -1.671875l2.046875 0q-1.328125 3.453125 -2.046875 5.578125q-0.265625 0.796875 -0.265625 1.140625q0 0.359375 0.1875 0.53125q0.265625 0.265625 0.796875 0.265625q1.84375 0 2.90625 -1.0625q1.15625 -1.140625 1.15625 -3.1875q0 -1.859375 -1.6875 -3.53125q-2.03125 -2.046875 -6.09375 -2.046875q-4.4375 0 -6.734375 2.3125q-2.03125 2.03125 -2.03125 4.59375q0 2.75 1.859375 4.609375q2.03125 2.03125 5.3125 2.03125q2.921875 0 4.78125 -0.53125q1.0625 -0.265625 2.203125 -0.890625l0.53125 0.796875q-1.0625 0.625 -2.390625 0.984375q-2.296875 0.609375 -5.125 0.609375q-3.71875 0 -6.015625 -2.296875q-2.125 -2.125 -2.125 -5.3125zm9.546875 -3.265625q-1.140625 0 -2.296875 1.140625q-1.234375 1.25 -1.234375 2.75q0 0.96875 0.4375 1.40625q0.4375 0.453125 1.328125 0.453125q1.15625 0 2.125 -0.96875q0.796875 -0.796875 1.15625 -1.421875q0.34375 -0.625 0.34375 -1.0625l0 -0.703125q-0.4375 -1.59375 -1.859375 -1.59375z" fill-rule="nonzero"/><path fill="#004c52" d="m177.19048 646.93506l2.109375 0l7.21875 11.71875l-0.15625 0l0 -11.71875l1.765625 0l0 14.234375l-1.96875 0l-7.46875 -12.09375l0.265625 0l0 12.09375l-1.765625 0l0 -14.234375zm13.731384 3.40625l1.96875 0l3.53125 9.28125l-0.40625 0l2.75 -9.28125l1.8125 0l-4.078125 13.0q-0.515625 1.640625 -1.375 2.515625q-0.84375 0.890625 -2.171875 0.890625q-0.703125 0 -1.34375 -0.203125q-0.640625 -0.203125 -1.328125 -0.59375l0 -1.625q0.609375 0.46875 1.171875 0.671875q0.5625 0.203125 1.171875 0.203125q0.671875 0 1.125 -0.4375q0.46875 -0.421875 0.765625 -1.09375q0.3125 -0.671875 0.53125 -1.40625l0.3125 -1.09375l-4.4375 -10.828125zm19.04657 10.828125l-0.234375 -2.375l0 -4.65625q0 -1.453125 -0.625 -2.09375q-0.625 -0.640625 -1.859375 -0.640625q-0.703125 0 -1.28125 0.203125q-0.578125 0.203125 -0.90625 0.640625q-0.328125 0.421875 -0.328125 1.078125l-1.96875 0q0 -1.171875 0.578125 -1.890625q0.578125 -0.71875 1.578125 -1.046875q1.015625 -0.328125 2.328125 -0.328125q1.234375 0 2.203125 0.421875q0.96875 0.421875 1.5 1.34375q0.546875 0.90625 0.546875 2.359375l0 6.984375l-1.53125 0zm-3.703125 0.265625q-1.328125 0 -2.203125 -0.46875q-0.875 -0.484375 -1.3125 -1.234375q-0.421875 -0.765625 -0.421875 -1.59375q0 -1.109375 0.546875 -1.796875q0.546875 -0.6875 1.5 -1.0q0.953125 -0.328125 2.140625 -0.328125q0.859375 0 1.703125 0.171875q0.859375 0.15625 1.671875 0.453125l0 1.109375q-0.671875 -0.265625 -1.53125 -0.421875q-0.859375 -0.15625 -1.5625 -0.15625q-1.09375 0 -1.84375 0.453125q-0.75 0.4375 -0.75 1.515625q0 0.78125 0.578125 1.359375q0.578125 0.5625 1.828125 0.5625q0.890625 0 1.59375 -0.40625q0.703125 -0.421875 1.109375 -1.046875q0.421875 -0.625 0.421875 -1.25l0.4375 0q0 1.09375 -0.46875 2.03125q-0.46875 0.921875 -1.34375 1.484375q-0.875 0.5625 -2.09375 0.5625zm24.691116 -0.265625l0 -6.359375q0 -1.5625 -0.75 -2.359375q-0.734375 -0.8125 -2.0 -0.8125q-1.46875 0 -2.25 1.140625q-0.78125 1.125 -0.78125 3.140625l-0.8125 0q0 -1.46875 0.28125 -2.5625q0.296875 -1.109375 0.84375 -1.828125q0.5625 -0.734375 1.34375 -1.09375q0.796875 -0.375 1.8125 -0.375q1.28125 0 2.1875 0.578125q0.921875 0.578125 1.40625 1.640625q0.484375 1.0625 0.484375 2.53125l0 6.359375l-1.765625 0zm-15.234375 0l0 -10.828125l1.53125 0l0.203125 2.171875q0.5 -1.171875 1.421875 -1.8125q0.921875 -0.640625 2.21875 -0.640625q1.28125 0 2.1875 0.578125q0.921875 0.578125 1.40625 1.640625q0.484375 1.0625 0.484375 2.53125l0 6.359375l-1.75 0l0 -6.359375q0 -1.5625 -0.75 -2.359375q-0.734375 -0.8125 -2.0 -0.8125q-0.984375 0 -1.703125 0.53125q-0.703125 0.53125 -1.09375 1.53125q-0.375 0.984375 -0.375 2.34375l0 5.125l-1.78125 0zm24.960724 0.265625q-1.40625 0 -2.515625 -0.71875q-1.09375 -0.71875 -1.734375 -2.0q-0.640625 -1.28125 -0.640625 -2.9375q0 -1.78125 0.625 -3.0625q0.640625 -1.28125 1.75 -1.96875q1.109375 -0.6875 2.515625 -0.6875q1.234375 0 2.109375 0.5q0.875 0.5 1.40625 1.359375q0.53125 0.84375 0.734375 1.921875q0.21875 1.0625 0.125 2.203125l-7.84375 0l0 -1.078125l6.671875 0l-0.515625 0.328125q0.03125 -0.65625 -0.078125 -1.328125q-0.109375 -0.671875 -0.40625 -1.234375q-0.28125 -0.5625 -0.8125 -0.890625q-0.53125 -0.34375 -1.359375 -0.34375q-1.046875 0 -1.75 0.53125q-0.703125 0.53125 -1.0625 1.40625q-0.34375 0.859375 -0.34375 1.859375l0 0.734375q0 1.125 0.34375 2.03125q0.34375 0.890625 1.03125 1.421875q0.703125 0.515625 1.75 0.515625q1.0625 0 1.734375 -0.515625q0.6875 -0.515625 0.828125 -1.5l1.828125 0q-0.15625 1.0625 -0.765625 1.84375q-0.59375 0.78125 -1.53125 1.203125q-0.921875 0.40625 -2.09375 0.40625zm7.868454 -14.5l4.171875 0q2.15625 0 3.7343903 0.890625q1.59375 0.875 2.46875 2.46875q0.875 1.59375 0.875 3.765625q0 2.140625 -0.875 3.734375q-0.875 1.59375 -2.46875 2.484375q-1.5781403 0.890625 -3.7343903 0.890625l-4.171875 0l0 -14.234375zm1.78125 1.5625l0 11.125l2.390625 0q1.609375 0 2.765625 -0.71875q1.1718903 -0.71875 1.7968903 -1.984375q0.625 -1.265625 0.625 -2.859375q0 -1.609375 -0.625 -2.859375q-0.625 -1.25 -1.7968903 -1.96875q-1.15625 -0.734375 -2.765625 -0.734375l-2.390625 0zm16.937637 12.9375q-1.40625 0 -2.515625 -0.71875q-1.09375 -0.71875 -1.734375 -2.0q-0.640625 -1.28125 -0.640625 -2.9375q0 -1.78125 0.625 -3.0625q0.640625 -1.28125 1.75 -1.96875q1.109375 -0.6875 2.515625 -0.6875q1.234375 0 2.109375 0.5q0.875 0.5 1.40625 1.359375q0.53125 0.84375 0.734375 1.921875q0.21875 1.0625 0.125 2.203125l-7.84375 0l0 -1.078125l6.671875 0l-0.515625 0.328125q0.03125 -0.65625 -0.078125 -1.328125q-0.109375 -0.671875 -0.40625 -1.234375q-0.28125 -0.5625 -0.8125 -0.890625q-0.53125 -0.34375 -1.359375 -0.34375q-1.046875 0 -1.75 0.53125q-0.703125 0.53125 -1.0625 1.40625q-0.34375 0.859375 -0.34375 1.859375l0 0.734375q0 1.125 0.34375 2.03125q0.34375 0.890625 1.03125 1.421875q0.703125 0.515625 1.75 0.515625q1.0625 0 1.734375 -0.515625q0.6875 -0.515625 0.828125 -1.5l1.828125 0q-0.15625 1.0625 -0.765625 1.84375q-0.59375 0.78125 -1.53125 1.203125q-0.921875 0.40625 -2.09375 0.40625zm5.9934387 -11.09375l2.015625 0l3.40625 9.3125l-0.25 0l3.390625 -9.3125l2.015625 0l-4.328125 10.828125l-1.921875 0l-4.328125 -10.828125z" fill-rule="nonzero"/><path fill="#000000" fill-opacity="0.0" d="m43.2354 710.95764l0 0l0 42.08374l0 0l0 -42.08374z" fill-rule="nonzero"/><path fill="#000000" fill-opacity="0.0" d="m0 1015.5906l885.4803 0l0 58.173218l-885.4803 0z" fill-rule="evenodd"/><path fill="#000000" d="m62.375 1032.6549l3.75 -4.453125l1.328125 0l-4.421875 5.234375l4.421875 5.234375l-1.328125 0l-3.75 -4.4375l-3.765625 4.4375l-1.3125 0l4.40625 -5.234375l-4.40625 -5.234375l1.3125 0l3.765625 4.453125zm-0.921875 -3.453125q0 -0.5 0.234375 -0.75q0.25 -0.25 0.6875 -0.25q0.421875 0 0.65625 0.265625q0.25 0.25 0.25 0.734375q0 0.46875 -0.25 0.734375q-0.234375 0.265625 -0.65625 0.265625q-0.4375 0 -0.6875 -0.25q-0.234375 -0.25 -0.234375 -0.75zm4.171875 4.234375q0 -0.984375 0.921875 -0.984375q0.4375 0 0.671875 0.265625q0.234375 0.25 0.234375 0.71875q0 0.46875 -0.25 0.734375q-0.234375 0.265625 -0.65625 0.265625q-0.4375 0 -0.6875 -0.265625q-0.234375 -0.265625 -0.234375 -0.734375zm-8.328125 0q0 -0.984375 0.90625 -0.984375q0.453125 0 0.671875 0.265625q0.234375 0.25 0.234375 0.71875q0 0.46875 -0.25 0.734375q-0.234375 0.265625 -0.65625 0.265625q-0.421875 0 -0.671875 -0.25q-0.234375 -0.25 -0.234375 -0.75zm4.15625 4.234375q0 -1.0 0.921875 -1.0q0.421875 0 0.65625 0.265625q0.25 0.25 0.25 0.734375q0 0.484375 -0.25 0.75q-0.234375 0.25 -0.65625 0.25q-0.4375 0 -0.6875 -0.25q-0.234375 -0.25 -0.234375 -0.75z" fill-rule="nonzero"/><path fill="#000000" d="m72.10109 1038.8424q-0.703125 0 -1.34375 -0.1875q-0.640625 -0.203125 -1.15625 -0.578125q-0.5 -0.375 -0.796875 -0.921875q-0.28125 -0.5625 -0.28125 -1.296875l1.171875 0q0.015625 0.625 0.328125 1.0625q0.328125 0.4375 0.859375 0.65625q0.546875 0.21875 1.21875 0.21875q1.015625 0 1.578125 -0.5q0.5625 -0.5 0.5625 -1.25q0 -0.46875 -0.234375 -0.828125q-0.234375 -0.375 -0.75 -0.578125q-0.5 -0.21875 -1.328125 -0.21875l-1.03125 0l0 -0.90625l0.703125 0q1.0625 0 1.671875 -0.421875q0.625 -0.4375 0.625 -1.171875q0 -0.671875 -0.5 -1.125q-0.5 -0.453125 -1.421875 -0.453125q-0.703125 0 -1.265625 0.296875q-0.5625 0.28125 -0.75 1.0625l-1.171875 0q0.109375 -0.859375 0.546875 -1.390625q0.4375 -0.53125 1.109375 -0.765625q0.6875 -0.234375 1.5 -0.234375q0.921875 0 1.640625 0.328125q0.71875 0.3125 1.125 0.875q0.421875 0.5625 0.421875 1.296875q0 0.71875 -0.421875 1.25q-0.40625 0.515625 -1.1875 0.78125q0.859375 0.25 1.40625 0.828125q0.5625 0.578125 0.5625 1.46875q0 0.78125 -0.421875 1.40625q-0.40625 0.609375 -1.171875 0.953125q-0.75 0.34375 -1.796875 0.34375zm5.7794037 -9.375l2.6875 0q1.390625 0 2.421875 0.578125q1.03125 0.5625 1.59375 1.59375q0.5625 1.03125 0.5625 2.421875q0 1.390625 -0.5625 2.421875q-0.5625 1.03125 -1.59375 1.609375q-1.03125 0.578125 -2.421875 0.578125l-2.6875 0l0 -9.203125zm1.140625 1.015625l0 7.1875l1.546875 0q1.046875 0 1.796875 -0.46875q0.75 -0.46875 1.15625 -1.28125q0.40625 -0.8125 0.40625 -1.859375q0 -1.03125 -0.40625 -1.84375q-0.40625 -0.8125 -1.15625 -1.265625q-0.75 -0.46875 -1.796875 -0.46875l-1.546875 0z" fill-rule="nonzero"/><path fill="#000000" d="m98.08475 1038.4987l-5.09375 0q-1.46875 0 -1.46875 -1.53125l0 -3.15625l-4.6875 0l0 -1.296875l4.6875 0l0 -2.6875l-3.578125 0l0 -1.296875l9.3125 0l0 1.296875l-4.390625 0l0 2.6875l5.859375 0l0 1.296875l-5.859375 0l0 2.6875q0 0.703125 0.640625 0.703125l4.640625 0l-0.0625 1.296875zm8.1953125 -5.6875l-5.859375 0l0 -1.296875l12.015625 0l0 1.296875l-4.796875 0l0 0.765625q0 3.6875 -2.640625 6.09375l-1.171875 -0.875q2.453125 -1.9375 2.453125 -5.21875l0 -0.765625zm-3.75 -3.578125l0 -1.28125l7.21875 0l0 1.28125l-7.21875 0zm7.96875 -2.40625q0.765625 0.765625 1.640625 2.0625l-0.8125 0.578125q-0.828125 -1.171875 -1.640625 -2.109375l0.8125 -0.53125zm1.40625 -0.75q0.765625 0.8125 1.640625 1.984375l-0.8125 0.59375q-0.9375 -1.296875 -1.640625 -2.0l0.8125 -0.578125zm11.1328125 7.4375q0 4.390625 -4.09375 6.328125l-1.171875 -1.0q3.859375 -1.75 3.921875 -5.390625l0 -5.859375l1.234375 0q0.578125 0.125 0.109375 0.46875l0 5.453125zm-6.03125 1.28125l-1.34375 0l0 -6.609375l1.28125 0q0.59375 0.046875 0.0625 0.46875l0 6.140625zm20.332031 -2.921875q-3.109375 6.4375 -10.421875 6.796875q-0.296875 0.765625 -0.59375 0.125l-0.46875 -1.53125q7.625 -0.171875 10.25 -6.265625l1.234375 0.875zm-8.265625 0q-1.578125 -1.46875 -2.984375 -2.40625l1.0 -1.234375q1.234375 0.765625 3.109375 2.53125l-1.125 1.109375zm19.933594 -1.234375q-1.125 6.390625 -7.328125 9.140625l-1.0625 -1.109375q5.75 -2.34375 6.921875 -8.09375l-4.6875 0q-1.34375 2.234375 -2.8125 3.578125l-1.171875 -0.765625q3.046875 -2.75 3.921875 -6.4375l1.34375 0.46875q0.359375 0.171875 -0.109375 0.34375q-0.234375 0.765625 -0.640625 1.53125l4.21875 0l0.515625 -0.296875l1.0625 1.0625q0.40625 0.40625 -0.171875 0.578125zm0.34375 -1.40625q-0.9375 -1.34375 -1.8125 -2.046875l0.765625 -0.640625q0.984375 0.875 1.875 2.046875l-0.828125 0.640625zm1.703125 -0.703125q-0.9375 -1.171875 -1.703125 -1.875l0.703125 -0.703125q0.875 0.828125 1.703125 1.875l-0.703125 0.703125zm9.261719 1.875q-1.0 5.859375 -2.40625 7.265625q-0.765625 0.765625 -1.578125 0.765625q-0.9375 0 -1.46875 -0.53125q-1.40625 -1.40625 -1.40625 -3.515625q0 -2.578125 1.8125 -4.390625q2.0 -2.0 4.859375 -2.0q2.578125 0 4.046875 1.46875q1.640625 1.640625 1.640625 3.875q0 2.390625 -1.515625 3.921875q-1.0 1.0 -3.046875 1.9375l-1.234375 -1.234375q2.046875 -0.640625 3.21875 -1.8125q1.109375 -1.125 1.109375 -2.703125q0 -1.875 -1.21875 -3.109375q-1.234375 -1.21875 -3.875 -1.109375l1.0625 0.53125q0.703125 0.296875 0 0.640625zm-1.359375 -1.109375q-1.515625 0.34375 -2.625 1.46875q-1.53125 1.515625 -1.53125 3.75q0 1.34375 0.875 2.21875q0.1875 0.171875 0.53125 0.171875q0.359375 0 0.765625 -0.40625q1.34375 -1.34375 1.984375 -7.203125zm14.953125 -2.171875l1.28125 0q0.59375 0.125 0.0625 0.46875l0 2.40625q0.40625 5.625 5.96875 8.03125l-0.703125 1.46875q-4.03125 -1.765625 -5.734375 -6.390625q-1.234375 4.390625 -5.5625 6.390625l-0.890625 -1.296875q5.578125 -2.171875 5.578125 -8.03125l0 -3.046875zm19.09375 2.171875q2.40625 2.453125 3.28125 5.921875l-1.28125 0.515625q-1.0625 -3.796875 -3.046875 -5.671875l1.046875 -0.765625zm-1.75 4.6875q0 3.390625 -1.0 4.390625q-0.59375 0.59375 -1.34375 0.59375q-1.125 0 -2.234375 -1.296875l0.765625 -1.046875q0.9375 0.9375 1.40625 0.9375q0.296875 0 0.53125 -0.234375q0.640625 -0.65625 0.640625 -3.578125q0 -1.640625 -0.359375 -2.0q-0.171875 -0.171875 -0.703125 -0.171875q-0.515625 0 -1.453125 0.125q-1.234375 4.328125 -2.9375 7.4375l-1.34375 -0.46875q1.703125 -2.640625 2.984375 -6.859375q-1.28125 0.171875 -2.515625 0.296875l-0.125 -1.296875q1.0625 0 2.9375 -0.171875q0.53125 -1.8125 0.875 -3.6875l1.234375 0.40625q0.703125 0.296875 -0.0625 0.53125q-0.34375 1.234375 -0.703125 2.640625q0.703125 -0.125 1.46875 -0.125q0.8125 0 1.234375 0.40625q0.703125 0.703125 0.703125 3.171875zm3.28125 -7.734375q1.046875 0.578125 2.34375 1.640625l-0.703125 0.703125q-1.296875 -1.0 -2.34375 -1.640625l0.703125 -0.703125zm0.40625 3.75q-1.34375 -1.109375 -2.28125 -1.703125l0.703125 -0.703125q1.046875 0.59375 2.34375 1.640625l-0.765625 0.765625zm8.84375 5.734375q-0.53125 1.359375 -1.109375 2.0625q-0.828125 1.0 -1.640625 1.0q-1.46875 0 -2.171875 -1.703125q-0.40625 -1.0 -0.40625 -4.28125q0 -2.34375 0.234375 -4.75l1.234375 0.296875q0.703125 0.171875 0.046875 0.578125q-0.234375 2.171875 -0.234375 3.9375q0 2.390625 0.296875 3.390625q0.296875 1.0 0.875 1.0q0.65625 0 1.125 -0.9375q0.28125 -0.59375 0.578125 -1.40625l1.171875 0.8125zm3.453125 -6.84375q2.640625 2.75 3.234375 6.671875l-1.59375 0.40625q-0.703125 -4.09375 -2.859375 -6.375l1.21875 -0.703125zm13.7109375 3.15625q0.65625 0.125 0.125 0.46875l0 3.40625q1.46875 0.46875 3.046875 1.28125l-0.703125 1.109375q-1.296875 -0.75 -2.34375 -1.109375q-0.171875 1.234375 -0.765625 1.828125q-0.703125 0.703125 -1.9375 0.703125q-1.640625 0 -2.28125 -0.65625q-0.578125 -0.578125 -0.578125 -1.515625q0 -0.765625 0.578125 -1.359375q0.765625 -0.75 2.234375 -0.75q0.984375 0 1.578125 0.171875l0 -3.578125l1.046875 0zm-6.265625 -1.40625q-0.9375 0.125 -2.34375 0.125l-0.171875 -1.234375q1.46875 0 2.921875 -0.125q0.296875 -1.046875 0.703125 -2.8125l1.0625 0.359375q0.578125 0.234375 0 0.46875l-0.53125 1.875q1.0 -0.125 2.046875 -0.40625l0.296875 1.21875q-1.640625 0.359375 -2.6875 0.421875q-0.9375 2.984375 -2.765625 6.5l-1.171875 -0.59375q1.828125 -3.21875 2.640625 -5.796875zm5.625 -1.75q1.640625 0.515625 3.921875 1.40625l-0.515625 1.21875q-2.46875 -1.046875 -3.875 -1.453125l0.46875 -1.171875zm-0.40625 7.84375q-0.703125 -0.234375 -1.578125 -0.234375q-0.9375 0 -1.296875 0.359375q-0.296875 0.28125 -0.296875 0.703125q0 0.40625 0.234375 0.640625q0.359375 0.34375 1.234375 0.34375q0.828125 0 1.171875 -0.34375q0.53125 -0.53125 0.53125 -1.46875zm11.597656 -1.0q-0.53125 1.359375 -1.109375 2.0625q-0.828125 1.0 -1.640625 1.0q-1.46875 0 -2.171875 -1.703125q-0.40625 -1.0 -0.40625 -4.28125q0 -2.34375 0.234375 -4.75l1.234375 0.296875q0.703125 0.171875 0.046875 0.578125q-0.234375 2.171875 -0.234375 3.9375q0 2.390625 0.296875 3.390625q0.296875 1.0 0.875 1.0q0.65625 0 1.125 -0.9375q0.28125 -0.59375 0.578125 -1.40625l1.171875 0.8125zm3.453125 -6.84375q2.640625 2.75 3.234375 6.671875l-1.59375 0.40625q-0.703125 -4.09375 -2.859375 -6.375l1.21875 -0.703125zm12.2578125 1.515625q-1.0 5.859375 -2.40625 7.265625q-0.765625 0.765625 -1.578125 0.765625q-0.9375 0 -1.46875 -0.53125q-1.40625 -1.40625 -1.40625 -3.515625q0 -2.578125 1.8125 -4.390625q2.0 -2.0 4.859375 -2.0q2.578125 0 4.046875 1.46875q1.640625 1.640625 1.640625 3.875q0 2.390625 -1.515625 3.921875q-1.0 1.0 -3.046875 1.9375l-1.234375 -1.234375q2.046875 -0.640625 3.21875 -1.8125q1.109375 -1.125 1.109375 -2.703125q0 -1.875 -1.21875 -3.109375q-1.234375 -1.21875 -3.875 -1.109375l1.0625 0.53125q0.703125 0.296875 0 0.640625zm-1.359375 -1.109375q-1.515625 0.34375 -2.625 1.46875q-1.53125 1.515625 -1.53125 3.75q0 1.34375 0.875 2.21875q0.1875 0.171875 0.53125 0.171875q0.359375 0 0.765625 -0.40625q1.34375 -1.34375 1.984375 -7.203125zm20.921875 0.171875q-2.046875 0 -3.21875 0.40625q-1.296875 0.46875 -2.40625 1.59375q-1.109375 1.109375 -1.109375 2.859375q0 1.40625 0.875 2.296875q1.171875 1.171875 4.515625 1.28125l-0.46875 1.296875q-3.453125 -0.171875 -4.8125 -1.53125q-1.34375 -1.34375 -1.34375 -3.28125q0 -2.75 2.171875 -4.328125q-2.75 0.40625 -5.625 0.8125l-0.359375 -1.34375q5.75 -0.40625 11.546875 -1.40625l0.234375 1.34375zm-1.28125 4.578125q-1.296875 -0.9375 -2.234375 -1.46875l0.59375 -0.703125q0.875 0.53125 2.21875 1.46875l-0.578125 0.703125zm1.171875 -1.40625q-1.40625 -1.0 -2.234375 -1.46875l0.59375 -0.703125q0.8125 0.46875 2.21875 1.46875l-0.578125 0.703125zm5.3789062 7.4375q-1.40625 -1.578125 -2.921875 -2.578125l0.875 -1.171875q1.875 1.109375 3.109375 2.515625l-1.0625 1.234375z" fill-rule="nonzero"/><path fill="#ffffff" d="m360.34647 1036.9049l-1.171875 0l0 -10.484375l4.390625 0l0 1.109375l-3.21875 0l0 9.375z" fill-rule="nonzero"/><path fill="#ffffff" d="m369.47147 1038.8424q-1.21875 0 -2.09375 -0.609375q-0.875 -0.609375 -1.359375 -1.6875q-0.46875 -1.09375 -0.46875 -2.53125q0 -1.53125 0.515625 -2.578125q0.515625 -1.046875 1.40625 -1.578125q0.890625 -0.546875 2.0 -0.546875q1.46875 0 2.359375 0.734375q0.90625 0.734375 1.25 1.90625l-1.234375 0.25q-0.28125 -0.859375 -0.90625 -1.359375q-0.625 -0.515625 -1.46875 -0.515625q-0.71875 0 -1.34375 0.421875q-0.609375 0.40625 -0.984375 1.234375q-0.359375 0.8125 -0.359375 2.03125q0 1.09375 0.296875 1.953125q0.296875 0.859375 0.890625 1.359375q0.59375 0.484375 1.5 0.484375q1.09375 0 1.734375 -0.578125q0.640625 -0.59375 0.640625 -1.546875l1.25 0q0 0.984375 -0.453125 1.6875q-0.453125 0.703125 -1.28125 1.09375q-0.8125 0.375 -1.890625 0.375zm5.7966614 -0.171875l0 -7.015625l1.140625 0l0 7.015625l-1.140625 0zm0.78125 -3.171875q0 -1.328125 0.25 -2.203125q0.265625 -0.890625 0.765625 -1.328125q0.5 -0.4375 1.203125 -0.4375q0.234375 0 0.421875 0.03125q0.203125 0.03125 0.40625 0.109375l-0.078125 1.125q-0.203125 -0.0625 -0.453125 -0.109375q-0.234375 -0.046875 -0.421875 -0.046875q-0.625 0 -1.015625 0.359375q-0.375 0.34375 -0.546875 1.0q-0.171875 0.640625 -0.171875 1.5l-0.359375 0zm6.9388123 3.34375q-0.90625 0 -1.625 -0.453125q-0.703125 -0.46875 -1.125 -1.296875q-0.40625 -0.828125 -0.40625 -1.90625q0 -1.15625 0.40625 -1.984375q0.40625 -0.828125 1.125 -1.265625q0.71875 -0.453125 1.625 -0.453125q0.8125 0 1.375 0.328125q0.5625 0.328125 0.90625 0.875q0.34375 0.546875 0.46875 1.25q0.140625 0.6875 0.078125 1.421875l-5.0625 0l0 -0.703125l4.3125 0l-0.328125 0.21875q0.015625 -0.4375 -0.0625 -0.859375q-0.0625 -0.4375 -0.25 -0.796875q-0.1875 -0.359375 -0.53125 -0.578125q-0.34375 -0.234375 -0.890625 -0.234375q-0.671875 0 -1.125 0.359375q-0.453125 0.34375 -0.6875 0.90625q-0.21875 0.546875 -0.21875 1.203125l0 0.46875q0 0.734375 0.21875 1.3125q0.234375 0.578125 0.671875 0.921875q0.453125 0.328125 1.125 0.328125q0.6875 0 1.125 -0.328125q0.4375 -0.328125 0.53125 -0.96875l1.1875 0q-0.109375 0.6875 -0.5 1.203125q-0.375 0.5 -0.984375 0.765625q-0.59375 0.265625 -1.359375 0.265625zm9.432159 -0.171875l-0.140625 -1.53125l0 -3.015625q0 -0.9375 -0.40625 -1.34375q-0.40625 -0.421875 -1.203125 -0.421875q-0.453125 0 -0.828125 0.140625q-0.375 0.125 -0.59375 0.40625q-0.203125 0.265625 -0.203125 0.6875l-1.28125 0q0 -0.75 0.375 -1.21875q0.375 -0.46875 1.03125 -0.671875q0.65625 -0.21875 1.5 -0.21875q0.796875 0 1.421875 0.28125q0.625 0.265625 0.96875 0.859375q0.359375 0.59375 0.359375 1.53125l0 4.515625l-1.0 0zm-2.390625 0.171875q-0.859375 0 -1.421875 -0.296875q-0.5625 -0.3125 -0.84375 -0.796875q-0.28125 -0.5 -0.28125 -1.046875q0 -0.703125 0.359375 -1.140625q0.359375 -0.453125 0.96875 -0.65625q0.625 -0.21875 1.390625 -0.21875q0.546875 0 1.09375 0.109375q0.5625 0.109375 1.09375 0.296875l0 0.71875q-0.453125 -0.171875 -1.0 -0.265625q-0.546875 -0.109375 -1.015625 -0.109375q-0.703125 0 -1.1875 0.296875q-0.484375 0.28125 -0.484375 0.96875q0 0.515625 0.375 0.890625q0.375 0.359375 1.1875 0.359375q0.5625 0 1.015625 -0.265625q0.46875 -0.265625 0.734375 -0.671875q0.265625 -0.40625 0.265625 -0.8125l0.28125 0q0 0.703125 -0.3125 1.3125q-0.296875 0.59375 -0.859375 0.96875q-0.5625 0.359375 -1.359375 0.359375zm8.286896 0q-0.578125 0 -1.03125 -0.21875q-0.453125 -0.21875 -0.71875 -0.65625q-0.265625 -0.4375 -0.265625 -1.09375l0 -7.15625l1.125 0l0 7.125q0 1.078125 1.015625 1.078125q0.296875 0 0.578125 -0.0625q0.28125 -0.0625 0.640625 -0.203125l0.15625 0.828125q-0.375 0.15625 -0.75 0.25q-0.359375 0.109375 -0.75 0.109375zm-3.140625 -6.390625l0 -0.78125l4.46875 0l0 0.78125l-4.46875 0zm7.135681 -2.4375q-0.359375 0 -0.5625 -0.203125q-0.203125 -0.203125 -0.203125 -0.53125q0 -0.328125 0.203125 -0.515625q0.203125 -0.1875 0.5625 -0.1875q0.359375 0 0.5625 0.1875q0.203125 0.1875 0.203125 0.515625q0 0.328125 -0.203125 0.53125q-0.203125 0.203125 -0.5625 0.203125zm-0.578125 8.65625l0 -7.015625l1.15625 0l0 7.015625l-1.15625 0zm3.0862732 -7.0l1.296875 0l2.203125 6.015625l-0.15625 0l2.1875 -6.015625l1.3125 0l-2.796875 7.0l-1.25 0l-2.796875 -7.0zm11.00528 7.171875q-0.90625 0 -1.625 -0.453125q-0.703125 -0.46875 -1.125 -1.296875q-0.40625 -0.828125 -0.40625 -1.90625q0 -1.15625 0.40625 -1.984375q0.40625 -0.828125 1.125 -1.265625q0.71875 -0.453125 1.625 -0.453125q0.8125 0 1.375 0.328125q0.5625 0.328125 0.90625 0.875q0.34375 0.546875 0.46875 1.25q0.140625 0.6875 0.078125 1.421875l-5.0625 0l0 -0.703125l4.3125 0l-0.328125 0.21875q0.015625 -0.4375 -0.0625 -0.859375q-0.0625 -0.4375 -0.25 -0.796875q-0.1875 -0.359375 -0.53125 -0.578125q-0.34375 -0.234375 -0.890625 -0.234375q-0.671875 0 -1.125 0.359375q-0.453125 0.34375 -0.6875 0.90625q-0.21875 0.546875 -0.21875 1.203125l0 0.46875q0 0.734375 0.21875 1.3125q0.234375 0.578125 0.671875 0.921875q0.453125 0.328125 1.125 0.328125q0.6875 0 1.125 -0.328125q0.4375 -0.328125 0.53125 -0.96875l1.1875 0q-0.109375 0.6875 -0.5 1.203125q-0.375 0.5 -0.984375 0.765625q-0.59375 0.265625 -1.359375 0.265625zm11.772339 0q-1.21875 0 -2.09375 -0.609375q-0.875 -0.609375 -1.359375 -1.6875q-0.46875 -1.09375 -0.46875 -2.53125q0 -1.53125 0.515625 -2.578125q0.515625 -1.046875 1.40625 -1.578125q0.890625 -0.546875 2.0 -0.546875q1.46875 0 2.359375 0.734375q0.90625 0.734375 1.25 1.90625l-1.234375 0.25q-0.28125 -0.859375 -0.90625 -1.359375q-0.625 -0.515625 -1.46875 -0.515625q-0.71875 0 -1.34375 0.421875q-0.609375 0.40625 -0.984375 1.234375q-0.359375 0.8125 -0.359375 2.03125q0 1.09375 0.296875 1.953125q0.296875 0.859375 0.890625 1.359375q0.59375 0.484375 1.5 0.484375q1.09375 0 1.734375 -0.578125q0.640625 -0.59375 0.640625 -1.546875l1.25 0q0 0.984375 -0.453125 1.6875q-0.453125 0.703125 -1.28125 1.09375q-0.8125 0.375 -1.890625 0.375zm8.327911 0q-0.9375 0 -1.6875 -0.40625q-0.734375 -0.421875 -1.15625 -1.234375q-0.421875 -0.828125 -0.421875 -2.03125q0 -1.21875 0.421875 -2.03125q0.421875 -0.8125 1.15625 -1.234375q0.75 -0.421875 1.6875 -0.421875q0.9375 0 1.671875 0.421875q0.734375 0.421875 1.15625 1.234375q0.421875 0.8125 0.421875 2.03125q0 1.203125 -0.421875 2.03125q-0.421875 0.8125 -1.15625 1.234375q-0.734375 0.40625 -1.671875 0.40625zm-0.03125 -1.0q0.6875 0 1.15625 -0.3125q0.484375 -0.328125 0.71875 -0.921875q0.25 -0.609375 0.25 -1.4375q0 -1.25 -0.515625 -1.96875q-0.515625 -0.734375 -1.546875 -0.734375q-0.6875 0 -1.171875 0.328125q-0.46875 0.328125 -0.71875 0.9375q-0.234375 0.59375 -0.234375 1.4375q0 1.234375 0.515625 1.953125q0.53125 0.71875 1.546875 0.71875zm15.353302 0.828125l0 -4.125q0 -1.0 -0.484375 -1.515625q-0.46875 -0.53125 -1.28125 -0.53125q-0.953125 0 -1.46875 0.734375q-0.5 0.734375 -0.5 2.03125l-0.53125 0q0 -0.9375 0.1875 -1.640625q0.1875 -0.71875 0.546875 -1.1875q0.359375 -0.484375 0.875 -0.71875q0.515625 -0.234375 1.15625 -0.234375q0.828125 0 1.421875 0.375q0.59375 0.375 0.90625 1.0625q0.3125 0.6875 0.3125 1.625l0 4.125l-1.140625 0zm-9.84375 0l0 -7.0l0.984375 0l0.125 1.40625q0.328125 -0.765625 0.921875 -1.171875q0.609375 -0.421875 1.4375 -0.421875q0.828125 0 1.421875 0.375q0.59375 0.375 0.90625 1.0625q0.3125 0.6875 0.3125 1.625l0 4.125l-1.125 0l0 -4.125q0 -1.0 -0.484375 -1.515625q-0.484375 -0.53125 -1.3125 -0.53125q-0.625 0 -1.09375 0.34375q-0.453125 0.34375 -0.703125 0.984375q-0.25 0.640625 -0.25 1.53125l0 3.3125l-1.140625 0zm23.554504 0l0 -4.125q0 -1.0 -0.484375 -1.515625q-0.46875 -0.53125 -1.28125 -0.53125q-0.953125 0 -1.46875 0.734375q-0.5 0.734375 -0.5 2.03125l-0.53125 0q0 -0.9375 0.1875 -1.640625q0.1875 -0.71875 0.546875 -1.1875q0.359375 -0.484375 0.875 -0.71875q0.515625 -0.234375 1.15625 -0.234375q0.828125 0 1.421875 0.375q0.59375 0.375 0.90625 1.0625q0.3125 0.6875 0.3125 1.625l0 4.125l-1.140625 0zm-9.84375 0l0 -7.0l0.984375 0l0.125 1.40625q0.328125 -0.765625 0.921875 -1.171875q0.609375 -0.421875 1.4375 -0.421875q0.828125 0 1.421875 0.375q0.59375 0.375 0.90625 1.0625q0.3125 0.6875 0.3125 1.625l0 4.125l-1.125 0l0 -4.125q0 -1.0 -0.484375 -1.515625q-0.484375 -0.53125 -1.3125 -0.53125q-0.625 0 -1.09375 0.34375q-0.453125 0.34375 -0.703125 0.984375q-0.25 0.640625 -0.25 1.53125l0 3.3125l-1.140625 0zm16.242004 0.171875q-0.9375 0 -1.6875 -0.40625q-0.734375 -0.421875 -1.15625 -1.234375q-0.421875 -0.828125 -0.421875 -2.03125q0 -1.21875 0.421875 -2.03125q0.421875 -0.8125 1.15625 -1.234375q0.75 -0.421875 1.6875 -0.421875q0.9375 0 1.671875 0.421875q0.734375 0.421875 1.15625 1.234375q0.421875 0.8125 0.421875 2.03125q0 1.203125 -0.421875 2.03125q-0.421875 0.8125 -1.15625 1.234375q-0.734375 0.40625 -1.671875 0.40625zm-0.03125 -1.0q0.6875 0 1.15625 -0.3125q0.484375 -0.328125 0.71875 -0.921875q0.25 -0.609375 0.25 -1.4375q0 -1.25 -0.515625 -1.96875q-0.515625 -0.734375 -1.546875 -0.734375q-0.6875 0 -1.171875 0.328125q-0.46875 0.328125 -0.71875 0.9375q-0.234375 0.59375 -0.234375 1.4375q0 1.234375 0.515625 1.953125q0.53125 0.71875 1.546875 0.71875zm10.493927 0.828125l0 -4.125q0 -1.0 -0.484375 -1.515625q-0.484375 -0.53125 -1.3125 -0.53125q-0.625 0 -1.09375 0.34375q-0.453125 0.34375 -0.703125 0.984375q-0.25 0.640625 -0.25 1.53125l-0.4375 0q0 -1.21875 0.3125 -2.078125q0.328125 -0.875 0.9375 -1.328125q0.625 -0.46875 1.515625 -0.46875q0.828125 0 1.421875 0.375q0.59375 0.375 0.90625 1.0625q0.3125 0.6875 0.3125 1.625l0 4.125l-1.125 0zm-4.984375 0l0 -7.0l0.984375 0l0.15625 1.609375l0 5.390625l-1.140625 0zm11.360535 0.171875q-1.015625 0 -1.703125 -0.28125q-0.671875 -0.296875 -1.03125 -0.796875q-0.34375 -0.515625 -0.375 -1.171875l1.109375 0q0.03125 0.65625 0.53125 1.0q0.5 0.328125 1.375 0.328125q0.453125 0 0.828125 -0.140625q0.375 -0.15625 0.59375 -0.40625q0.234375 -0.25 0.234375 -0.578125q0 -0.40625 -0.296875 -0.640625q-0.296875 -0.234375 -0.953125 -0.421875l-1.359375 -0.4375q-0.890625 -0.28125 -1.375 -0.765625q-0.46875 -0.484375 -0.46875 -1.171875q0 -0.84375 0.75 -1.359375q0.75 -0.515625 1.96875 -0.515625q1.28125 0 1.984375 0.53125q0.71875 0.53125 0.75 1.328125l-1.125 0q-0.0625 -0.46875 -0.46875 -0.703125q-0.40625 -0.234375 -1.140625 -0.234375q-0.71875 0 -1.125 0.3125q-0.390625 0.3125 -0.390625 0.703125q0 0.734375 1.25 1.078125l1.390625 0.46875q0.90625 0.265625 1.375 0.703125q0.484375 0.4375 0.484375 1.125q0 0.53125 -0.34375 1.0q-0.34375 0.46875 -0.984375 0.765625q-0.625 0.28125 -1.484375 0.28125z" fill-rule="nonzero"/><path fill="#ffffff" d="m497.45953 1029.5924l0 10.484375l-4.390625 0l0 -1.109375l3.21875 0l0 -9.375l1.171875 0zm5.8125 -2.640625l1.21875 0q0.65625 0.109375 0.125 0.46875l0.109375 2.8125q0.0625 1.234375 0.421875 1.984375q1.640625 -0.703125 4.390625 -1.453125l0.578125 1.515625q-5.5625 1.0 -7.4375 2.875q-0.640625 0.640625 -0.640625 1.34375q0 0.53125 0.40625 0.9375q0.40625 0.40625 1.703125 0.40625l5.625 0l0 1.296875l-5.6875 0q-1.9375 0 -2.6875 -0.765625q-0.765625 -0.765625 -0.765625 -1.75q0 -1.296875 0.9375 -2.234375q0.703125 -0.703125 2.34375 -1.640625q-0.359375 -0.875 -0.40625 -1.9375l-0.234375 -3.859375zm14.171875 8.78125q-0.53125 1.359375 -1.109375 2.0625q-0.828125 1.0 -1.640625 1.0q-1.46875 0 -2.171875 -1.703125q-0.40625 -1.0 -0.40625 -4.28125q0 -2.34375 0.234375 -4.75l1.234375 0.296875q0.703125 0.171875 0.046875 0.578125q-0.234375 2.171875 -0.234375 3.9375q0 2.390625 0.296875 3.390625q0.296875 1.0 0.875 1.0q0.65625 0 1.125 -0.9375q0.28125 -0.59375 0.578125 -1.40625l1.171875 0.8125zm3.453125 -6.84375q2.640625 2.75 3.234375 6.671875l-1.59375 0.40625q-0.703125 -4.09375 -2.859375 -6.375l1.21875 -0.703125zm7.2734375 9.78125q2.40625 -0.53125 3.75 -1.875q1.109375 -1.109375 1.109375 -2.640625q0 -1.046875 -0.578125 -1.640625q-0.53125 -0.53125 -1.359375 -0.46875q-1.640625 0.171875 -4.6875 1.171875l-0.640625 -1.515625q2.234375 -0.421875 4.15625 -0.890625q1.0 -0.234375 1.53125 -0.234375q1.28125 0 2.109375 0.828125q0.9375 0.9375 0.9375 2.6875q0 2.296875 -1.578125 3.875q-1.40625 1.40625 -3.8125 2.046875l-0.9375 -1.34375zm4.859375 -9.609375q-2.34375 -0.234375 -5.6875 -0.9375l0.359375 -1.46875q3.28125 0.765625 5.625 1.0l-0.296875 1.40625zm4.5117188 8.671875q7.328125 -1.703125 7.671875 -7.796875l-8.78125 0l0 -1.28125l8.90625 0l0.8125 -0.1875l0.65625 0.59375q-0.234375 7.796875 -8.203125 9.96875l-1.0625 -1.296875zm19.273438 -4.21875q0 4.390625 -4.09375 6.328125l-1.171875 -1.0q3.859375 -1.75 3.921875 -5.390625l0 -5.859375l1.234375 0q0.578125 0.125 0.109375 0.46875l0 5.453125zm-6.03125 1.28125l-1.34375 0l0 -6.609375l1.28125 0q0.59375 0.046875 0.0625 0.46875l0 6.140625zm8.847656 -0.9375l0 -1.28125l13.0625 0l0 1.28125l-13.0625 0zm25.726562 4.640625l-5.09375 0q-1.46875 0 -1.46875 -1.53125l0 -3.15625l-4.6875 0l0 -1.296875l4.6875 0l0 -2.6875l-3.578125 0l0 -1.296875l9.3125 0l0 1.296875l-4.390625 0l0 2.6875l5.859375 0l0 1.296875l-5.859375 0l0 2.6875q0 0.703125 0.640625 0.703125l4.640625 0l-0.0625 1.296875zm8.1953125 -5.6875l-5.859375 0l0 -1.296875l12.015625 0l0 1.296875l-4.796875 0l0 0.765625q0 3.6875 -2.640625 6.09375l-1.171875 -0.875q2.453125 -1.9375 2.453125 -5.21875l0 -0.765625zm-3.75 -3.578125l0 -1.28125l7.21875 0l0 1.28125l-7.21875 0zm7.96875 -2.40625q0.765625 0.765625 1.640625 2.0625l-0.8125 0.578125q-0.828125 -1.171875 -1.640625 -2.109375l0.8125 -0.53125zm1.40625 -0.75q0.765625 0.8125 1.640625 1.984375l-0.8125 0.59375q-0.9375 -1.296875 -1.640625 -2.0l0.8125 -0.578125zm10.8515625 10.890625q2.578125 -1.0 4.734375 -3.984375l0.828125 1.109375q-2.234375 3.046875 -5.625 4.40625l-0.46875 0.234375l-0.9375 -0.703125l0.109375 -0.296875l0 -9.4375l1.234375 0q0.53125 0.125 0.125 0.46875l0 8.203125zm-7.859375 1.578125q2.9375 -2.8125 2.9375 -6.96875l0 -2.640625l1.21875 0q0.53125 0.125 0.125 0.46875l0 2.109375q0 4.921875 -3.109375 7.796875l-1.171875 -0.765625zm18.6875 -6.671875q0.703125 -0.234375 1.359375 -0.234375q0.75 0 1.21875 0.46875q0.359375 0.34375 0.421875 1.28125q1.75 -0.640625 3.984375 -1.34375l0.40625 1.40625q-2.28125 0.359375 -4.28125 1.109375l0 2.578125l-1.171875 0l0 -2.109375q-1.75 0.828125 -2.28125 1.359375q-0.640625 0.640625 -0.640625 1.28125q0 0.359375 0.34375 0.703125q0.40625 0.421875 1.578125 0.421875l4.921875 0l0 1.109375l-4.96875 0q-1.875 0 -2.640625 -0.765625q-0.59375 -0.59375 -0.59375 -1.46875q0 -0.9375 0.765625 -1.703125q1.171875 -1.171875 3.453125 -2.109375q-0.046875 -0.703125 -0.28125 -0.9375q-0.234375 -0.234375 -1.0 -0.234375q-1.171875 0 -3.578125 2.109375l-1.0 -0.984375q2.765625 -1.703125 3.75 -3.75q-1.640625 0.109375 -3.28125 0.234375l-0.234375 -1.171875q2.109375 -0.0625 3.984375 -0.1875q0.296875 -0.703125 0.703125 -2.34375l1.125 0.296875q0.578125 0.234375 0 0.46875q-0.234375 0.765625 -0.53125 1.53125q2.109375 -0.1875 4.046875 -0.46875l0.171875 1.21875q-2.28125 0.1875 -4.578125 0.359375q-0.578125 1.171875 -1.171875 1.875zm11.785156 -1.34375q0.578125 0.046875 0.0625 0.34375l0 9.140625l-1.171875 0l0 -7.5q-0.53125 1.0625 -1.171875 1.765625l-0.765625 -1.234375q2.046875 -2.109375 2.75 -6.390625l1.296875 0.359375q0.515625 0.171875 -0.125 0.40625q-0.34375 1.640625 -0.875 3.109375zm6.03125 -3.984375q0.46875 0.046875 0.0625 0.34375l0 1.46875l4.15625 0l0 1.109375l-4.15625 0l0 1.296875l3.34375 0l0 4.453125l-1.171875 0l0 -0.46875l-2.171875 0q0 1.171875 -0.46875 2.28125q1.46875 1.0 4.921875 1.578125l-0.40625 1.296875q-3.109375 -0.40625 -5.109375 -1.875q-1.453125 1.515625 -4.15625 2.046875l-0.40625 -1.109375q2.453125 -0.421875 3.6875 -1.640625q-1.171875 -1.0625 -1.640625 -2.109375l0.703125 -0.46875l-1.640625 0l0 -3.984375l3.34375 0l0 -1.296875l-3.984375 0l0 -1.109375l3.984375 0l0 -1.8125l1.109375 0zm-1.109375 7.265625l0 -2.109375l-2.171875 0l0 2.109375l2.171875 0zm3.34375 0l0 -2.109375l-2.171875 0l0 2.109375l2.171875 0zm-3.578125 2.515625q0.234375 -0.703125 0.234375 -1.578125l-1.46875 0q0.46875 0.8125 1.234375 1.578125zm13.296875 -0.59375q-0.53125 1.359375 -1.109375 2.0625q-0.828125 1.0 -1.640625 1.0q-1.46875 0 -2.171875 -1.703125q-0.40625 -1.0 -0.40625 -4.28125q0 -2.34375 0.234375 -4.75l1.234375 0.296875q0.703125 0.171875 0.046875 0.578125q-0.234375 2.171875 -0.234375 3.9375q0 2.390625 0.296875 3.390625q0.296875 1.0 0.875 1.0q0.65625 0 1.125 -0.9375q0.28125 -0.59375 0.578125 -1.40625l1.171875 0.8125zm3.453125 -6.84375q2.640625 2.75 3.234375 6.671875l-1.59375 0.40625q-0.703125 -4.09375 -2.859375 -6.375l1.21875 -0.703125zm11.7265625 6.609375q2.40625 0.53125 4.6875 1.640625l-0.640625 1.296875q-2.171875 -1.34375 -4.046875 -1.8125q0 1.515625 -0.765625 2.28125q-0.703125 0.703125 -2.28125 0.703125q-1.234375 0 -2.0 -0.765625q-0.515625 -0.53125 -0.515625 -1.46875q0 -0.8125 0.578125 -1.40625q0.765625 -0.75 2.34375 -0.75q0.46875 0 1.46875 0.046875l0 -1.8125l-4.453125 0.125l0 -1.171875l4.453125 -0.125l0 -2.046875l-5.515625 0.171875l0 -1.171875l5.515625 -0.171875l0 -2.28125l1.046875 0q0.65625 0.109375 0.125 0.46875l0 1.6875l4.796875 -0.171875l0 1.171875l-4.796875 0.171875l0 2.109375l3.8125 -0.109375l0 1.171875l-3.8125 0.109375l0 2.109375zm-1.234375 0.890625q-0.640625 -0.125 -1.28125 -0.125q-1.171875 0 -1.640625 0.46875q-0.296875 0.296875 -0.296875 0.765625q0 0.34375 0.296875 0.640625q0.40625 0.40625 1.28125 0.40625q0.703125 0 1.171875 -0.46875q0.53125 -0.515625 0.46875 -1.6875zm17.9375 0.171875q-2.53125 2.75 -5.453125 2.75q-2.109375 0 -3.109375 -1.0q-0.765625 -0.75 -0.765625 -2.921875l0 -7.859375l1.234375 0q0.53125 0.125 0.125 0.46875l0 7.390625q0 1.46875 0.515625 1.984375q0.65625 0.65625 1.9375 0.65625q2.28125 0 4.625 -2.578125l0.890625 1.109375zm13.40625 1.34375l0 1.296875l-2.578125 0q-2.21875 0 -4.21875 -1.0625l0.53125 -1.046875q1.53125 0.8125 3.6875 0.8125l2.578125 0zm-8.078125 -6.859375q-0.875 5.21875 -2.171875 8.265625l-1.28125 -0.40625q1.578125 -3.6875 2.21875 -7.734375q-1.40625 0.109375 -2.515625 0.109375l-0.234375 -1.171875q1.640625 0 2.921875 -0.109375q0.234375 -1.8125 0.421875 -3.171875l1.171875 0.234375q0.640625 0.1875 0.109375 0.46875q-0.171875 0.703125 -0.46875 2.34375q1.34375 -0.171875 2.46875 -0.46875l0.234375 1.171875q-1.53125 0.296875 -2.875 0.46875zm7.796875 2.0q-3.40625 0.109375 -5.34375 0.9375l-0.34375 -1.171875q2.515625 -1.0 5.453125 -1.0l0.234375 1.234375z" fill-rule="nonzero"/><path fill="#000000" fill-opacity="0.0" d="m42.17323 39.545933l773.8268 0l0 90.01575l-773.8268 0z" fill-rule="evenodd"/><path fill="#ffffff" d="m93.00135 71.52593q-4.046875 23.171875 -27.9375 33.781242l-5.531246 -5.8281174q21.890621 -8.9375 25.765621 -27.921875l-15.0625 0q-4.671875 7.71875 -10.765621 13.328125l-6.234375 -4.0625q11.921871 -10.765625 15.328121 -25.09375l6.15625 2.140625q3.65625 1.8125 0.046875 3.171875q-0.71875 2.359375 -1.375 3.578125l13.203125 0l2.40625 -1.34375l4.453125 4.4375q2.796875 2.828125 -0.453125 3.8125zm0.0625 -4.375q-4.015625 -5.75 -8.15625 -9.078125l4.5625 -3.84375q4.4375 3.90625 8.375 9.15625l-4.78125 3.765625zm6.328125 -2.5q-4.15625 -5.1875 -7.71875 -8.484375l4.140625 -4.15625q4.0625 3.78125 7.734375 8.484375l-4.15625 4.15625zm45.625618 32.75l-7.15625 0l0 -2.359375l-21.453133 0l0 3.421875l-7.15625 0l0 -35.5625l35.765633 0l0 34.5zm-28.609383 -27.546875l0 18.25l21.453133 0l0 -18.25l-21.453133 0zm35.964973 13.671875l0 -6.953125l49.859375 0l0 6.953125l-49.859375 0zm87.98999 -18.5q11.5 14.484375 16.35936 30.6875l-7.8906097 2.625q-5.59375 -17.734375 -14.765625 -28.5l6.296875 -4.8125zm-15.875 5.5q3.640625 2.265625 -0.03125 3.75q-3.765625 13.109375 -13.0625 25.21875l-6.828125 -4.46875q10.03125 -12.078125 13.46875 -27.484375l6.453125 2.984375zm25.078125 -17.140625q3.546875 2.984375 8.45311 8.125l-4.4687347 4.109375q-4.546875 -5.046875 -8.484375 -8.421875l4.5 -3.8125zm-5.046875 3.1875q3.9375 3.6875 8.40625 8.921875l-5.078125 3.734375q-3.796875 -5.078125 -8.15625 -8.875l4.828125 -3.78125zm46.749985 35.5q7.546875 -2.921875 16.140625 -14.78125l4.40625 5.953125q-8.796875 12.03125 -21.421875 17.046875l-2.28125 1.140625l-4.671875 -3.484375l0.65625 -1.6875l0 -35.28125l5.734375 0q4.21875 0.953125 1.4375 3.359375l0 27.734375zm-31.53125 7.578125q11.34375 -10.90625 11.34375 -25.578125l0 -10.734375l5.734375 0q4.25 0.9375 1.421875 3.34375l0 7.171875q0 18.4375 -12.3125 29.812492l-6.1875 -4.0156174zm72.296875 -25.21875l0 11.4375l-11.421875 0l0 -11.4375l11.421875 0zm57.015625 -5.328125l0 6.9375l-12.515625 0q-1.859375 16.09375 -16.875 29.078117l-7.046875 -3.9999924q15.640625 -12.453125 16.40625 -25.078125l-14.34375 0q-2.546875 5.109375 -7.546875 10.09375l-6.3125 -3.46875q10.1875 -10.40625 12.890625 -25.984375l6.515625 1.5625q4.359375 1.078125 0.265625 3.53125q-1.1875 4.34375 -2.46875 7.328125l31.03125 0zm-10.671875 -13.4375q4.1875 4.203125 8.328125 9.375l-4.46875 3.765625q-4.546875 -5.3125 -8.328125 -9.359375l4.46875 -3.78125zm5.921875 -2.34375q4.4375 4.171875 8.671875 9.203125l-5.078125 3.703125q-4.015625 -5.296875 -7.796875 -9.0625l4.203125 -3.84375zm9.755615 30.203125l0 -6.953125l49.859375 0l0 6.953125l-49.859375 0zm52.349365 7.59375l9.75 -0.234375q7.34375 -15.90625 11.65625 -34.296875l6.21875 2.15625q4.09375 2.734375 0 3.859375q-3.921875 14.625 -10.015625 27.75l18.234375 -0.859375q-3.171875 -4.25 -6.578125 -7.921875l6.140625 -4.296875q8.0 8.703125 15.25 20.390625l-6.578125 4.46875l-3.671875 -5.96875l-34.59375 2.671875q-2.296875 3.828125 -3.671875 -0.75l-2.140625 -6.96875zm71.375244 -16.6875l0 11.4375l-11.421875 0l0 -11.4375l11.421875 0zm55.59375 1.59375q-11.5625 18.640625 -34.203125 25.8125q-1.125 4.4843674 -4.03125 -0.046875l-3.84375 -6.0625q24.375 -5.375 36.609375 -25.171875l5.46875 5.46875zm-34.078125 7.5q-7.21875 -5.28125 -12.5625 -7.96875l4.53125 -6.359375q6.28125 3.28125 12.828125 8.046875l-4.796875 6.28125zm6.484375 -12.578125q-6.671875 -4.6875 -12.546875 -8.0l3.96875 -6.390625q6.734375 3.75 12.8125 8.046875l-4.234375 6.34375zm17.359375 -17.5625q4.453125 3.40625 8.890625 8.09375l-4.390625 4.40625q-4.5625 -5.078125 -8.953125 -8.375l4.453125 -4.125zm-5.046875 3.65625q4.390625 3.59375 8.84375 8.328125l-4.4375 4.078125q-4.328125 -4.59375 -9.1875 -8.65625l4.78125 -3.75zm36.855225 18.453125l16.28125 -3.96875l1.6875 -1.015625l4.03125 4.046875q2.21875 2.1875 -0.703125 3.03125q-3.640625 5.859375 -8.5625 12.515625l-5.53125 -3.59375q4.09375 -5.390625 5.65625 -7.921875l-10.90625 2.6875l7.21875 21.46875l-6.40625 2.2187424l-7.078125 -22.265617l-12.34375 3.40625l-2.265625 -6.4375l12.40625 -2.796875l-3.421875 -10.28125l5.84375 -1.125q4.46875 0 2.0 2.890625l2.09375 7.140625zm25.246826 15.625l9.75 -0.234375q7.34375 -15.90625 11.65625 -34.296875l6.21875 2.15625q4.09375 2.734375 0 3.859375q-3.921875 14.625 -10.015625 27.75l18.234375 -0.859375q-3.171875 -4.25 -6.578125 -7.921875l6.140625 -4.296875q8.0 8.703125 15.25 20.390625l-6.578125 4.46875l-3.671875 -5.96875l-34.59375 2.671875q-2.296875 3.828125 -3.671875 -0.75l-2.140625 -6.96875z" fill-rule="nonzero"/></g></svg>