<svg version="1.1" viewBox="0.0 0.0 816.0 1056.0" fill="none" stroke="none" stroke-linecap="square" stroke-miterlimit="10" xmlns:xlink="http://www.w3.org/1999/xlink" xmlns="http://www.w3.org/2000/svg"><clipPath id="gef2424c68b_0_111.0"><path d="m0 0l816.0 0l0 1056.0l-816.0 0l0 -1056.0z" clip-rule="nonzero"/></clipPath><g clip-path="url(#gef2424c68b_0_111.0)"><path fill="#ffffff" d="m0 0l816.0 0l0 1056.0l-816.0 0z" fill-rule="evenodd"/><path fill="#004c52" d="m-0.21017507 0l0 201.88828l464.86472 -201.88828z" fill-rule="evenodd"/><path fill="#abe33f" fill-opacity="0.8115" d="m-0.53766406 70.63086l0.32746905 58.704178l300.62067 93.5594l95.72693 -222.8941z" fill-rule="evenodd"/><path fill="#004c52" d="m568.94 1056.6414l227.46478 0l-51.745605 -82.3031z" fill-rule="evenodd"/><path fill="#00ae9d" fill-opacity="0.8346" d="m817.6329 978.76416l0 81.26245l-162.5144 0z" fill-rule="evenodd"/><path fill="#abe33f" fill-opacity="0.8115" d="m817.3538 979.8128l0 -116.68396l-73.03784 196.90155z" fill-rule="evenodd"/><path fill="#00ae9d" fill-opacity="0.8346" d="m139.1256 2.808399E-5l295.39618 192.75748l71.98004 -193.99449l-9.686859 1.2370069z" fill-rule="evenodd"/><path fill="#000000" fill-opacity="0.0" d="m8.6482935 0l773.8267 0l0 90.01575l-773.8267 0z" fill-rule="evenodd"/><path fill="#ffffff" d="m42.163918 42.41375l-22.906248 0l0 -7.484375l49.40625 0l0 7.484375l-18.796875 0l0 1.75q0 14.96875 -11.453125 25.40625l-6.656248 -5.0q10.406248 -8.171875 10.406248 -20.40625l0 -1.75zm-14.656248 -13.984375l0 -7.484375l32.90625 0l0 7.484375l-32.90625 0zm44.90222 18.109375l0 -7.484375l53.53125 0l0 7.484375l-53.53125 0zm87.24 5.125q3.984375 3.796875 7.796875 8.1875l-6.421875 5.765625q-9.421875 -11.171875 -21.53125 -20.0625l4.640625 -5.96875q5.15625 3.140625 9.40625 7.015625q5.984375 -5.96875 11.609375 -13.9375l-34.578125 1.546875l-1.3125 -8.1875l41.328125 -0.953125l2.859375 -0.859375l4.03125 4.3125q2.53125 4.046875 -1.328125 3.640625q-5.34375 7.0625 -16.5 19.5zm31.224976 -15.59375l7.703125 0l0 7.484375l-7.703125 0l0 -7.484375zm0 21.078125l7.703125 0l0 7.484375l-7.703125 0l0 -7.484375z" fill-rule="nonzero"/><path fill="#ffffff" d="m21.00767 122.52l0 -32.1875l6.25 0l0 26.703125l16.406248 0l0 5.484375l-22.656248 0zm39.480682 0.234375q-3.546875 0 -6.421875 -1.359375q-2.875 -1.375 -4.9375 -3.703125q-2.0625 -2.328125 -3.203125 -5.25q-1.125 -2.9375 -1.125 -6.015625q0 -3.21875 1.203125 -6.140625q1.203125 -2.921875 3.296875 -5.203125q2.109375 -2.296875 4.984375 -3.625q2.890625 -1.34375 6.328125 -1.34375q3.5 0 6.375 1.40625q2.875 1.40625 4.90625 3.765625q2.046875 2.34375 3.171875 5.25q1.140625 2.90625 1.140625 5.984375q0 3.171875 -1.1875 6.09375q-1.171875 2.921875 -3.28125 5.21875q-2.09375 2.28125 -4.984375 3.609375q-2.875 1.3125 -6.265625 1.3125zm-9.34375 -16.328125q0 2.09375 0.625 4.046875q0.640625 1.9375 1.84375 3.453125q1.203125 1.515625 2.9375 2.40625q1.75 0.890625 3.984375 0.890625q2.265625 0 4.03125 -0.921875q1.765625 -0.9375 2.9375 -2.5q1.1875 -1.578125 1.796875 -3.5q0.609375 -1.921875 0.609375 -3.875q0 -2.078125 -0.65625 -4.0q-0.65625 -1.9375 -1.859375 -3.453125q-1.203125 -1.515625 -2.953125 -2.390625q-1.734375 -0.890625 -3.90625 -0.890625q-2.3125 0 -4.0625 0.9375q-1.75 0.921875 -2.9375 2.46875q-1.171875 1.53125 -1.78125 3.4375q-0.609375 1.90625 -0.609375 3.890625zm48.91333 -7.65625q-0.328125 -0.3125 -1.171875 -0.859375q-0.828125 -0.546875 -2.03125 -1.046875q-1.203125 -0.5 -2.609375 -0.875q-1.390625 -0.390625 -2.84375 -0.390625q-2.546875 0 -3.84375 0.953125q-1.28125 0.953125 -1.28125 2.671875q0 1.3125 0.8125 2.09375q0.8125 0.765625 2.4375 1.3125q1.640625 0.53125 4.09375 1.171875q3.171875 0.765625 5.5 1.875q2.34375 1.109375 3.578125 2.90625q1.25 1.796875 1.25 4.734375q0 2.578125 -0.953125 4.421875q-0.953125 1.828125 -2.625 2.96875q-1.671875 1.125 -3.8125 1.65625q-2.125 0.515625 -4.53125 0.515625q-2.390625 0 -4.796875 -0.5q-2.40625 -0.5 -4.625 -1.421875q-2.21875 -0.9375 -4.078125 -2.25l2.765625 -5.390625q0.40625 0.40625 1.4375 1.0625q1.046875 0.65625 2.546875 1.3125q1.5 0.65625 3.265625 1.109375q1.765625 0.453125 3.578125 0.453125q2.546875 0 3.859375 -0.859375q1.3125 -0.859375 1.3125 -2.4375q0 -1.453125 -1.046875 -2.265625q-1.046875 -0.828125 -2.90625 -1.4375q-1.84375 -0.609375 -4.390625 -1.328125q-3.03125 -0.859375 -5.078125 -1.921875q-2.03125 -1.078125 -3.03125 -2.703125q-1.0 -1.640625 -1.0 -4.078125q0 -3.3125 1.5625 -5.546875q1.5625 -2.25 4.234375 -3.40625q2.671875 -1.15625 5.9375 -1.15625q2.265625 0 4.28125 0.5q2.03125 0.5 3.796875 1.3125q1.765625 0.8125 3.171875 1.765625l-2.765625 5.078125zm32.67678 -2.953125l-10.281258 0l0 26.703125l-6.21875 0l0 -26.703125l-10.28125 0l0 -5.484375l26.781258 0l0 5.484375z" fill-rule="nonzero"/><path fill="#ffffff" d="m175.09666 85.23875l4.796875 0q4.34375 0.765625 1.234375 2.828125l0.328125 7.96875q0.171875 3.53125 0.78125 4.84375q4.171875 -1.796875 13.359375 -4.328125l2.5 6.453125q-17.65625 3.15625 -23.109375 8.609375q-1.671875 1.6875 -1.671875 3.421875q0 1.203125 0.953125 2.15625q0.984375 0.96875 4.484375 0.96875l17.9375 0l0 5.78125l-18.109375 0q-6.234375 0 -8.8125 -2.59375q-2.578125 -2.5625 -2.578125 -5.96875q0 -4.28125 3.109375 -7.375q2.203125 -2.21875 6.578125 -4.71875q-0.8125 -2.046875 -1.015625 -5.359375l-0.765625 -12.6875z" fill-rule="nonzero"/><path fill="#ffffff" d="m231.6361 122.52l0 -32.1875l21.609375 0l0 5.484375l-15.359375 0l0 8.296875l12.78125 0l0 5.078125l-12.78125 0l0 13.328125l-6.25 0zm39.254044 0.234375q-3.546875 0 -6.421875 -1.359375q-2.875 -1.375 -4.9375 -3.703125q-2.0625 -2.328125 -3.203125 -5.25q-1.1249847 -2.9375 -1.1249847 -6.015625q0 -3.21875 1.2031097 -6.140625q1.203125 -2.921875 3.296875 -5.203125q2.109375 -2.296875 4.984375 -3.625q2.890625 -1.34375 6.328125 -1.34375q3.5 0 6.375 1.40625q2.875 1.40625 4.90625 3.765625q2.046875 2.34375 3.171875 5.25q1.140625 2.90625 1.140625 5.984375q0 3.171875 -1.1875 6.09375q-1.171875 2.921875 -3.28125 5.21875q-2.09375 2.28125 -4.984375 3.609375q-2.875 1.3125 -6.265625 1.3125zm-9.34375 -16.328125q0 2.09375 0.625 4.046875q0.640625 1.9375 1.84375 3.453125q1.203125 1.515625 2.9375 2.40625q1.75 0.890625 3.984375 0.890625q2.265625 0 4.03125 -0.921875q1.765625 -0.9375 2.9375 -2.5q1.1875 -1.578125 1.796875 -3.5q0.609375 -1.921875 0.609375 -3.875q0 -2.078125 -0.65625 -4.0q-0.65625 -1.9375 -1.859375 -3.453125q-1.203125 -1.515625 -2.953125 -2.390625q-1.734375 -0.890625 -3.90625 -0.890625q-2.3125 0 -4.0625 0.9375q-1.75 0.921875 -2.9375 2.46875q-1.171875 1.53125 -1.78125 3.4375q-0.609375 1.90625 -0.609375 3.890625zm43.518097 16.328125q-3.859375 0 -6.5625 -1.296875q-2.6875 -1.296875 -4.34375 -3.5625q-1.65625 -2.265625 -2.421875 -5.140625q-0.765625 -2.875 -0.765625 -6.015625l0 -16.40625l6.25 0l0 16.40625q0 2.0 0.375 3.890625q0.390625 1.875 1.296875 3.375q0.90625 1.484375 2.40625 2.359375q1.5 0.859375 3.71875 0.859375q2.265625 0 3.78125 -0.890625q1.515625 -0.890625 2.40625 -2.375q0.890625 -1.5 1.296875 -3.375q0.40625 -1.890625 0.40625 -3.84375l0 -16.40625l6.203125 0l0 16.40625q0 3.3125 -0.796875 6.21875q-0.78125 2.90625 -2.484375 5.109375q-1.703125 2.1875 -4.375 3.4375q-2.671875 1.25 -6.390625 1.25zm26.605469 -20.90625l0 20.671875l-6.25 0l0 -32.1875l4.984375 0l16.625 21.21875l0 -21.171875l6.265625 0l0 32.140625l-5.21875 0l-16.40625 -20.671875zm28.335388 20.671875l0 -32.1875l11.6875 0q5.265625 0 8.796875 2.15625q3.53125 2.15625 5.296875 5.8125q1.765625 3.640625 1.765625 8.078125q0 4.90625 -1.953125 8.53125q-1.9375 3.625 -5.5 5.625q-3.546875 1.984375 -8.40625 1.984375l-11.6875 0zm21.25 -16.140625q0 -3.125 -1.140625 -5.5q-1.125 -2.390625 -3.265625 -3.71875q-2.125 -1.34375 -5.15625 -1.34375l-5.4375 0l0 21.21875l5.4375 0q3.078125 0 5.203125 -1.375q2.140625 -1.390625 3.25 -3.8125q1.109375 -2.421875 1.109375 -5.46875z" fill-rule="nonzero"/><path fill="#000000" fill-opacity="0.0" d="m21.086615 307.74103l773.8268 0l0 349.32288l-773.8268 0z" fill-rule="evenodd"/><path fill="#da97f8" d="m30.086615 324.74103l90.125 0l0 38.400024l-90.125 0l0 -38.400024z" fill-rule="nonzero"/><path fill="#000000" fill-opacity="0.0" d="m30.086615 327.96103l90.125 0l0 32.0l-90.125 0l0 -32.0z" fill-rule="nonzero"/><path fill="#004c52" d="m50.336613 334.96103q-2.625 7.25 -5.875 11.5q-4.125 5.375 -9.875 9.0l-2.999998 -2.375q5.624998 -2.875 9.499998 -7.5q4.0 -4.75 6.25 -13.125l3.375 1.5q0.875 0.5 -0.375 1.0zm3.875 10.25l0 -2.75l27.875004 0l0 2.75l-27.875004 0zm36.125004 -4.75q6.125 1.75 12.375 4.75l-1.5 2.875q-6.625 -3.375 -10.875 -4.5l0 13.0l-2.875 0l0 -25.0l2.5 0q1.5 0.125 0.375 1.0l0 7.875zm20.375 0.375l2.875 0l0 2.75l-2.875 0l0 -2.75zm0 11.5l2.875 0l0 2.75l-2.875 0l0 -2.75z" fill-rule="nonzero"/><path fill="#000000" fill-opacity="0.0" d="m120.21162 326.11697l0 0l0 37.40808l0 0l0 -37.40808z" fill-rule="nonzero"/><path fill="#abe33f" d="m24.461615 407.71103l19.374998 0l-7.375 -7.375l6.125 0l9.875 9.625l-9.875 9.625l-6.125 0l7.375 -7.375l-19.374998 0l0 -4.5z" fill-rule="nonzero"/><path fill="#004c52" d="m106.96162 422.33603q-4.0 -1.625 -7.375 -6.125l0 8.0l-2.5 0l0 -7.75q-1.75 3.375 -7.75 6.375l-1.0 -2.375q6.125 -2.875 8.625 -7.5l-6.625 0l0 -2.0l6.75 0l0 -2.875l2.375 0q1.0 0.125 0.125 0.75l0 2.125l8.25 0l0 2.0l-8.125 0q2.75 4.25 8.5 6.875l-1.25 2.5zm1.25 -18.0q-0.375 3.75 -2.625 3.75l-3.25 0q-2.25 0 -2.25 -2.125l0 -5.875l2.375 0q1.0 0.125 0.125 0.75l0 3.875q0 1.0 0.875 1.0l1.125 0q1.0 0 1.125 -0.75l0.25 -1.25l2.25 0.625zm-10.875 -2.375q0 5.875 -6.625 7.25l-0.75 -2.5q4.75 -0.5 4.75 -4.75l0 -1.875l2.375 0q1.25 0.25 0.25 0.75l0 1.125zm-11.375 8.125l3.0 -1.125l0.5 2.25l-3.5 1.375l0 9.5q0 2.0 -2.0 2.0l-2.5 0l-0.625 -2.75l2.125 0q0.5 0 0.5 -0.5l0 -7.375l-2.5 0.875q-0.125 0.875 -0.625 0.375l-0.75 -2.75l3.875 -1.125l0 -6.375l-3.625 0l0 -2.375l3.625 0l0 -6.375l2.375 0q1.0 0.125 0.125 0.75l0 5.625l3.0 0l0 2.375l-3.0 0l0 5.625zm19.25 -11.0l-12.625 0l0 3.875l-2.5 0l0 -6.25l17.625 0l0 5.875l-2.5 0l0 -3.5zm20.25 15.875q-1.5 0.875 -3.125 0.875q-2.125 0 -3.25 -1.125q-1.5 -1.5 -1.5 -3.375q0 -2.0 1.5 -3.5q1.5 -1.5 3.75 -1.5q1.5 0 2.875 0.375l0 -2.75l-13.75 0.875l-0.5 -2.625l14.25 -0.625l0 -5.875l2.25 0q1.3749924 0.25 0.24999237 1.0l0 4.75l10.625 -0.75l0 2.625l-10.625 0.5l0 4.75q0.5 2.25 0.5 5.0q-0.125 6.375 -7.1249924 10.75l-2.375 -1.75q6.25 -3.625 6.25 -7.625zm-2.375 -6.5q-1.375 0 -2.25 0.875q-0.75 0.75 -0.75 2.0q0 1.125 0.625 1.75q0.625 0.625 2.0 0.625q1.375 0 2.25 -0.875q0.75 -0.75 0.75 -1.875q0 -1.125 -0.75 -1.875q-0.625 -0.625 -1.875 -0.625zm25.124992 -6.0q1.375 -2.875 4.625 -5.875l1.375 1.25q-3.125 2.875 -4.375 5.5q-1.375 2.875 -1.375 6.875q0 3.375 1.375 6.375q1.25 2.75 4.375 6.125l-1.375 1.375q-3.125 -3.5 -4.625 -6.625q-1.625 -3.375 -1.625 -7.25q0 -4.375 1.625 -7.75zm21.25 2.375q-5.125 0.375 -10.125 0.375l-0.75 -2.5q6.125 0 9.875 -0.25q-1.25 -3.5 -1.75 -6.5l2.75 0q1.125 0.25 0.25 1.0q0.5 2.375 1.5 5.25q4.375 -0.375 7.5 -1.125l0.625 2.75q-3.625 0.5 -7.125 0.75q2.5 4.75 7.625 8.25l-1.875 2.25q-4.625 -2.125 -9.125 -2.125q-4.125 0 -5.75 1.625q-0.75 0.75 -0.75 2.125q0 1.25 1.125 2.375q1.75 1.75 8.25 1.75l4.375 0l-0.625 2.75l-4.75 0q-6.5 0 -9.125 -2.625q-1.875 -1.875 -1.875 -4.25q0 -2.375 1.375 -3.75q2.25 -2.25 7.0 -2.25q4.75 0 5.5 0.5q-3.0 -3.75 -4.125 -6.375zm34.875 -3.375q5.125 5.25 7.0 12.625l-2.75 1.125q-2.25 -8.125 -6.5 -12.125l2.25 -1.625zm-3.75 10.0q0 7.25 -2.125 9.375q-1.25 1.25 -2.875 1.25q-2.375 0 -4.75 -2.75l1.625 -2.25q2.0 2.0 3.0 2.0q0.625 0 1.125 -0.5q1.375 -1.375 1.375 -7.625q0 -3.5 -0.75 -4.25q-0.375 -0.375 -1.5 -0.375q-1.125 0 -3.125 0.25q-2.625 9.25 -6.25 15.875l-2.875 -1.0q3.625 -5.625 6.375 -14.625q-2.75 0.375 -5.375 0.625l-0.25 -2.75q2.25 0 6.25 -0.375q1.125 -3.875 1.875 -7.875l2.625 0.875q1.5 0.625 -0.125 1.125q-0.75 2.625 -1.5 5.625q1.5 -0.25 3.125 -0.25q1.75 0 2.625 0.875q1.5 1.5 1.5 6.75zm7.0 -16.5q2.25 1.25 5.0 3.5l-1.5 1.5q-2.75 -2.125 -5.0 -3.5l1.5 -1.5zm0.875 8.0q-2.875 -2.375 -4.875 -3.625l1.5 -1.5q2.25 1.25 5.0 3.5l-1.625 1.625zm20.25 12.0q-1.5 0.875 -3.125 0.875q-2.125 0 -3.25 -1.125q-1.5 -1.5 -1.5 -3.375q0 -2.0 1.5 -3.5q1.5 -1.5 3.75 -1.5q1.5 0 2.875 0.375l0 -2.75l-13.75 0.875l-0.5 -2.625l14.25 -0.625l0 -5.875l2.25 0q1.375 0.25 0.25 1.0l0 4.75l10.625 -0.75l0 2.625l-10.625 0.5l0 4.75q0.5 2.25 0.5 5.0q-0.125 6.375 -7.125 10.75l-2.375 -1.75q6.25 -3.625 6.25 -7.625zm-2.375 -6.5q-1.375 0 -2.25 0.875q-0.75 0.75 -0.75 2.0q0 1.125 0.625 1.75q0.625 0.625 2.0 0.625q1.375 0 2.25 -0.875q0.75 -0.75 0.75 -1.875q0 -1.125 -0.75 -1.875q-0.625 -0.625 -1.875 -0.625zm26.25 9.0q-1.5 3.125 -4.625 6.625l-1.375 -1.375q3.125 -3.375 4.375 -6.125q1.375 -3.0 1.375 -6.375q0 -4.0 -1.375 -6.875q-1.25 -2.625 -4.375 -5.5l1.375 -1.25q3.25 3.0 4.625 5.875q1.625 3.375 1.625 7.75q0 3.875 -1.625 7.25z" fill-rule="nonzero"/><path fill="#abe33f" d="m24.461615 465.71103l19.374998 0l-7.375 -7.375l6.125 0l9.875 9.625l-9.875 9.625l-6.125 0l7.375 -7.375l-19.374998 0l0 -4.5z" fill-rule="nonzero"/><path fill="#004c52" d="m107.33662 481.96103q-8.375 -2.0 -11.25 -8.125q-1.5 6.375 -10.25 8.5l-0.75 -2.375q7.875 -1.75 8.875 -7.125l-8.25 0q-0.375 5.375 -3.75 8.875l-1.75 -2.0q3.0 -2.875 3.0 -7.875l0 -12.25l22.125 0l0 8.0l-2.5 0l0 -0.75l-17.125 0l0 3.625l8.5 0l0 -2.875l2.375 0q1.0 0.125 0.125 0.75l0 2.125l10.625 0l0 2.375l-9.375 0q1.75 4.625 10.375 6.5l-1.0 2.625zm-0.5 -26.875l0 2.375l-25.125 0l0 -2.375l25.125 0zm-4.0 6.875l-17.125 0l0 2.5l17.125 0l0 -2.5zm24.875 16.875q1.9999924 -0.25 3.3749924 -1.625q1.5 -1.5 1.5 -4.0q0 -2.75 -1.625 -4.375q-1.625 -1.625 -5.1249924 -1.625q-4.125 0 -6.375 1.625q-2.125 1.5 -5.5 5.375l-2.125 -1.875q9.0 -9.0 13.625 -15.0q-4.125 0.5 -8.25 0.875l-0.875 -2.875q6.125 0 10.875 -0.625l1.1249924 -0.5l1.375 1.375q1.375 1.25 -0.625 1.625q-3.7499924 4.25 -7.4999924 8.375q2.625 -0.625 4.375 -0.625q4.7499924 0 6.9999924 2.25q2.25 2.25 2.25 5.75q0 3.625 -2.0 5.625q-3.0 3.0 -7.6249924 3.0q-4.375 0 -6.375 -2.0q-1.625 -1.625 -1.625 -3.875q0 -1.5 1.125 -2.625q1.25 -1.25 2.875 -1.25q2.25 0 3.75 1.5q1.75 1.75 2.375 5.5zm-2.5 0.375q-0.375 -3.25 -1.5 -4.375q-0.875 -0.875 -1.75 -0.875q-1.0 0 -1.5 0.5q-0.625 0.625 -0.625 1.375q0 1.125 1.0 2.125q1.25 1.25 3.25 1.25q0.5 0 1.125 0zm41.124992 -18.75q1.375 -2.875 4.625 -5.875l1.375 1.25q-3.125 2.875 -4.375 5.5q-1.375 2.875 -1.375 6.875q0 3.375 1.375 6.375q1.25 2.75 4.375 6.125l-1.375 1.375q-3.125 -3.5 -4.625 -6.625q-1.625 -3.375 -1.625 -7.25q0 -4.375 1.625 -7.75zm19.25 12.875q-0.25 2.75 1.125 4.125q1.375 1.375 3.875 1.375q3.25 0 4.375 -1.125q1.125 -1.125 1.125 -3.75q0 -1.875 -0.75 -4.5l2.625 -0.375q0.875 3.5 0.875 4.75q0 3.875 -1.875 5.75q-2.0 2.0 -6.5 2.0q-3.625 0 -5.75 -2.125q-2.0 -2.0 -1.75 -5.5l0.25 -3.75l-6.375 0l0 -2.375l6.75 0l0.5 -4.875l-5.875 0l0 -2.375l6.25 0l0.625 -7.125l2.75 0.375q1.375 0.375 0.25 1.0l-1.0 5.75l4.875 0l0 2.375l-5.25 0l-0.5 4.875l6.0 0l0 2.375l-6.375 0l-0.25 3.125zm38.0 -7.5q-11.875 2.125 -15.875 6.125q-1.375 1.375 -1.375 2.875q0 1.125 0.875 2.0q0.875 0.875 3.625 0.875l12.0 0l0 2.75l-12.125 0q-4.125 0 -5.75 -1.625q-1.625 -1.625 -1.625 -3.75q0 -2.75 2.0 -4.75q1.5 -1.5 5.0 -3.5q-0.75 -1.875 -0.875 -4.125l-0.5 -8.25l2.625 0q1.375 0.25 0.25 1.0l0.25 6.0q0.125 2.625 0.875 4.25q3.5 -1.5 9.375 -3.125l1.25 3.25zm-3.25 -9.75q2.875 1.75 4.875 3.125l-1.25 1.625q-2.25 -1.5 -4.875 -3.125l1.25 -1.625zm2.75 -2.5q2.75 1.75 4.875 3.125l-1.25 1.625q-2.625 -1.75 -4.875 -3.125l1.25 -1.625zm23.5 25.25q2.0 -0.25 3.375 -1.625q1.5 -1.5 1.5 -4.0q0 -2.75 -1.625 -4.375q-1.625 -1.625 -5.125 -1.625q-4.125 0 -6.375 1.625q-2.125 1.5 -5.5 5.375l-2.125 -1.875q9.0 -9.0 13.625 -15.0q-4.125 0.5 -8.25 0.875l-0.875 -2.875q6.125 0 10.875 -0.625l1.125 -0.5l1.375 1.375q1.375 1.25 -0.625 1.625q-3.75 4.25 -7.5 8.375q2.625 -0.625 4.375 -0.625q4.75 0 7.0 2.25q2.25 2.25 2.25 5.75q0 3.625 -2.0 5.625q-3.0 3.0 -7.625 3.0q-4.375 0 -6.375 -2.0q-1.625 -1.625 -1.625 -3.875q0 -1.5 1.125 -2.625q1.25 -1.25 2.875 -1.25q2.25 0 3.75 1.5q1.75 1.75 2.375 5.5zm-2.5 0.375q-0.375 -3.25 -1.5 -4.375q-0.875 -0.875 -1.75 -0.875q-1.0 0 -1.5 0.5q-0.625 0.625 -0.625 1.375q0 1.125 1.0 2.125q1.25 1.25 3.25 1.25q0.5 0 1.125 0zm21.0 -3.75q-1.5 3.125 -4.625 6.625l-1.375 -1.375q3.125 -3.375 4.375 -6.125q1.375 -3.0 1.375 -6.375q0 -4.0 -1.375 -6.875q-1.25 -2.625 -4.375 -5.5l1.375 -1.25q3.25 3.0 4.625 5.875q1.625 3.375 1.625 7.75q0 3.875 -1.625 7.25z" fill-rule="nonzero"/><path fill="#abe33f" d="m24.461615 523.71106l19.374998 0l-7.375 -7.375l6.125 0l9.875 9.625l-9.875 9.625l-6.125 0l7.375 -7.375l-19.374998 0l0 -4.5z" fill-rule="nonzero"/><path fill="#004c52" d="m86.21162 530.96106q-1.125 4.125 -2.625 7.25l-2.75 -1.0q1.875 -3.75 2.875 -7.75l2.875 0.875q0.5 0.5 -0.375 0.625zm16.125 3.375q0 4.875 -2.875 4.875l-9.375 0q-2.25 0 -2.25 -2.125l0 -9.125l2.375 0q1.0 0.125 0.125 0.75l0 7.125q0 1.0 0.875 1.0l6.25 0q1.625 0 1.75 -0.875l0.375 -2.25l2.75 0.625zm2.125 -10.875l0 2.375l-17.125 0q-2.25 0 -2.25 -2.125l0 -5.875l-4.5 0l0 -2.375l12.0 0l0 -3.375l2.75 0q1.25 0.25 0.125 1.0l0 2.375l12.125 0l0 2.375l-20.0 0l0 4.625q0 1.0 0.875 1.0l16.0 0zm-9.875 3.625q1.375 1.75 3.125 4.75l-2.375 1.5q-1.625 -3.25 -3.0 -4.875l2.25 -1.375zm8.5 1.875q3.25 3.0 5.25 6.875l-2.625 1.5q-1.875 -3.75 -4.75 -7.0l2.125 -1.375zm27.874992 -5.75q0.125 -2.375 -1.375 -2.375q-2.1249924 0 -8.249992 6.125l0 12.5l-2.5 0l0 -10.25l-5.5 6.875l-2.0 -2.0l5.0 -5.875q1.375 -1.75 2.5 -3.625l0 -3.0l-5.5 1.875l-0.75 -2.625l6.25 -1.625l0 -7.3750305l2.25 0q1.125 0.25003052 0.25 1.0000305l0 5.625l1.375 0.75q1.125 0.5 -0.25 1.125l-1.125 2.375l0 0.875q5.875 -5.5 8.874992 -5.5q3.75 0 3.375 5.0l-0.625 9.625q-0.125 2.0 1.5 2.0q1.625 0 2.375 -0.875q1.125 -1.375 1.875 -3.25l2.125 1.75q-1.25 2.375 -2.375 3.5q-1.625 1.625 -3.75 1.625q-4.625 0 -4.375 -4.75l0.625 -9.5zm38.125 -5.375q-4.375 0 -6.875 0.875q-2.75 1.0 -5.125 3.375q-2.375 2.375 -2.375 6.125q0 3.0 1.875 4.875q2.5 2.5 9.625 2.75l-1.0 2.75q-7.375 -0.375 -10.25 -3.25q-2.875 -2.875 -2.875 -7.0q0 -5.875 4.625 -9.25q-5.875 0.875 -12.0 1.75l-0.75 -2.875q12.25 -0.875 24.625 -3.0l0.5 2.875zm25.125 15.125q-5.375 5.875 -11.625 5.875q-4.5 0 -6.625 -2.125q-1.625 -1.625 -1.625 -6.25l0 -16.75l2.625 0q1.125 0.25 0.25 1.0l0 15.75q0 3.125 1.125 4.25q1.375 1.375 4.125 1.375q4.875 0 9.875 -5.5l1.875 2.375zm17.375 -2.25q5.125 1.125 10.0 3.5l-1.375 2.75q-4.625 -2.875 -8.625 -3.875q0 3.25 -1.625 4.875q-1.5 1.5 -4.875 1.5q-2.625 0 -4.25 -1.625q-1.125 -1.125 -1.125 -3.125q0 -1.75 1.25 -3.0q1.625 -1.625 5.0 -1.625q1.0 0 3.125 0.125l0 -3.875l-9.5 0.25l0 -2.5l9.5 -0.25l0 -4.375l-11.75 0.375l0 -2.5l11.75 -0.375l0 -4.875l2.25 0q1.375 0.25 0.25 1.0l0 3.625l10.25 -0.375l0 2.5l-10.25 0.375l0 4.5l8.125 -0.25l0 2.5l-8.125 0.25l0 4.5zm-2.625 1.875q-1.375 -0.25 -2.75 -0.25q-2.5 0 -3.5 1.0q-0.625 0.625 -0.625 1.625q0 0.75 0.625 1.375q0.875 0.875 2.75 0.875q1.5 0 2.5 -1.0q1.125 -1.125 1.0 -3.625zm21.625 4.875q5.125 -1.125 8.0 -4.0q2.375 -2.375 2.375 -5.625q0 -2.25 -1.25 -3.5q-1.125 -1.125 -2.875 -1.0q-3.5 0.375 -10.0 2.5l-1.375 -3.25q4.75 -0.875 8.875 -1.875q2.125 -0.5 3.25 -0.5q2.75 0 4.5 1.75q2.0 2.0 2.0 5.75q0 4.875 -3.375 8.25q-3.0 3.0 -8.125 4.375l-2.0 -2.875zm10.375 -20.5q-5.0 -0.5 -12.125 -2.0l0.75 -3.1250305q7.0 1.6250305 12.0 2.1250305l-0.625 3.0zm13.0 1.5q1.375 -2.875 4.625 -5.875l1.375 1.25q-3.125 2.875 -4.375 5.5q-1.375 2.875 -1.375 6.875q0 3.375 1.375 6.375q1.25 2.75 4.375 6.125l-1.375 1.375q-3.125 -3.5 -4.625 -6.625q-1.625 -3.375 -1.625 -7.25q0 -4.375 1.625 -7.75zm17.375 10.75l-5.125 6.125l-2.0 -2.0l3.375 -3.75q2.5 -2.875 3.75 -5.125l0 -3.125l-5.875 1.5l-0.75 -2.625l6.625 -1.25l0 -7.2500305l2.25 0q1.375 0.25 0.25 1.0000305l0 5.125l1.875 1.125q1.25 0.625 -0.375 1.375l-1.5 2.125l0 1.5q5.5 -4.375 10.5 -4.375q3.75 0 5.75 2.0q2.375 2.375 2.375 6.125q0 3.875 -2.125 6.0q-2.75 2.75 -8.125 4.75l-1.25 -2.5q4.75 -1.75 6.875 -3.875q1.75 -1.75 1.75 -4.375q0 -2.625 -1.75 -4.375q-1.375 -1.375 -3.75 -1.375q-4.5 0 -10.25 5.25l0 13.125l-2.5 0l0 -11.125zm38.625 1.75q-1.5 0.875 -3.125 0.875q-2.125 0 -3.25 -1.125q-1.5 -1.5 -1.5 -3.375q0 -2.0 1.5 -3.5q1.5 -1.5 3.75 -1.5q1.5 0 2.875 0.375l0 -2.75l-13.75 0.875l-0.5 -2.625l14.25 -0.625l0 -5.8750305l2.25 0q1.375 0.25 0.25 1.0000305l0 4.75l10.625 -0.75l0 2.625l-10.625 0.5l0 4.75q0.5 2.25 0.5 5.0q-0.125 6.375 -7.125 10.75l-2.375 -1.75q6.25 -3.625 6.25 -7.625zm-2.375 -6.5q-1.375 0 -2.25 0.875q-0.75 0.75 -0.75 2.0q0 1.125 0.625 1.75q0.625 0.625 2.0 0.625q1.375 0 2.25 -0.875q0.75 -0.75 0.75 -1.875q0 -1.125 -0.75 -1.875q-0.625 -0.625 -1.875 -0.625zm38.625 -1.25q0.125 -2.375 -1.375 -2.375q-2.125 0 -8.25 6.125l0 12.5l-2.5 0l0 -10.25l-5.5 6.875l-2.0 -2.0l5.0 -5.875q1.375 -1.75 2.5 -3.625l0 -3.0l-5.5 1.875l-0.75 -2.625l6.25 -1.625l0 -7.3750305l2.25 0q1.125 0.25003052 0.25 1.0000305l0 5.625l1.375 0.75q1.125 0.5 -0.25 1.125l-1.125 2.375l0 0.875q5.875 -5.5 8.875 -5.5q3.75 0 3.375 5.0l-0.625 9.625q-0.125 2.0 1.5 2.0q1.625 0 2.375 -0.875q1.125 -1.375 1.875 -3.25l2.125 1.75q-1.25 2.375 -2.375 3.5q-1.625 1.625 -3.75 1.625q-4.625 0 -4.375 -4.75l0.625 -9.5zm38.125 -5.375q-4.375 0 -6.875 0.875q-2.75 1.0 -5.125 3.375q-2.375 2.375 -2.375 6.125q0 3.0 1.875 4.875q2.5 2.5 9.625 2.75l-1.0 2.75q-7.375 -0.375 -10.25 -3.25q-2.875 -2.875 -2.875 -7.0q0 -5.875 4.625 -9.25q-5.875 0.875 -12.0 1.75l-0.75 -2.875q12.25 -0.875 24.625 -3.0l0.5 2.875zm25.125 15.125q-5.375 5.875 -11.625 5.875q-4.5 0 -6.625 -2.125q-1.625 -1.625 -1.625 -6.25l0 -16.75l2.625 0q1.125 0.25 0.25 1.0l0 15.75q0 3.125 1.125 4.25q1.375 1.375 4.125 1.375q4.875 0 9.875 -5.5l1.875 2.375zm17.375 -2.25q5.125 1.125 10.0 3.5l-1.375 2.75q-4.625 -2.875 -8.625 -3.875q0 3.25 -1.625 4.875q-1.5 1.5 -4.875 1.5q-2.625 0 -4.25 -1.625q-1.125 -1.125 -1.125 -3.125q0 -1.75 1.25 -3.0q1.625 -1.625 5.0 -1.625q1.0 0 3.125 0.125l0 -3.875l-9.5 0.25l0 -2.5l9.5 -0.25l0 -4.375l-11.75 0.375l0 -2.5l11.75 -0.375l0 -4.875l2.25 0q1.375 0.25 0.25 1.0l0 3.625l10.25 -0.375l0 2.5l-10.25 0.375l0 4.5l8.125 -0.25l0 2.5l-8.125 0.25l0 4.5zm-2.625 1.875q-1.375 -0.25 -2.75 -0.25q-2.5 0 -3.5 1.0q-0.625 0.625 -0.625 1.625q0 0.75 0.625 1.375q0.875 0.875 2.75 0.875q1.5 0 2.5 -1.0q1.125 -1.125 1.0 -3.625zm21.625 4.875q5.125 -1.125 8.0 -4.0q2.375 -2.375 2.375 -5.625q0 -2.25 -1.25 -3.5q-1.125 -1.125 -2.875 -1.0q-3.5 0.375 -10.0 2.5l-1.375 -3.25q4.75 -0.875 8.875 -1.875q2.125 -0.5 3.25 -0.5q2.75 0 4.5 1.75q2.0 2.0 2.0 5.75q0 4.875 -3.375 8.25q-3.0 3.0 -8.125 4.375l-2.0 -2.875zm10.375 -20.5q-5.0 -0.5 -12.125 -2.0l0.75 -3.1250305q7.0 1.6250305 12.0 2.1250305l-0.625 3.0zm14.125 16.5q-1.5 3.125 -4.625 6.625l-1.375 -1.375q3.125 -3.375 4.375 -6.125q1.375 -3.0 1.375 -6.375q0 -4.0 -1.375 -6.875q-1.25 -2.625 -4.375 -5.5l1.375 -1.25q3.25 3.0 4.625 5.875q1.625 3.375 1.625 7.75q0 3.875 -1.625 7.25z" fill-rule="nonzero"/><path fill="#abe33f" d="m24.461615 655.71106l19.374998 0l-7.375 -7.375l6.125 0l9.875 9.625l-9.875 9.625l-6.125 0l7.375 -7.375l-19.374998 0l0 -4.5z" fill-rule="nonzero"/><path fill="#004c52" d="m81.32099 669.46106l0 -20.09375l7.0 0q3.453125 0 5.21875 1.640625q1.765625 1.640625 1.765625 4.3125q0 2.640625 -1.765625 4.28125q-1.765625 1.640625 -5.21875 1.640625l-4.5 0l0 8.21875l-2.5 0zm11.265625 0l-5.765625 -9.125l2.71875 0l6.28125 9.125l-3.234375 0zm-8.765625 -9.984375l4.3125 0q2.25 0 3.421875 -1.109375q1.1875 -1.109375 1.1875 -2.890625q0 -1.828125 -1.125 -2.890625q-1.125 -1.078125 -3.296875 -1.078125l-4.5 0l0 7.96875zm17.037537 9.984375l0 -20.09375l6.453125 0q3.3125 0 5.0625 1.671875q1.765625 1.671875 1.765625 4.53125q0 2.828125 -1.765625 4.484375q-1.75 1.65625 -5.0625 1.65625l-3.921875 0l0 7.75l-2.53125 0zm2.53125 -9.921875l3.921875 0q2.109375 0 3.1875 -1.0625q1.078125 -1.078125 1.078125 -2.90625q0 -1.859375 -1.078125 -2.953125q-1.078125 -1.109375 -3.1875 -1.109375l-3.921875 0l0 8.03125zm22.305786 10.3125q-2.390625 0 -4.359375 -1.25q-1.96875 -1.25 -3.140625 -3.53125q-1.171875 -2.296875 -1.171875 -5.4375q0 -2.609375 0.75 -4.59375q0.765625 -1.984375 2.078125 -3.328125q1.3125 -1.34375 3.015625 -2.015625q1.703125 -0.6875 3.609375 -0.6875q2.3437424 0 4.1093674 0.96875q1.78125 0.96875 3.046875 3.0625l-2.359375 0.84375q-1.078125 -1.328125 -2.296875 -1.953125q-1.2187424 -0.640625 -2.6093674 -0.640625q-1.796875 0 -3.328125 1.015625q-1.515625 1.0 -2.4375 2.875q-0.921875 1.859375 -0.921875 4.453125q0 2.3125 0.75 4.09375q0.765625 1.78125 2.140625 2.796875q1.390625 1.015625 3.296875 1.015625q1.453125 0 2.6093674 -0.671875q1.15625 -0.671875 1.828125 -2.015625q0.671875 -1.359375 0.671875 -3.421875l0.78125 0q0 2.5625 -0.609375 4.453125q-0.609375 1.875 -1.953125 2.921875q-1.3281174 1.046875 -3.4999924 1.046875zm5.7343674 -0.390625l-0.453125 -4.734375l0 -3.359375l-5.0468674 -0.15625l0 -1.703125l7.4843674 0l0 9.953125l-1.984375 0z" fill-rule="nonzero"/><path fill="#004c52" d="m159.00673 653.46106q0.25 4.75 0 9.5q3.75 1.375 7.25 3.875l-1.5 2.375q-2.625 -2.0 -5.75 -3.5q0 2.25 -1.375 3.625q-1.5 1.5 -4.375 1.5q-2.875 0 -4.375 -1.5q-1.25 -1.25 -1.25 -3.25q0 -1.75 1.0 -2.75q1.5 -1.5 4.5 -1.5q1.625 0 3.25 0.375q0.25 -4.25 0 -8.625l-9.25 0.625l0 -2.625l9.0 -0.5q-0.125 -3.5 -0.5 -6.25l2.625 0q1.375 0.25 0.25 1.0q0.125 2.625 0.25 5.125l6.75 -0.375l0 2.625l-6.5 0.25zm-18.875 16.75q-0.5 -3.5 -0.5 -8.125q0 -10.125 1.5 -16.25l2.75 0.5q0.875 0.375 -0.125 0.875q-1.375 4.375 -1.375 14.875q0 4.75 0.625 7.625l-2.875 0.5zm16.25 -5.5q-2.125 -0.625 -3.25 -0.625q-1.75 0 -2.5 0.75q-0.625 0.625 -0.625 1.25q0 1.0 0.5 1.5q0.875 0.875 2.625 0.875q1.75 0 2.5 -0.875q0.875 -1.0 0.75 -2.875zm13.625 4.125q11.5 -4.0 12.125 -15.375l-11.25 0l0 -2.75l11.5 0l0 -6.625l2.75 0q1.25 0.25 0.125 1.0l0 5.625l12.0 0l0 2.75l-11.75 0q2.625 10.375 12.75 14.75l-1.625 3.0q-8.75 -4.0 -12.375 -13.5q-2.125 10.25 -13.125 14.125l-1.125 -3.0zm44.875 -17.875q0.5 1.5 1.5 3.125q4.0 -0.625 7.875 -1.75l1.125 2.625q-3.25 0.75 -7.625 1.375q1.875 2.5 4.875 4.75l-2.125 2.125q-4.5 -1.0 -7.125 -1.0q-5.0 0 -6.5 1.5q-0.875 0.875 -0.875 1.875q0 1.25 0.75 2.0q1.0 1.0 5.625 1.0l7.625 0l-0.5 2.75l-7.625 0q-5.0 0 -7.0 -2.0q-1.5 -1.5 -1.5 -3.875q0 -1.875 1.375 -3.25q2.125 -2.125 8.75 -2.125q2.25 0 4.5 0.375q-1.75 -1.875 -3.125 -3.625q-5.875 0.75 -12.875 0.75l-0.375 -2.625q6.375 0.125 12.0 -0.5q-0.875 -1.625 -1.375 -3.125q-4.625 0.375 -9.625 0.375l-0.25 -2.5q5.125 0.125 9.25 -0.25q-0.625 -2.25 -1.0 -5.125l2.75 0q1.25 0.25 0.125 1.0q0.25 1.875 0.625 3.75q3.25 -0.375 6.625 -1.25l0.875 2.5q-4.25 0.75 -6.75 1.125zm27.5 12.0q-1.5 0.875 -3.125 0.875q-2.125 0 -3.25 -1.125q-1.5 -1.5 -1.5 -3.375q0 -2.0 1.5 -3.5q1.5 -1.5 3.75 -1.5q1.5 0 2.875 0.375l0 -2.75l-13.75 0.875l-0.5 -2.625l14.25 -0.625l0 -5.875l2.25 0q1.375 0.25 0.25 1.0l0 4.75l10.625 -0.75l0 2.625l-10.625 0.5l0 4.75q0.5 2.25 0.5 5.0q-0.125 6.375 -7.125 10.75l-2.375 -1.75q6.25 -3.625 6.25 -7.625zm-2.375 -6.5q-1.375 0 -2.25 0.875q-0.75 0.75 -0.75 2.0q0 1.125 0.625 1.75q0.625 0.625 2.0 0.625q1.375 0 2.25 -0.875q0.75 -0.75 0.75 -1.875q0 -1.125 -0.75 -1.875q-0.625 -0.625 -1.875 -0.625zm38.249985 7.0q-4.4999695 -1.0 -7.1249695 -1.0q-5.0 0 -6.5 1.5q-0.875 0.875 -0.875 1.875q0 1.25 0.75 2.0q1.0 1.0 5.625 1.0l7.6249695 0l-0.5 2.75l-7.6249695 0q-5.0 0 -7.0 -2.0q-1.5 -1.5 -1.5 -3.875q0 -1.875 1.375 -3.25q2.125 -2.125 8.75 -2.125q2.25 0 4.5 0.375q-1.75 -1.875 -3.125 -3.625q-5.875 0.75 -12.875 0.75l-0.375 -2.625q6.375 0.125 12.0 -0.5q-0.875 -1.625 -1.375 -3.125q-4.625 0.375 -9.625 0.375l-0.25 -2.5q5.125 0.125 9.25 -0.25q-0.625 -2.25 -1.0 -5.125l2.75 0q1.25 0.25 0.125 1.0q0.25 1.875 0.625 3.75q3.25 -0.375 6.6249695 -1.25l0.875 2.5q-4.2499695 0.75 -6.7499695 1.125q0.5 1.5 1.5 3.125q3.9999695 -0.625 7.8749695 -1.75l1.125 2.625q-3.25 0.75 -7.6249695 1.375q1.8749695 2.5 4.8749695 4.75l-2.125 2.125zm6.5 -15.625q-2.75 -2.25 -5.125 -3.625l1.25 -1.625q2.75 1.625 5.125 3.625l-1.25 1.625zm-5.625 -2.5q2.5 1.625 5.125 3.5l-1.25 1.75q-2.75 -2.125 -5.25 -3.625l1.375 -1.625zm14.875 5.125q1.375 -2.875 4.625 -5.875l1.375 1.25q-3.125 2.875 -4.375 5.5q-1.375 2.875 -1.375 6.875q0 3.375 1.375 6.375q1.25 2.75 4.375 6.125l-1.375 1.375q-3.125 -3.5 -4.625 -6.625q-1.625 -3.375 -1.625 -7.25q0 -4.375 1.625 -7.75zm17.75 20.125l-2.875 0l0 -24.125l19.625 0l0 23.625l-2.875 0l0 -1.75l-13.875 0l0 2.25zm13.875 -14.625l0 -7.125l-13.875 0l0 7.125l13.875 0zm0 10.0l0 -7.625l-13.875 0l0 7.625l13.875 0zm38.0 1.375q-7.625 -4.75 -11.875 -12.125l0 7.875l5.125 0l0 2.375l-5.125 0l0 6.75l-2.5 0l0 -6.75l-4.875 0l0 -2.375l4.875 0l0 -7.875q-3.625 8.0 -11.75 12.75l-1.375 -2.625q8.5 -4.625 12.125 -13.5l-10.875 0l0 -2.375l11.875 0l0 -5.625l2.375 0q1.0 0.125 0.125 0.75l0 4.875l12.0 0l0 2.375l-11.125 0q4.25 7.625 12.375 12.625l-1.375 2.875zm4.75 -18.375l10.875 0l0 2.375l-10.875 0l0 -2.375zm12.0 -2.125l0 -2.0l15.625 0l0 2.0l-7.75 0l-0.625 3.5l5.75 0l-0.25 6.375l3.75 0l0 2.0l-17.375 0l0 -2.0l4.375 0l1.0 -4.375l-3.625 0l0 -2.0l4.0 0l0.625 -3.5l-5.5 0zm-10.375 0l0 -2.375l7.625 0l0 2.375l-7.625 0zm0 9.0l0 -2.375l7.625 0l0 2.375l-7.625 0zm0 4.375l0 -2.375l7.625 0l0 2.375l-7.625 0zm-0.5 12.375l0 -10.25l8.75 0l0 9.625l-2.125 0l0 -0.875l-4.5 0l0 1.5l-2.125 0zm2.125 -3.5l4.5 0l0 -4.75l-4.5 0l0 4.75zm10.125 3.25l0 -11.375l13.125 0l0 11.25l-2.5 0l0 -1.25l-8.125 0l0 1.375l-2.5 0zm10.625 -3.75l0 -5.25l-8.125 0l0 5.25l8.125 0zm-6.0 -11.875l4.375 0l0.25 -4.375l-3.75 0l-0.875 4.375zm29.5 -4.875q-2.125 12.5 -5.125 15.5q-1.625 1.625 -3.375 1.625q-2.0 0 -3.125 -1.125q-3.0 -3.0 -3.0 -7.5q0 -5.5 3.875 -9.375q4.25 -4.25 10.375 -4.25q5.5 0 8.625 3.125q3.5 3.5 3.5 8.25q0 5.125 -3.25 8.375q-2.125 2.125 -6.5 4.125l-2.625 -2.625q4.375 -1.375 6.875 -3.875q2.375 -2.375 2.375 -5.75q0 -4.0 -2.625 -6.625q-2.625 -2.625 -8.25 -2.375l2.25 1.125q1.5 0.625 0 1.375zm-2.875 -2.375q-3.25 0.75 -5.625 3.125q-3.25 3.25 -3.25 8.0q0 2.875 1.875 4.75q0.375 0.375 1.125 0.375q0.75 0 1.625 -0.875q2.875 -2.875 4.25 -15.375zm26.375 15.5l0 1.25l14.375 0l0 -1.25l-14.375 0zm6.0 -17.375l-8.75 0l0 -2.0l8.75 0l0 -2.25l2.375 0q1.0 0.125 0.125 0.75l0 1.5l8.625 0l0 3.375l4.125 0l0 2.0l-4.125 0l0 3.5l-8.625 0l0 1.5l9.125 0l0 2.0l-9.125 0l0 1.5l13.125 0l0 2.0l-28.75 0l0 -2.0l13.125 0l0 -1.5l-9.125 0l0 -2.0l9.125 0l0 -1.5l-8.875 0l0 -2.0l8.875 0l0 -1.5l-12.625 0l0 -2.0l12.625 0l0 -1.375zm-8.5 15.375l19.375 0l0 9.125l-2.5 0l0 -0.625l-14.375 0l0 0.625l-2.5 0l0 -9.125zm2.5 5.25l0 1.25l14.375 0l0 -1.25l-14.375 0zm14.625 -19.25l0 -1.375l-6.125 0l0 1.375l6.125 0zm-6.125 2.0l0 1.5l6.125 0l0 -1.5l-6.125 0zm29.625 0q0.5 1.5 1.5 3.125q4.0 -0.625 7.875 -1.75l1.125 2.625q-3.25 0.75 -7.625 1.375q1.875 2.5 4.875 4.75l-2.125 2.125q-4.5 -1.0 -7.125 -1.0q-5.0 0 -6.5 1.5q-0.875 0.875 -0.875 1.875q0 1.25 0.75 2.0q1.0 1.0 5.625 1.0l7.625 0l-0.5 2.75l-7.625 0q-5.0 0 -7.0 -2.0q-1.5 -1.5 -1.5 -3.875q0 -1.875 1.375 -3.25q2.125 -2.125 8.75 -2.125q2.25 0 4.5 0.375q-1.75 -1.875 -3.125 -3.625q-5.875 0.75 -12.875 0.75l-0.375 -2.625q6.375 0.125 12.0 -0.5q-0.875 -1.625 -1.375 -3.125q-4.625 0.375 -9.625 0.375l-0.25 -2.5q5.125 0.125 9.25 -0.25q-0.625 -2.25 -1.0 -5.125l2.75 0q1.25 0.25 0.125 1.0q0.25 1.875 0.625 3.75q3.25 -0.375 6.625 -1.25l0.875 2.5q-4.25 0.75 -6.75 1.125zm27.125 4.875l11.625 0l-1.25 11.25q-0.5 4.5 -3.625 4.5l-5.0 0l-0.625 -2.75l5.375 0q0.875 0 1.125 -1.875l1.0 -8.75l-9.0 0q-1.625 8.0 -10.75 13.75l-1.75 -2.625q9.75 -5.0 10.375 -15.625l0.125 -2.25l-10.5 0l0 -2.75l12.25 0l0 -5.0l2.75 0q1.25 0.25 0.125 1.0l0 4.0l12.625 0l0 2.75l-14.375 0l-0.5 4.375zm40.0 -2.375q0.25 4.75 0 9.5q3.75 1.375 7.25 3.875l-1.5 2.375q-2.625 -2.0 -5.75 -3.5q0 2.25 -1.375 3.625q-1.5 1.5 -4.375 1.5q-2.875 0 -4.375 -1.5q-1.25 -1.25 -1.25 -3.25q0 -1.75 1.0 -2.75q1.5 -1.5 4.5 -1.5q1.625 0 3.25 0.375q0.25 -4.25 0 -8.625l-9.25 0.625l0 -2.625l9.0 -0.5q-0.125 -3.5 -0.5 -6.25l2.625 0q1.375 0.25 0.25 1.0q0.125 2.625 0.25 5.125l6.75 -0.375l0 2.625l-6.5 0.25zm-18.875 16.75q-0.5 -3.5 -0.5 -8.125q0 -10.125 1.5 -16.25l2.75 0.5q0.875 0.375 -0.125 0.875q-1.375 4.375 -1.375 14.875q0 4.75 0.625 7.625l-2.875 0.5zm16.25 -5.5q-2.125 -0.625 -3.25 -0.625q-1.75 0 -2.5 0.75q-0.625 0.625 -0.625 1.25q0 1.0 0.5 1.5q0.875 0.875 2.625 0.875q1.75 0 2.5 -0.875q0.875 -1.0 0.75 -2.875zm13.5 5.25q4.875 -0.875 5.625 -4.75l-5.625 0l0 -2.0l5.875 0l0 -1.875l-4.75 0l0 -2.0l4.75 0l0 -1.75l-2.375 0l-2.375 0l0 -5.625l11.875 0l0 5.625l-5.0 0l0 1.75l5.0 0l0 2.0l-5.0 0l0 1.875l6.0 0l0 2.0l-6.125 0l0 0.375q3.5 1.25 6.125 3.375l-1.375 2.5q-2.375 -2.375 -5.375 -4.25q-0.875 3.375 -6.25 5.0l-1.0 -2.25zm13.125 -14.5q3.0 -4.0 4.375 -11.375l2.375 0.75q0.75 0.375 -0.25 0.75l-1.25 4.125l3.0 0l1.375 -5.5l2.5 0.625q0.875 0.375 -0.25 0.75l-1.5 4.125l4.625 0l0 2.375l-4.375 0l0 3.75l3.25 0l0 2.375l-3.25 0l0 3.75l3.375 0l0 2.375l-3.375 0l0 4.5l4.75 0l0 2.375l-10.0 0l0 1.0l-2.125 0l0 -17.625q-0.375 1.125 -2.0 3.125l-1.25 -2.25zm8.5 0.375l0 -3.75l-3.125 0l0 3.75l3.125 0zm0 6.125l0 -3.75l-3.125 0l0 3.75l3.125 0zm0 6.875l0 -4.5l-3.125 0l0 4.5l3.125 0zm-16.0 -21.875l2.875 0l0 -3.125l2.0 0q1.0 0.125 0.125 0.75l0 2.375l3.5 0l0 2.0l-3.5 0l0 2.125l-2.125 0l0 -2.125l-2.875 0l0 2.125l-2.125 0l0 -2.125l-3.375 0l0 -2.0l3.375 0l0 -3.125l2.0 0q1.0 0.125 0.125 0.75l0 2.375zm0.25 9.125l0 -2.625l-2.625 0l0 2.625l2.625 0zm5.0 0l0 -2.625l-2.875 0l0 2.625l2.875 0zm42.5 8.875q-5.375 5.875 -11.625 5.875q-4.5 0 -6.625 -2.125q-1.625 -1.625 -1.625 -6.25l0 -16.75l2.625 0q1.125 0.25 0.25 1.0l0 15.75q0 3.125 1.125 4.25q1.375 1.375 4.125 1.375q4.875 0 9.875 -5.5l1.875 2.375zm16.625 -2.0q-1.5 0.875 -3.125 0.875q-2.125 0 -3.25 -1.125q-1.5 -1.5 -1.5 -3.375q0 -2.0 1.5 -3.5q1.5 -1.5 3.75 -1.5q1.5 0 2.875 0.375l0 -2.75l-13.75 0.875l-0.5 -2.625l14.25 -0.625l0 -5.875l2.25 0q1.375 0.25 0.25 1.0l0 4.75l10.625 -0.75l0 2.625l-10.625 0.5l0 4.75q0.5 2.25 0.5 5.0q-0.125 6.375 -7.125 10.75l-2.375 -1.75q6.25 -3.625 6.25 -7.625zm-2.375 -6.5q-1.375 0 -2.25 0.875q-0.75 0.75 -0.75 2.0q0 1.125 0.625 1.75q0.625 0.625 2.0 0.625q1.375 0 2.25 -0.875q0.75 -0.75 0.75 -1.875q0 -1.125 -0.75 -1.875q-0.625 -0.625 -1.875 -0.625zm38.25 7.0q-4.5 -1.0 -7.125 -1.0q-5.0 0 -6.5 1.5q-0.875 0.875 -0.875 1.875q0 1.25 0.75 2.0q1.0 1.0 5.625 1.0l7.625 0l-0.5 2.75l-7.625 0q-5.0 0 -7.0 -2.0q-1.5 -1.5 -1.5 -3.875q0 -1.875 1.375 -3.25q2.125 -2.125 8.75 -2.125q2.25 0 4.5 0.375q-1.75 -1.875 -3.125 -3.625q-5.875 0.75 -12.875 0.75l-0.375 -2.625q6.375 0.125 12.0 -0.5q-0.875 -1.625 -1.375 -3.125q-4.625 0.375 -9.625 0.375l-0.25 -2.5q5.125 0.125 9.25 -0.25q-0.625 -2.25 -1.0 -5.125l2.75 0q1.25 0.25 0.125 1.0q0.25 1.875 0.625 3.75q3.25 -0.375 6.625 -1.25l0.875 2.5q-4.25 0.75 -6.75 1.125q0.5 1.5 1.5 3.125q4.0 -0.625 7.875 -1.75l1.125 2.625q-3.25 0.75 -7.625 1.375q1.875 2.5 4.875 4.75l-2.125 2.125zm6.5 -15.625q-2.75 -2.25 -5.125 -3.625l1.25 -1.625q2.75 1.625 5.125 3.625l-1.25 1.625zm-5.625 -2.5q2.5 1.625 5.125 3.5l-1.25 1.75q-2.75 -2.125 -5.25 -3.625l1.375 -1.625zm16.0 20.125q-1.5 3.125 -4.625 6.625l-1.375 -1.375q3.125 -3.375 4.375 -6.125q1.375 -3.0 1.375 -6.375q0 -4.0 -1.375 -6.875q-1.25 -2.625 -4.375 -5.5l1.375 -1.25q3.25 3.0 4.625 5.875q1.625 3.375 1.625 7.75q0 3.875 -1.625 7.25z" fill-rule="nonzero"/><path fill="#abe33f" d="m24.461615 713.71106l19.374998 0l-7.375 -7.375l6.125 0l9.875 9.625l-9.875 9.625l-6.125 0l7.375 -7.375l-19.374998 0l0 -4.5z" fill-rule="nonzero"/><path fill="#004c52" d="m104.58662 708.58606q-1.5 0 -2.5 -1.0q-1.0 -1.0 -1.0 -2.5q0 -1.5 1.0 -2.5q1.0 -1.0 2.5 -1.0q1.5 0 2.5 1.0q1.0 1.0 1.0 2.5q0 1.5 -1.0 2.5q-1.0 1.0 -2.5 1.0zm0 -1.25q1.0 0 1.625 -0.625q0.625 -0.625 0.625 -1.625q0 -1.0 -0.625 -1.625q-0.625 -0.625 -1.625 -0.625q-1.0 0 -1.625 0.625q-0.625 0.625 -0.625 1.625q0 1.0 0.625 1.625q0.625 0.625 1.625 0.625zm-5.0 0.625q6.25 7.875 8.875 16.625l-3.375 1.125q-3.125 -9.875 -8.125 -15.75l2.625 -2.0zm-9.5 2.875q1.0 0.625 -0.25 1.125q-2.25 7.875 -7.25 14.375l-2.875 -1.875q5.5 -6.625 7.375 -15.0l3.0 1.375zm41.874992 -2.375q-2.375 4.125 -4.9999924 7.625q5.3749924 4.125 10.624992 9.5l-2.5 2.125q-5.25 -5.5 -10.124992 -9.25q-4.875 5.25 -11.125 9.375l-2.375 -2.125q13.25 -8.625 16.999992 -17.25l-13.624992 0.875l-0.375 -3.0l14.499992 -0.625l1.5 -0.375l2.0 2.0q0.875 0.875 -0.5 1.125zm6.625 -2.375q-2.25 -2.625 -4.25 -4.25l1.625 -1.5q2.25 1.75 4.25 4.125l-1.625 1.625zm-3.5 2.0q-1.625 -1.875 -4.375 -4.375l1.875 -1.5q2.25 2.0 4.375 4.25l-1.875 1.625zm24.625 15.75q5.5 -2.125 10.125 -8.5l1.75 2.375q-4.75 6.5 -12.0 9.375l-1.0 0.5l-2.0 -1.5l0.25 -0.625l0 -20.125l2.625 0q1.125 0.25 0.25 1.0l0 17.5zm-16.75 3.375q6.25 -6.0 6.25 -14.875l0 -5.625l2.625 0q1.125 0.25 0.25 1.0l0 4.5q0 10.5 -6.625 16.625l-2.5 -1.625zm58.0 -17.125l0 2.75l-7.25 0q-1.125 9.75 -9.375 16.875l-2.875 -1.625q8.625 -6.875 9.125 -15.25l-9.5 0q-1.625 3.25 -4.125 5.75l-2.5 -1.375q5.5 -5.625 7.0 -14.25l3.125 0.75q1.0 0.25 -0.25 1.0q-0.75 2.75 -1.875 5.375l18.5 0zm-5.625 -7.625q2.0 2.0 4.0 4.5l-1.625 1.375q-2.25 -2.625 -4.0 -4.5l1.625 -1.375zm3.5 -1.375q2.125 2.0 4.125 4.375l-1.875 1.375q-2.0 -2.625 -3.75 -4.375l1.5 -1.375zm6.375 16.125l0 -2.75l27.875 0l0 2.75l-27.875 0zm30.875 5.75l5.25 -0.125q4.5 -9.75 6.875 -19.875l2.875 1.0q1.125 0.75 -0.25 1.125q-2.375 8.875 -6.375 17.5l13.0 -0.625q-2.625 -3.5 -4.125 -5.125l2.5 -1.75q4.25 4.625 8.125 10.875l-2.75 1.875l-2.0 -3.25l-21.0 1.625q-0.75 1.25 -1.125 0l-1.0 -3.25zm52.625 -15.5q5.125 5.25 7.0 12.625l-2.75 1.125q-2.25 -8.125 -6.5 -12.125l2.25 -1.625zm-3.75 10.0q0 7.25 -2.125 9.375q-1.25 1.25 -2.875 1.25q-2.375 0 -4.75 -2.75l1.625 -2.25q2.0 2.0 3.0 2.0q0.625 0 1.125 -0.5q1.375 -1.375 1.375 -7.625q0 -3.5 -0.75 -4.25q-0.375 -0.375 -1.5 -0.375q-1.125 0 -3.125 0.25q-2.625 9.25 -6.25 15.875l-2.875 -1.0q3.625 -5.625 6.375 -14.625q-2.75 0.375 -5.375 0.625l-0.25 -2.75q2.25 0 6.25 -0.375q1.125 -3.875 1.875 -7.875l2.625 0.875q1.5 0.625 -0.125 1.125q-0.75 2.625 -1.5 5.625q1.5 -0.25 3.125 -0.25q1.75 0 2.625 0.875q1.5 1.5 1.5 6.75zm7.0 -16.5q2.25 1.25 5.0 3.5l-1.5 1.5q-2.75 -2.125 -5.0 -3.5l1.5 -1.5zm0.875 8.0q-2.875 -2.375 -4.875 -3.625l1.5 -1.5q2.25 1.25 5.0 3.5l-1.625 1.625zm15.25 14.75q-2.25 3.25 -6.375 6.0l-1.75 -2.25q4.125 -2.625 6.125 -5.375q-0.125 -0.25 -2.5 -1.75l-0.5 1.5l-2.375 -1.0q1.75 -4.875 2.625 -10.125l-3.125 0l0 -2.375l3.5 0q0.5 -3.0 0.875 -6.0l2.625 0.375q0.625 0.125 -0.125 0.75q-0.375 2.5 -0.875 4.875l3.0 0l0.375 -0.625l2.375 1.5l-0.375 0.625q-0.625 7.625 -2.25 11.375q1.75 1.375 3.625 3.0l-1.625 2.5q-2.0 -2.0 -3.25 -3.0zm13.375 3.75q0 2.25 -1.625 2.25l-3.125 0l-0.625 -2.75l2.375 0q0.5 0 0.5 -0.5l0 -8.75l-6.625 0l0 -2.375l6.625 0l0 -5.25l0.875 0.125l2.875 -3.75l-9.5 0l0 -2.375l11.125 0l0.5 -0.5l2.125 2.125q0.75 0.625 -0.5 0.75l-5.0 5.0l0 3.875l6.625 0l0 2.375l-6.625 0l0 9.75zm-17.25 -9.25q1.125 0.5 2.875 1.625q1.375 -3.625 1.875 -9.125l-3.125 0q-1.25 6.125 -1.625 7.5zm40.375 -9.25q0.5 1.5 1.5 3.125q4.0 -0.625 7.875 -1.75l1.125 2.625q-3.25 0.75 -7.625 1.375q1.875 2.5 4.875 4.75l-2.125 2.125q-4.5 -1.0 -7.125 -1.0q-5.0 0 -6.5 1.5q-0.875 0.875 -0.875 1.875q0 1.25 0.75 2.0q1.0 1.0 5.625 1.0l7.625 0l-0.5 2.75l-7.625 0q-5.0 0 -7.0 -2.0q-1.5 -1.5 -1.5 -3.875q0 -1.875 1.375 -3.25q2.125 -2.125 8.75 -2.125q2.25 0 4.5 0.375q-1.75 -1.875 -3.125 -3.625q-5.875 0.75 -12.875 0.75l-0.375 -2.625q6.375 0.125 12.0 -0.5q-0.875 -1.625 -1.375 -3.125q-4.625 0.375 -9.625 0.375l-0.25 -2.5q5.125 0.125 9.25 -0.25q-0.625 -2.25 -1.0 -5.125l2.75 0q1.25 0.25 0.125 1.0q0.25 1.875 0.625 3.75q3.25 -0.375 6.625 -1.25l0.875 2.5q-4.25 0.75 -6.75 1.125z" fill-rule="nonzero"/><path fill="#000000" fill-opacity="0.0" d="m78.08662 764.117l0 0l0 37.40808l0 0l0 -37.40808z" fill-rule="nonzero"/></g></svg>